OpenSans-Condensed.ufo
<glyph name="exclam" format="2">
  <advance width="485.66666666666663"/>
  <unicode hex="0021"/>
  <note>
exclam
</note>
  <outline>
    <contour>
      <point x="187.66666666666669" y="401.66666666666663" type="line"/>
      <point x="297.3333333333333" y="401.66666666666663" type="line"/>
      <point x="337.6666666666667" y="1462.0" type="line"/>
      <point x="148.0" y="1462.0" type="line"/>
    </contour>
    <contour>
      <point x="242.33333333333331" y="-19.666666666666668" type="curve" smooth="yes"/>
      <point x="306.0" y="-19.666666666666668"/>
      <point x="349.6666666666667" y="20.666666666666668"/>
      <point x="349.6666666666667" y="105.66666666666667" type="curve" smooth="yes"/>
      <point x="349.6666666666667" y="193.66666666666669"/>
      <point x="307.6666666666667" y="231.66666666666669"/>
      <point x="242.33333333333331" y="231.66666666666669" type="curve" smooth="yes"/>
      <point x="171.33333333333334" y="231.66666666666669"/>
      <point x="135.33333333333334" y="187.66666666666669"/>
      <point x="135.33333333333334" y="105.66666666666667" type="curve" smooth="yes"/>
      <point x="135.33333333333334" y="24.0"/>
      <point x="171.33333333333334" y="-19.666666666666668"/>
    </contour>
  </outline>
</glyph>
<glyph name="numbersign" format="2">
  <advance width="950.0"/>
  <unicode hex="0023"/>
  <note>
numbersign
</note>
  <outline>
    <contour>
      <point x="159.33333333333331" y="0.0" type="line"/>
      <point x="274.3333333333333" y="0.0" type="line"/>
      <point x="329.6666666666667" y="448.0" type="line"/>
      <point x="545.3333333333334" y="448.0" type="line"/>
      <point x="488.6666666666667" y="0.0" type="line"/>
      <point x="607.3333333333334" y="0.0" type="line"/>
      <point x="662.6666666666667" y="448.0" type="line"/>
      <point x="861.6666666666667" y="448.0" type="line"/>
      <point x="861.6666666666667" y="572.6666666666666" type="line"/>
      <point x="678.0" y="572.6666666666666" type="line"/>
      <point x="720.0" y="922.6666666666667" type="line"/>
      <point x="910.6666666666666" y="922.6666666666667" type="line"/>
      <point x="910.6666666666666" y="1044.6666666666667" type="line"/>
      <point x="737.3333333333334" y="1044.6666666666667" type="line"/>
      <point x="788.3333333333334" y="1462.0" type="line"/>
      <point x="675.0" y="1462.0" type="line"/>
      <point x="622.0" y="1044.6666666666667" type="line"/>
      <point x="403.66666666666663" y="1044.6666666666667" type="line"/>
      <point x="456.0" y="1462.0" type="line"/>
      <point x="338.66666666666663" y="1462.0" type="line"/>
      <point x="287.6666666666667" y="1044.6666666666667" type="line"/>
      <point x="85.66666666666666" y="1044.6666666666667" type="line"/>
      <point x="85.66666666666666" y="922.6666666666667" type="line"/>
      <point x="271.33333333333337" y="922.6666666666667" type="line"/>
      <point x="229.0" y="572.6666666666666" type="line"/>
      <point x="38.33333333333333" y="572.6666666666666" type="line"/>
      <point x="38.33333333333333" y="448.0" type="line"/>
      <point x="212.66666666666669" y="448.0" type="line"/>
    </contour>
    <contour>
      <point x="346.0" y="572.6666666666666" type="line"/>
      <point x="387.3333333333333" y="922.6666666666667" type="line"/>
      <point x="605.0" y="922.6666666666667" type="line"/>
      <point x="561.3333333333334" y="572.6666666666666" type="line"/>
    </contour>
  </outline>
</glyph>
<glyph name="dollar" format="2">
  <advance width="862.0"/>
  <unicode hex="0024"/>
  <note>
dollar
</note>
  <outline>
    <contour>
      <point x="382.6333333333333" y="-119.0" type="line"/>
      <point x="475.8333333333333" y="-119.0" type="line"/>
      <point x="475.8333333333333" y="116.16666666666667" type="line"/>
      <point x="662.1" y="142.3"/>
      <point x="776.0" y="268.33333333333337"/>
      <point x="776.0" y="448.43333333333334" type="curve" smooth="yes"/>
      <point x="776.0" y="627.7"/>
      <point x="678.6" y="714.2333333333333"/>
      <point x="487.6333333333333" y="796.0" type="curve"/>
      <point x="475.8333333333333" y="801.4333333333333" type="line"/>
      <point x="475.8333333333333" y="1245.7333333333333" type="line"/>
      <point x="544.3666666666667" y="1242.3333333333335"/>
      <point x="618.8333333333334" y="1221.6999999999998"/>
      <point x="699.4" y="1183.8333333333333" type="curve"/>
      <point x="750.6333333333333" y="1312.3000000000002" type="line"/>
      <point x="664.1666666666666" y="1354.7333333333333"/>
      <point x="572.3333333333333" y="1377.5333333333333"/>
      <point x="475.8333333333333" y="1381.7" type="curve"/>
      <point x="475.8333333333333" y="1556.0" type="line"/>
      <point x="382.6333333333333" y="1556.0" type="line"/>
      <point x="382.6333333333333" y="1378.4" type="line"/>
      <point x="207.33333333333331" y="1353.6333333333332"/>
      <point x="93.96666666666667" y="1225.8000000000002"/>
      <point x="93.96666666666667" y="1046.6666666666667" type="curve" smooth="yes"/>
      <point x="93.96666666666667" y="985.2"/>
      <point x="103.43333333333332" y="933.2666666666667"/>
      <point x="125.6" y="887.6333333333333" type="curve" smooth="yes"/>
      <point x="164.23333333333332" y="809.8333333333333"/>
      <point x="239.43333333333334" y="750.1"/>
      <point x="369.6666666666667" y="693.1999999999999" type="curve"/>
      <point x="382.6333333333333" y="687.0666666666667" type="line"/>
      <point x="382.6333333333333" y="244.8666666666667" type="line"/>
      <point x="282.43333333333334" y="246.73333333333332"/>
      <point x="169.06666666666666" y="277.0333333333333"/>
      <point x="87.23333333333332" y="324.5" type="curve"/>
      <point x="87.23333333333332" y="173.9" type="line"/>
      <point x="163.9" y="133.3"/>
      <point x="262.3666666666667" y="112.03333333333333"/>
      <point x="382.6333333333333" y="110.63333333333334" type="curve"/>
    </contour>
    <contour>
      <point x="475.8333333333333" y="252.4" type="curve"/>
      <point x="475.8333333333333" y="647.3" type="line"/>
      <point x="592.9333333333333" y="595.1"/>
      <point x="632.5" y="537.2333333333333"/>
      <point x="632.5" y="444.5333333333333" type="curve" smooth="yes"/>
      <point x="632.5" y="346.90000000000003"/>
      <point x="573.6333333333333" y="273.66666666666663"/>
    </contour>
    <contour>
      <point x="382.6333333333333" y="841.6666666666666" type="line"/>
      <point x="279.4666666666667" y="889.7333333333333"/>
      <point x="237.16666666666669" y="943.8666666666667"/>
      <point x="237.16666666666669" y="1051.9666666666667" type="curve" smooth="yes"/>
      <point x="237.16666666666669" y="1149.2"/>
      <point x="292.6666666666667" y="1222.5666666666666"/>
      <point x="382.6333333333333" y="1241.6" type="curve"/>
    </contour>
  </outline>
</glyph>
<glyph name="parenright" format="2">
  <advance width="598.6666666666666"/>
  <unicode hex="0029"/>
  <note>
parenright
</note>
  <outline>
    <contour>
      <point x="76.2" y="-324.0" type="curve"/>
      <point x="206.46666666666667" y="-324.0" type="line"/>
      <point x="399.4" y="-102.06666666666668"/>
      <point x="504.6333333333333" y="214.43333333333334"/>
      <point x="504.6333333333333" y="561.0" type="curve" smooth="yes"/>
      <point x="504.6333333333333" y="906.8"/>
      <point x="399.1" y="1232.8999999999999"/>
      <point x="206.46666666666667" y="1462.0" type="curve"/>
      <point x="74.2" y="1462.0" type="line"/>
      <point x="256.2333333333333" y="1199.8000000000002"/>
      <point x="350.40000000000003" y="884.1"/>
      <point x="350.40000000000003" y="563.0" type="curve" smooth="yes"/>
      <point x="350.40000000000003" y="242.26666666666668"/>
      <point x="251.0" y="-81.36666666666666"/>
    </contour>
  </outline>
</glyph>
<glyph name="asterisk" format="2">
  <advance width="814.0"/>
  <unicode hex="002A"/>
  <note>
asterisk
</note>
  <outline>
    <contour>
      <point x="290.66666666666663" y="895.4333333333333" type="line"/>
      <point x="407.6666666666667" y="1141.4333333333332" type="line"/>
      <point x="522.6666666666666" y="896.9666666666666" type="line"/>
      <point x="653.7333333333333" y="963.4333333333334" type="line"/>
      <point x="487.93333333333334" y="1196.7333333333333" type="line"/>
      <point x="734.5333333333333" y="1208.0" type="line"/>
      <point x="714.0" y="1354.2" type="line"/>
      <point x="456.4" y="1287.6333333333332" type="line"/>
      <point x="487.2" y="1556.0" type="line"/>
      <point x="327.46666666666664" y="1556.0" type="line"/>
      <point x="357.73333333333335" y="1287.6333333333332" type="line"/>
      <point x="104.0" y="1353.1333333333334" type="line"/>
      <point x="80.23333333333333" y="1207.8666666666666" type="line"/>
      <point x="321.5333333333333" y="1196.7333333333333" type="line"/>
      <point x="161.33333333333331" y="963.4333333333334" type="line"/>
    </contour>
  </outline>
</glyph>
<glyph name="period" format="2">
  <advance width="465.66666666666663"/>
  <unicode hex="002E"/>
  <outline>
    <contour>
      <point x="232.7" y="-19.733333333333334" type="curve" smooth="yes"/>
      <point x="296.4666666666667" y="-19.733333333333334"/>
      <point x="340.09999999999997" y="20.533333333333335"/>
      <point x="340.09999999999997" y="105.63333333333334" type="curve" smooth="yes"/>
      <point x="340.09999999999997" y="193.5"/>
      <point x="297.6333333333333" y="231.53333333333336"/>
      <point x="232.7" y="231.53333333333336" type="curve" smooth="yes"/>
      <point x="161.79999999999998" y="231.53333333333336"/>
      <point x="125.53333333333332" y="187.6"/>
      <point x="125.53333333333332" y="105.63333333333334" type="curve" smooth="yes"/>
      <point x="125.53333333333332" y="23.900000000000002"/>
      <point x="162.03333333333333" y="-19.733333333333334"/>
    </contour>
  </outline>
</glyph>
<glyph name="zero" format="2">
  <advance width="862.0"/>
  <unicode hex="0030"/>
  <outline>
    <contour>
      <point x="430.83333333333337" y="-20.0" type="curve" smooth="yes"/>
      <point x="540.8666666666667" y="-20.0"/>
      <point x="625.0666666666667" y="35.36666666666667"/>
      <point x="683.2666666666667" y="151.39999999999998" type="curve" smooth="yes"/>
      <point x="747.7" y="275.3666666666666"/>
      <point x="777.9666666666667" y="470.1333333333333"/>
      <point x="777.9666666666667" y="732.3" type="curve" smooth="yes"/>
      <point x="777.9666666666667" y="1002.7333333333333"/>
      <point x="747.3000000000001" y="1205.6666666666665"/>
      <point x="679.2666666666667" y="1324.5333333333333" type="curve" smooth="yes"/>
      <point x="623.3" y="1432.8999999999999"/>
      <point x="538.3333333333334" y="1483.7"/>
      <point x="432.23333333333335" y="1483.7" type="curve" smooth="yes"/>
      <point x="332.90000000000003" y="1483.7"/>
      <point x="255.4" y="1439.9333333333334"/>
      <point x="198.9" y="1347.4333333333334" type="curve" smooth="yes"/>
      <point x="120.9" y="1227.6333333333334"/>
      <point x="84.0" y="1021.4"/>
      <point x="84.0" y="732.0666666666666" type="curve" smooth="yes"/>
      <point x="84.0" y="463.20000000000005"/>
      <point x="111.1" y="260.93333333333334"/>
      <point x="174.46666666666667" y="142.29999999999998" type="curve" smooth="yes"/>
      <point x="229.60000000000002" y="31.766666666666666"/>
      <point x="315.5" y="-20.0"/>
    </contour>
    <contour>
      <point x="430.6" y="119.50000000000001" type="curve" smooth="yes"/>
      <point x="364.0" y="119.50000000000001"/>
      <point x="316.7" y="167.5"/>
      <point x="287.06666666666666" y="265.3666666666667" type="curve" smooth="yes"/>
      <point x="257.6666666666667" y="361.76666666666665"/>
      <point x="242.70000000000002" y="517.4333333333333"/>
      <point x="242.70000000000002" y="731.8333333333333" type="curve" smooth="yes"/>
      <point x="242.70000000000002" y="947.0"/>
      <point x="257.6666666666667" y="1103.1333333333334"/>
      <point x="287.06666666666666" y="1199.4666666666667" type="curve" smooth="yes"/>
      <point x="316.7" y="1297.1999999999998"/>
      <point x="364.7" y="1343.7333333333333"/>
      <point x="429.90000000000003" y="1343.7333333333333" type="curve" smooth="yes"/>
      <point x="487.23333333333335" y="1343.7333333333333"/>
      <point x="531.5" y="1305.4333333333332"/>
      <point x="561.4333333333334" y="1228.8333333333333" type="curve" smooth="yes"/>
      <point x="600.6333333333333" y="1135.9"/>
      <point x="619.7333333333333" y="974.1"/>
      <point x="619.7333333333333" y="756.8" type="curve" smooth="yes"/>
      <point x="619.7333333333333" y="491.03333333333336"/>
      <point x="599.0333333333333" y="297.4"/>
      <point x="549.0666666666666" y="203.83333333333334" type="curve" smooth="yes"/>
      <point x="519.4333333333333" y="146.96666666666667"/>
      <point x="479.5" y="119.50000000000001"/>
    </contour>
  </outline>
</glyph>
<glyph name="four" format="2">
  <advance width="862.0"/>
  <unicode hex="0034"/>
  <outline>
    <contour>
      <point x="532.1333333333333" y="0.0" type="line"/>
      <point x="681.3333333333334" y="0.0" type="line"/>
      <point x="681.3333333333334" y="323.6" type="line"/>
      <point x="834.5333333333333" y="323.6" type="line"/>
      <point x="834.5333333333333" y="458.6333333333333" type="line"/>
      <point x="681.3333333333334" y="458.6333333333333" type="line"/>
      <point x="681.3333333333334" y="1473.1666666666667" type="line"/>
      <point x="503.6333333333333" y="1473.1666666666667" type="line"/>
      <point x="37.0" y="453.3333333333333" type="line"/>
      <point x="37.0" y="323.6" type="line"/>
      <point x="532.1333333333333" y="323.6" type="line"/>
    </contour>
    <contour>
      <point x="180.16666666666669" y="458.6333333333333" type="line"/>
      <point x="460.1333333333333" y="1088.4" type="line" smooth="yes"/>
      <point x="485.6" y="1150.0"/>
      <point x="510.3" y="1213.1666666666667"/>
      <point x="534.6" y="1279.2" type="curve"/>
      <point x="541.3" y="1279.2" type="line"/>
      <point x="536.5333333333333" y="1205.2333333333333"/>
      <point x="532.1333333333333" y="1108.2"/>
      <point x="532.1333333333333" y="1032.1" type="curve" smooth="yes"/>
      <point x="532.1333333333333" y="458.6333333333333" type="line"/>
    </contour>
  </outline>
</glyph>
<glyph name="six" format="2">
  <advance width="862.0"/>
  <unicode hex="0036"/>
  <outline>
    <contour>
      <point x="438.56666666666666" y="-20.0" type="curve" smooth="yes"/>
      <point x="646.6333333333333" y="-20.0"/>
      <point x="777.3" y="160.5"/>
      <point x="777.3" y="463.23333333333335" type="curve" smooth="yes"/>
      <point x="777.3" y="745.0666666666667"/>
      <point x="664.6" y="916.7666666666667"/>
      <point x="478.93333333333334" y="916.7666666666667" type="curve" smooth="yes"/>
      <point x="373.83333333333337" y="916.7666666666667"/>
      <point x="292.83333333333337" y="857.4"/>
      <point x="246.66666666666669" y="752.6666666666667" type="curve"/>
      <point x="237.50000000000003" y="752.6666666666667" type="line"/>
      <point x="244.03333333333336" y="933.3333333333334"/>
      <point x="269.1333333333333" y="1072.1666666666667"/>
      <point x="314.56666666666666" y="1168.0" type="curve" smooth="yes"/>
      <point x="365.53333333333336" y="1283.8333333333335"/>
      <point x="448.46666666666664" y="1344.4333333333334"/>
      <point x="564.0666666666667" y="1344.4333333333334" type="curve" smooth="yes"/>
      <point x="612.5" y="1344.4333333333334"/>
      <point x="657.5" y="1337.3666666666666"/>
      <point x="699.0666666666667" y="1322.4666666666667" type="curve"/>
      <point x="699.0666666666667" y="1461.6333333333334" type="line"/>
      <point x="666.5333333333333" y="1474.0666666666666"/>
      <point x="616.5333333333333" y="1482.3000000000002"/>
      <point x="560.1666666666666" y="1482.3000000000002" type="curve" smooth="yes"/>
      <point x="436.73333333333335" y="1482.3000000000002"/>
      <point x="335.70000000000005" y="1438.7666666666667"/>
      <point x="261.4" y="1349.8666666666666" type="curve" smooth="yes"/>
      <point x="146.63333333333333" y="1213.4"/>
      <point x="91.36666666666666" y="968.3333333333334"/>
      <point x="91.36666666666666" y="627.9" type="curve" smooth="yes"/>
      <point x="91.36666666666666" y="205.3"/>
      <point x="209.5" y="-20.0"/>
    </contour>
    <contour>
      <point x="440.8" y="119.03333333333335" type="curve" smooth="yes"/>
      <point x="396.9666666666667" y="119.03333333333335"/>
      <point x="360.3666666666667" y="140.3"/>
      <point x="331.8" y="181.73333333333335" type="curve" smooth="yes"/>
      <point x="279.8" y="242.83333333333334"/>
      <point x="248.3666666666667" y="374.73333333333335"/>
      <point x="248.3666666666667" y="523.7666666666667" type="curve" smooth="yes"/>
      <point x="248.3666666666667" y="597.6666666666667"/>
      <point x="270.4" y="669.0666666666667"/>
      <point x="307.4" y="715.6333333333333" type="curve" smooth="yes"/>
      <point x="340.03333333333336" y="757.5333333333334"/>
      <point x="386.43333333333334" y="782.3"/>
      <point x="441.3666666666667" y="782.3" type="curve" smooth="yes"/>
      <point x="561.0999999999999" y="782.3"/>
      <point x="622.0" y="664.9"/>
      <point x="622.0" y="453.3333333333333" type="curve" smooth="yes"/>
      <point x="622.0" y="335.43333333333334"/>
      <point x="604.0333333333334" y="248.46666666666667"/>
      <point x="568.6333333333333" y="193.0666666666667" type="curve" smooth="yes"/>
      <point x="537.9000000000001" y="142.93333333333334"/>
      <point x="494.3333333333333" y="119.03333333333335"/>
    </contour>
  </outline>
</glyph>
<glyph name="colon" format="2">
  <advance width="465.66666666666663"/>
  <unicode hex="003A"/>
  <note>
colon
</note>
  <outline>
    <contour>
      <point x="232.7" y="852.3" type="curve" smooth="yes"/>
      <point x="296.4666666666667" y="852.3"/>
      <point x="340.09999999999997" y="893.1"/>
      <point x="340.09999999999997" y="978.2" type="curve" smooth="yes"/>
      <point x="340.09999999999997" y="1060.6333333333334"/>
      <point x="303.6" y="1103.8"/>
      <point x="232.7" y="1103.8" type="curve" smooth="yes"/>
      <point x="161.8" y="1103.8"/>
      <point x="125.53333333333332" y="1060.4"/>
      <point x="125.53333333333332" y="978.2" type="curve" smooth="yes"/>
      <point x="125.53333333333332" y="896.4666666666667"/>
      <point x="162.03333333333333" y="852.3"/>
    </contour>
    <contour>
      <point x="232.7" y="-19.733333333333334" type="curve" smooth="yes"/>
      <point x="296.4666666666667" y="-19.733333333333334"/>
      <point x="340.09999999999997" y="20.533333333333335"/>
      <point x="340.09999999999997" y="105.63333333333334" type="curve" smooth="yes"/>
      <point x="340.09999999999997" y="193.5"/>
      <point x="297.6333333333333" y="231.53333333333336"/>
      <point x="232.7" y="231.53333333333336" type="curve" smooth="yes"/>
      <point x="161.79999999999998" y="231.53333333333336"/>
      <point x="125.53333333333332" y="187.6"/>
      <point x="125.53333333333332" y="105.63333333333334" type="curve" smooth="yes"/>
      <point x="125.53333333333332" y="23.900000000000002"/>
      <point x="162.03333333333333" y="-19.733333333333334"/>
    </contour>
  </outline>
</glyph>
<glyph name="semicolon" format="2">
  <advance width="465.6666666666667"/>
  <unicode hex="003B"/>
  <note>
semicolon
</note>
  <outline>
    <contour>
      <point x="69.13333333333333" y="-264.0" type="curve"/>
      <point x="178.56666666666666" y="-264.0" type="line"/>
      <point x="251.16666666666669" y="-104.4"/>
      <point x="307.09999999999997" y="47.86666666666666"/>
      <point x="348.06666666666666" y="192.96666666666667" type="curve"/>
      <point x="334.06666666666666" y="215.96666666666667" type="line"/>
      <point x="169.36666666666667" y="215.96666666666667" type="line"/>
      <point x="150.03333333333333" y="68.53333333333335"/>
      <point x="116.56666666666666" y="-91.43333333333332"/>
    </contour>
    <contour>
      <point x="232.7" y="852.3" type="curve" smooth="yes"/>
      <point x="296.46666666666664" y="852.3"/>
      <point x="340.09999999999997" y="893.1"/>
      <point x="340.09999999999997" y="978.2" type="curve" smooth="yes"/>
      <point x="340.09999999999997" y="1060.6333333333332"/>
      <point x="303.6" y="1103.8000000000002"/>
      <point x="232.7" y="1103.8000000000002" type="curve" smooth="yes"/>
      <point x="161.79999999999998" y="1103.8000000000002"/>
      <point x="125.53333333333332" y="1060.3999999999999"/>
      <point x="125.53333333333332" y="978.2" type="curve" smooth="yes"/>
      <point x="125.53333333333332" y="896.4666666666667"/>
      <point x="162.03333333333333" y="852.3"/>
    </contour>
  </outline>
</glyph>
<glyph name="less" format="2">
  <advance width="852.0"/>
  <unicode hex="003C"/>
  <note>
less
</note>
  <outline>
    <contour>
      <point x="778.5666666666667" y="261.09999999999997" type="line"/>
      <point x="778.5666666666667" y="403.93333333333334" type="line"/>
      <point x="216.13333333333333" y="723.0" type="line"/>
      <point x="778.5666666666667" y="1041.3666666666666" type="line"/>
      <point x="778.5666666666667" y="1182.9" type="line"/>
      <point x="74.63333333333333" y="772.4666666666667" type="line"/>
      <point x="74.63333333333333" y="675.0666666666667" type="line"/>
    </contour>
  </outline>
</glyph>
<glyph name="equal" format="2">
  <advance width="852.0"/>
  <unicode hex="003D"/>
  <note>
equal
</note>
  <outline>
    <contour>
      <point x="74.66666666666667" y="868.3333333333333" type="line"/>
      <point x="777.0" y="868.3333333333333" type="line"/>
      <point x="777.0" y="991.3333333333334" type="line"/>
      <point x="74.66666666666667" y="991.3333333333334" type="line"/>
    </contour>
    <contour>
      <point x="74.66666666666667" y="450.66666666666663" type="line"/>
      <point x="777.0" y="450.66666666666663" type="line"/>
      <point x="777.0" y="574.3333333333334" type="line"/>
      <point x="74.66666666666667" y="574.3333333333334" type="line"/>
    </contour>
  </outline>
</glyph>
<glyph name="greater" format="2">
  <advance width="852.0"/>
  <unicode hex="003E"/>
  <note>
greater
</note>
  <outline>
    <contour>
      <point x="73.33333333333333" y="261.0" type="line"/>
      <point x="776.6666666666666" y="675.0" type="line"/>
      <point x="776.6666666666666" y="772.3333333333334" type="line"/>
      <point x="73.33333333333333" y="1183.0" type="line"/>
      <point x="73.33333333333333" y="1041.3333333333333" type="line"/>
      <point x="636.0" y="723.0" type="line"/>
      <point x="73.33333333333333" y="404.0" type="line"/>
    </contour>
  </outline>
</glyph>
<glyph name="question" format="2">
  <advance width="646.0"/>
  <unicode hex="003F"/>
  <note>
question
</note>
  <outline>
    <contour>
      <point x="199.79999999999998" y="401.5333333333333" type="line"/>
      <point x="327.46666666666664" y="401.5333333333333" type="line"/>
      <point x="327.46666666666664" y="446.1666666666667" type="line" smooth="yes"/>
      <point x="327.46666666666664" y="495.33333333333337"/>
      <point x="331.76666666666665" y="535.4333333333334"/>
      <point x="344.4" y="574.8666666666667" type="curve" smooth="yes"/>
      <point x="360.1666666666667" y="627.2333333333333"/>
      <point x="388.23333333333335" y="674.9333333333333"/>
      <point x="433.53333333333336" y="736.6999999999999" type="curve" smooth="yes"/>
      <point x="502.6333333333333" y="830.5333333333333"/>
      <point x="544.1" y="896.7333333333333"/>
      <point x="567.5666666666667" y="959.8666666666667" type="curve" smooth="yes"/>
      <point x="590.1999999999999" y="1021.0333333333333"/>
      <point x="596.2666666666667" y="1080.128"/>
      <point x="596.2666666666667" y="1158.0666666666666" type="curve" smooth="yes"/>
      <point x="596.2666666666667" y="1361.6"/>
      <point x="486.2" y="1483.0"/>
      <point x="298.26666666666665" y="1483.0" type="curve" smooth="yes"/>
      <point x="199.1" y="1483.0"/>
      <point x="110.8" y="1454.2666666666667"/>
      <point x="31.5" y="1398.0333333333333" type="curve"/>
      <point x="94.36666666666667" y="1280.7333333333333" type="line"/>
      <point x="157.53333333333333" y="1322.4"/>
      <point x="212.93333333333334" y="1346.3333333333333"/>
      <point x="290.3333333333333" y="1346.3333333333333" type="curve" smooth="yes"/>
      <point x="385.53333333333336" y="1346.3333333333333"/>
      <point x="443.76666666666665" y="1269.7333333333333"/>
      <point x="443.76666666666665" y="1141.8" type="curve" smooth="yes"/>
      <point x="443.76666666666665" y="1041.5666666666668"/>
      <point x="429.7333333333333" y="973.6666666666666"/>
      <point x="345.1333333333333" y="851.6333333333333" type="curve" smooth="yes"/>
      <point x="331.6666666666667" y="831.7333333333333"/>
      <point x="316.9" y="811.0666666666667"/>
      <point x="301.8333333333333" y="788.8666666666667" type="curve" smooth="yes"/>
      <point x="221.8" y="677.7666666666667"/>
      <point x="199.79999999999998" y="592.1666666666667"/>
      <point x="199.79999999999998" y="459.06666666666666" type="curve" smooth="yes"/>
    </contour>
    <contour>
      <point x="268.23333333333335" y="-19.733333333333334" type="curve" smooth="yes"/>
      <point x="332.23333333333335" y="-19.733333333333334"/>
      <point x="375.1666666666667" y="21.46666666666667"/>
      <point x="375.1666666666667" y="105.4" type="curve" smooth="yes"/>
      <point x="375.1666666666667" y="192.5666666666667"/>
      <point x="333.16666666666663" y="231.53333333333336"/>
      <point x="268.23333333333335" y="231.53333333333336" type="curve" smooth="yes"/>
      <point x="197.63333333333333" y="231.53333333333336"/>
      <point x="161.60000000000002" y="187.83333333333334"/>
      <point x="161.60000000000002" y="105.4" type="curve" smooth="yes"/>
      <point x="161.60000000000002" y="23.433333333333334"/>
      <point x="198.56666666666666" y="-19.733333333333334"/>
    </contour>
  </outline>
</glyph>
<glyph name="A" format="2">
  <advance width="906.6666666666667"/>
  <unicode hex="0041"/>
  <anchor x="453.66666666666663" y="0.0" name="bottom"/>
  <anchor x="877.8333333333333" y="10.0" name="ogonek"/>
  <anchor x="453.66666666666663" y="1462.0" name="top"/>
  <outline>
    <contour>
      <point x="906.5666666666666" y="0.0" type="line"/>
      <point x="545.6333333333333" y="1464.1" type="line"/>
      <point x="355.5" y="1464.1" type="line"/>
      <point x="0.0" y="0.0" type="line"/>
      <point x="158.46666666666667" y="0.0" type="line"/>
      <point x="271.46666666666664" y="476.5666666666666" type="line"/>
      <point x="635.0999999999999" y="476.5666666666666" type="line"/>
      <point x="749.1666666666666" y="0.0" type="line"/>
    </contour>
    <contour>
      <point x="302.1333333333334" y="622.4666666666666" type="line"/>
      <point x="347.40000000000003" y="820.1"/>
      <point x="385.1333333333333" y="988.0333333333333"/>
      <point x="420.1333333333333" y="1143.6666666666667" type="curve" smooth="yes"/>
      <point x="430.79999999999995" y="1191.6333333333332"/>
      <point x="439.56666666666666" y="1246.1333333333332"/>
      <point x="449.53333333333336" y="1322.5666666666666" type="curve"/>
      <point x="455.59999999999997" y="1273.8666666666666"/>
      <point x="478.9666666666667" y="1153.8"/>
      <point x="490.56666666666666" y="1099.3333333333333" type="curve" smooth="yes"/>
      <point x="602.5333333333334" y="622.4666666666666" type="line"/>
    </contour>
  </outline>
</glyph>
<glyph name="C" format="2">
  <advance width="889.3333333333334"/>
  <unicode hex="0043"/>
  <anchor x="550.6666666666666" y="0.0" name="bottom"/>
  <anchor x="545.6666666666666" y="1459.0" name="top"/>
  <outline>
    <contour>
      <point x="581.4" y="-20.0" type="curve" smooth="yes"/>
      <point x="672.2333333333333" y="-20.0"/>
      <point x="750.2666666666667" y="-2.433333333333333"/>
      <point x="808.5666666666667" y="33.63333333333333" type="curve"/>
      <point x="808.5666666666667" y="174.26666666666668" type="line"/>
      <point x="746.5666666666667" y="141.66666666666669"/>
      <point x="675.5" y="122.30000000000001"/>
      <point x="597.4000000000001" y="122.30000000000001" type="curve" smooth="yes"/>
      <point x="524.0999999999999" y="122.30000000000001"/>
      <point x="462.59999999999997" y="149.06666666666666"/>
      <point x="411.73333333333335" y="201.3666666666667" type="curve" smooth="yes"/>
      <point x="314.6666666666667" y="299.9666666666667"/>
      <point x="262.4666666666667" y="485.76666666666665"/>
      <point x="262.4666666666667" y="727.8666666666667" type="curve" smooth="yes"/>
      <point x="262.4666666666667" y="1116.0666666666666"/>
      <point x="388.0" y="1342.4666666666667"/>
      <point x="587.4666666666666" y="1342.4666666666667" type="curve" smooth="yes"/>
      <point x="661.7333333333333" y="1342.4666666666667"/>
      <point x="731.1" y="1313.2666666666667"/>
      <point x="782.9" y="1278.9" type="curve"/>
      <point x="842.8333333333334" y="1410.1666666666667" type="line"/>
      <point x="760.6666666666666" y="1461.6666666666665"/>
      <point x="677.5333333333334" y="1484.3"/>
      <point x="583.8666666666667" y="1484.3" type="curve" smooth="yes"/>
      <point x="447.33333333333337" y="1484.3333333333333"/>
      <point x="335.3333333333333" y="1426.3333333333333"/>
      <point x="253.33333333333334" y="1318.3333333333333" type="curve" smooth="yes"/>
      <point x="156.33333333333334" y="1189.3333333333335"/>
      <point x="102.0" y="989.0"/>
      <point x="102.13333333333334" y="732.6666666666666" type="curve" smooth="yes"/>
      <point x="102.0" y="335.0"/>
      <point x="239.33333333333334" y="-20.0"/>
    </contour>
  </outline>
</glyph>
<glyph name="G" format="2">
  <advance width="1087.3333333333335"/>
  <unicode hex="0047"/>
  <anchor x="571.7333333333333" y="0.0" name="bottom"/>
  <anchor x="648.5" y="1462.0" name="top"/>
  <outline>
    <contour>
      <point x="617.9666666666667" y="-20.0" type="curve" smooth="yes"/>
      <point x="737.7333333333333" y="-20.0"/>
      <point x="863.3" y="3.4000000000000004"/>
      <point x="979.9" y="50.599999999999994" type="curve"/>
      <point x="979.9" y="761.7333333333333" type="line"/>
      <point x="617.6666666666666" y="761.7333333333333" type="line"/>
      <point x="617.6666666666666" y="619.2" type="line"/>
      <point x="825.3666666666667" y="619.2" type="line"/>
      <point x="825.3666666666667" y="152.53333333333333" type="line"/>
      <point x="766.3666666666667" y="132.20000000000002"/>
      <point x="697.8" y="122.30000000000003"/>
      <point x="621.8333333333333" y="122.30000000000003" type="curve" smooth="yes"/>
      <point x="392.40000000000003" y="122.30000000000003"/>
      <point x="264.0" y="346.20000000000005"/>
      <point x="264.0" y="722.5" type="curve" smooth="yes"/>
      <point x="264.0" y="1127.1666666666665"/>
      <point x="402.3333333333333" y="1341.7666666666667"/>
      <point x="653.4" y="1341.7666666666667" type="curve" smooth="yes"/>
      <point x="733.9666666666667" y="1341.7666666666667"/>
      <point x="819.0" y="1314.4"/>
      <point x="907.9666666666667" y="1258.9" type="curve"/>
      <point x="967.8" y="1390.6333333333334" type="line"/>
      <point x="867.2333333333333" y="1452.4666666666667"/>
      <point x="761.8333333333334" y="1483.0"/>
      <point x="646.8666666666667" y="1483.0" type="curve" smooth="yes"/>
      <point x="535.7" y="1483.0"/>
      <point x="439.06666666666666" y="1453.8666666666666"/>
      <point x="360.2" y="1398.6666666666667" type="curve" smooth="yes"/>
      <point x="193.6" y="1283.0666666666668"/>
      <point x="102.13333333333334" y="1053.3333333333333"/>
      <point x="102.13333333333334" y="727.5333333333333" type="curve" smooth="yes"/>
      <point x="102.13333333333334" y="257.3333333333333"/>
      <point x="288.0" y="-20.0"/>
    </contour>
  </outline>
</glyph>
<glyph name="L" format="2">
  <advance width="748.3333333333334"/>
  <unicode hex="004C"/>
  <anchor x="374.6666666666667" y="0.0" name="bottom"/>
  <anchor x="374.6666666666667" y="731.0" name="center"/>
  <anchor x="228.0" y="1462.0" name="top"/>
  <anchor x="667.0" y="1462.0" name="topright"/>
  <outline>
    <contour>
      <point x="706.1666666666667" y="0.0" type="line"/>
      <point x="706.1666666666667" y="142.06666666666666" type="line"/>
      <point x="305.6" y="142.06666666666666" type="line"/>
      <point x="305.6" y="1462.0" type="line"/>
      <point x="149.5" y="1462.0" type="line"/>
      <point x="149.5" y="0.0" type="line"/>
    </contour>
  </outline>
</glyph>
<glyph name="N" format="2">
  <advance width="1154.0"/>
  <unicode hex="004E"/>
  <anchor x="576.9666666666667" y="0.0" name="bottom"/>
  <anchor x="576.9666666666667" y="1462.0" name="top"/>
  <outline>
    <contour>
      <point x="149.5" y="0.0" type="line"/>
      <point x="297.53333333333336" y="0.0" type="line"/>
      <point x="297.53333333333336" y="965.4666666666666" type="line" smooth="yes"/>
      <point x="297.53333333333336" y="1052.5"/>
      <point x="292.3666666666667" y="1139.2666666666667"/>
      <point x="281.3333333333333" y="1227.0" type="curve"/>
      <point x="291.20000000000005" y="1227.0" type="line"/>
      <point x="810.6" y="0.0" type="line"/>
      <point x="1004.4333333333333" y="0.0" type="line"/>
      <point x="1004.4333333333333" y="1462.0" type="line"/>
      <point x="856.8666666666667" y="1462.0" type="line"/>
      <point x="856.8666666666667" y="514.6666666666667" type="line" smooth="yes"/>
      <point x="856.8666666666667" y="433.5"/>
      <point x="860.8000000000001" y="344.53333333333336"/>
      <point x="868.6" y="248.60000000000002" type="curve"/>
      <point x="860.9666666666667" y="248.60000000000002" type="line"/>
      <point x="345.56666666666666" y="1462.0" type="line"/>
      <point x="149.5" y="1462.0" type="line"/>
    </contour>
  </outline>
</glyph>
<glyph name="Q" format="2">
  <advance width="1116.3333333333335"/>
  <unicode hex="0051"/>
  <anchor x="558.6666666666667" y="0.0" name="bottom"/>
  <anchor x="558.6666666666667" y="1462.0" name="top"/>
  <outline>
    <contour>
      <point x="787.6" y="-348.0" type="line"/>
      <point x="975.6" y="-348.0" type="line"/>
      <point x="743.9333333333333" y="23.766666666666666" type="line"/>
      <point x="919.5333333333333" y="116.56666666666666"/>
      <point x="1014.1999999999999" y="362.5"/>
      <point x="1014.1999999999999" y="733.4666666666667" type="curve" smooth="yes"/>
      <point x="1014.1999999999999" y="1214.7"/>
      <point x="854.1333333333333" y="1483.7"/>
      <point x="560.6666666666667" y="1483.7" type="curve" smooth="yes"/>
      <point x="257.8333333333333" y="1483.7"/>
      <point x="102.13333333333334" y="1232.2333333333333"/>
      <point x="102.13333333333334" y="733.3666666666667" type="curve" smooth="yes"/>
      <point x="102.13333333333334" y="250.83333333333334"/>
      <point x="260.6666666666667" y="-19.76666666666667"/>
      <point x="559.7666666666667" y="-20.0" type="curve" smooth="yes"/>
      <point x="573.0333333333333" y="-20.0"/>
      <point x="585.5333333333333" y="-19.23333333333333"/>
      <point x="598.8000000000001" y="-16.933333333333334" type="curve"/>
    </contour>
    <contour>
      <point x="558.6" y="123.00000000000001" type="curve" smooth="yes"/>
      <point x="365.06666666666666" y="123.00000000000001"/>
      <point x="262.46666666666664" y="331.6"/>
      <point x="262.46666666666664" y="733.2333333333333" type="curve" smooth="yes"/>
      <point x="262.46666666666664" y="1130.4333333333332"/>
      <point x="362.46666666666664" y="1340.9333333333334"/>
      <point x="560.9000000000001" y="1340.9333333333334" type="curve" smooth="yes"/>
      <point x="754.2666666666667" y="1340.9333333333334"/>
      <point x="853.6333333333333" y="1135.2"/>
      <point x="853.6333333333333" y="733.4666666666667" type="curve" smooth="yes"/>
      <point x="853.6333333333333" y="326.90000000000003"/>
      <point x="751.9666666666667" y="123.00000000000001"/>
    </contour>
  </outline>
</glyph>
<glyph name="R" format="2">
  <advance width="921.3333333333334"/>
  <unicode hex="0052"/>
  <anchor x="460.66666666666663" y="0.0" name="bottom"/>
  <anchor x="460.66666666666663" y="1462.0" name="top"/>
  <outline>
    <contour>
      <point x="149.5" y="0.0" type="line"/>
      <point x="305.6" y="0.0" type="line"/>
      <point x="305.6" y="615.6666666666666" type="line"/>
      <point x="461.96666666666664" y="615.6666666666666" type="line"/>
      <point x="720.9666666666666" y="0.0" type="line"/>
      <point x="891.1666666666666" y="0.0" type="line"/>
      <point x="604.2" y="655.0" type="line"/>
      <point x="758.5" y="722.5666666666667"/>
      <point x="823.3333333333333" y="851.5666666666666"/>
      <point x="823.3333333333333" y="1048.5" type="curve" smooth="yes"/>
      <point x="823.3333333333333" y="1324.9"/>
      <point x="692.1333333333333" y="1462.0"/>
      <point x="401.53333333333336" y="1462.0" type="curve" smooth="yes"/>
      <point x="149.5" y="1462.0" type="line"/>
    </contour>
    <contour>
      <point x="305.6" y="753.7333333333333" type="line"/>
      <point x="305.6" y="1319.5666666666668" type="line"/>
      <point x="400.8333333333333" y="1319.5666666666668" type="line" smooth="yes"/>
      <point x="582.9" y="1319.5666666666668"/>
      <point x="665.0" y="1239.5333333333333"/>
      <point x="665.0" y="1043.3333333333333" type="curve" smooth="yes"/>
      <point x="665.0" y="851.3666666666667"/>
      <point x="580.8666666666667" y="753.7333333333333"/>
      <point x="420.43333333333334" y="753.7333333333333" type="curve" smooth="yes"/>
    </contour>
  </outline>
</glyph>
<glyph name="T" format="2">
  <advance width="769.0"/>
  <unicode hex="0054"/>
  <anchor x="374.8666666666667" y="0.0" name="bottom"/>
  <anchor x="385.6" y="731.0" name="center"/>
  <anchor x="385.6" y="1462.0" name="top"/>
  <outline>
    <contour>
      <point x="462.0" y="1319.7" type="line"/>
      <point x="749.2666666666667" y="1319.7" type="line"/>
      <point x="749.2666666666667" y="1462.0" type="line"/>
      <point x="19.1" y="1462.0" type="line"/>
      <point x="19.1" y="1319.7" type="line"/>
      <point x="306.3666666666667" y="1319.7" type="line"/>
      <point x="306.3666666666667" y="0.0" type="line"/>
      <point x="462.0" y="0.0" type="line"/>
    </contour>
  </outline>
</glyph>
<glyph name="W" format="2">
  <advance width="1470.6666666666667"/>
  <unicode hex="0057"/>
  <anchor x="735.5666666666666" y="0.0" name="bottom"/>
  <anchor x="735.5666666666666" y="1462.0" name="top"/>
  <outline>
    <contour>
      <point x="310.23333333333335" y="0.0" type="line"/>
      <point x="501.1333333333333" y="0.0" type="line"/>
      <point x="693.3000000000001" y="984.6999999999999" type="line" smooth="yes"/>
      <point x="706.6333333333333" y="1056.8"/>
      <point x="720.5666666666667" y="1159.3666666666668"/>
      <point x="734.2666666666667" y="1267.6666666666667" type="curve"/>
      <point x="749.7666666666667" y="1126.2"/>
      <point x="764.5666666666667" y="1028.2333333333333"/>
      <point x="773.0" y="984.5666666666666" type="curve" smooth="yes"/>
      <point x="969.6333333333333" y="0.0" type="line"/>
      <point x="1162.3666666666668" y="0.0" type="line"/>
      <point x="1457.5" y="1462.0" type="line"/>
      <point x="1301.0333333333333" y="1462.0" type="line"/>
      <point x="1116.5" y="515.4333333333333" type="line" smooth="yes"/>
      <point x="1098.6666666666667" y="420.6"/>
      <point x="1079.6666666666667" y="295.8666666666667"/>
      <point x="1061.6" y="156.03333333333333" type="curve"/>
      <point x="1046.3" y="292.16666666666663"/>
      <point x="1034.0" y="379.4666666666667"/>
      <point x="1007.4666666666667" y="513.5666666666667" type="curve" smooth="yes"/>
      <point x="820.0333333333333" y="1462.0" type="line"/>
      <point x="651.8666666666667" y="1462.0" type="line"/>
      <point x="463.43333333333334" y="510.96666666666664" type="line" smooth="yes"/>
      <point x="442.0" y="401.23333333333335"/>
      <point x="426.1" y="295.46666666666664"/>
      <point x="409.7" y="156.5" type="curve"/>
      <point x="399.06666666666666" y="243.9"/>
      <point x="379.1333333333333" y="377.33333333333337"/>
      <point x="351.43333333333334" y="515.4333333333334" type="curve" smooth="yes"/>
      <point x="170.4" y="1462.0" type="line"/>
      <point x="12.799999999999997" y="1462.0" type="line"/>
    </contour>
  </outline>
</glyph>
<glyph name="Y" format="2">
  <advance width="777.6666666666666"/>
  <unicode hex="0059"/>
  <anchor x="389.20000000000005" y="0.0" name="bottom"/>
  <anchor x="389.20000000000005" y="1462.0" name="top"/>
  <anchor x="20.0" y="1462.0" name="topleft"/>
  <outline>
    <contour>
      <point x="165.13333333333335" y="1462.0" type="line"/>
      <point x="0.0" y="1462.0" type="line"/>
      <point x="310.73333333333335" y="572.6333333333333" type="line"/>
      <point x="310.73333333333335" y="0.0" type="line"/>
      <point x="465.43333333333334" y="0.0" type="line"/>
      <point x="465.43333333333334" y="575.9" type="line"/>
      <point x="777.7" y="1462.0" type="line"/>
      <point x="613.5" y="1462.0" type="line"/>
      <point x="389.5" y="766.2666666666667" type="line"/>
    </contour>
  </outline>
</glyph>
<glyph name="Z" format="2">
  <advance width="721.0"/>
  <unicode hex="005A"/>
  <anchor x="361.2" y="0.0" name="bottom"/>
  <anchor x="361.2" y="1462.0" name="top"/>
  <outline>
    <contour>
      <point x="679.4666666666666" y="142.06666666666666" type="line"/>
      <point x="223.93333333333334" y="142.06666666666666" type="line"/>
      <point x="666.5333333333334" y="1338.6333333333334" type="line"/>
      <point x="666.5333333333334" y="1462.0" type="line"/>
      <point x="60.9" y="1462.0" type="line"/>
      <point x="60.9" y="1318.8666666666666" type="line"/>
      <point x="490.8" y="1318.8666666666666" type="line"/>
      <point x="52.333333333333336" y="121.83333333333334" type="line"/>
      <point x="52.333333333333336" y="0.0" type="line"/>
      <point x="679.4666666666666" y="0.0" type="line"/>
    </contour>
  </outline>
</glyph>
<glyph name="backslash" format="2">
  <advance width="751.6666666666667"/>
  <unicode hex="005C"/>
  <note>
backslash
</note>
  <outline>
    <contour>
      <point x="568.3333333333334" y="0.0" type="line"/>
      <point x="721.5999999999999" y="0.0" type="line"/>
      <point x="188.53333333333333" y="1462.0" type="line"/>
      <point x="38.633333333333326" y="1462.0" type="line"/>
    </contour>
  </outline>
</glyph>
<glyph name="bracketright" format="2">
  <advance width="646.3333333333334"/>
  <unicode hex="005D"/>
  <note>
bracketright
</note>
  <outline>
    <contour>
      <point x="65.13333333333333" y="-324.0" type="line"/>
      <point x="485.93333333333334" y="-324.0" type="line"/>
      <point x="485.93333333333334" y="1462.0" type="line"/>
      <point x="65.13333333333333" y="1462.0" type="line"/>
      <point x="65.13333333333333" y="1335.8333333333333" type="line"/>
      <point x="341.3" y="1335.8333333333333" type="line"/>
      <point x="341.3" y="-196.83333333333331" type="line"/>
      <point x="65.13333333333333" y="-196.83333333333331" type="line"/>
    </contour>
  </outline>
</glyph>
<glyph name="a" format="2">
  <advance width="841.3333333333333"/>
  <unicode hex="0061"/>
  <anchor x="420.7" y="0.0" name="bottom"/>
  <anchor x="782.6333333333333" y="10.0" name="ogonek"/>
  <anchor x="420.7" y="1094.8000000000002" name="top"/>
  <outline>
    <contour>
      <point x="713.4666666666667" y="0.0" type="line"/>
      <point x="713.4666666666667" y="742.0333333333333" type="line" smooth="yes"/>
      <point x="713.4666666666667" y="1000.4333333333333"/>
      <point x="623.4333333333333" y="1116.5"/>
      <point x="422.73333333333335" y="1116.5" type="curve" smooth="yes"/>
      <point x="326.9" y="1116.5"/>
      <point x="232.73333333333332" y="1089.3000000000002"/>
      <point x="146.29999999999998" y="1034.3666666666668" type="curve"/>
      <point x="204.56666666666666" y="923.4333333333333" type="line"/>
      <point x="276.8" y="968.1666666666666"/>
      <point x="344.0" y="990.0333333333333"/>
      <point x="407.6333333333333" y="990.0333333333333" type="curve" smooth="yes"/>
      <point x="516.0" y="990.0333333333333"/>
      <point x="561.8333333333334" y="913.7"/>
      <point x="561.8333333333334" y="743.8333333333334" type="curve" smooth="yes"/>
      <point x="561.8333333333334" y="657.5666666666667" type="line"/>
      <point x="434.79999999999995" y="651.3333333333334" type="line" smooth="yes"/>
      <point x="198.2" y="640.1"/>
      <point x="70.3" y="518.7666666666667"/>
      <point x="70.3" y="301.5" type="curve" smooth="yes"/>
      <point x="70.3" y="104.56666666666666"/>
      <point x="164.53333333333333" y="-20.0"/>
      <point x="320.0" y="-20.0" type="curve" smooth="yes"/>
      <point x="425.46666666666664" y="-20.0"/>
      <point x="506.3333333333333" y="32.333333333333336"/>
      <point x="566.0333333333334" y="152.0" type="curve"/>
      <point x="570.7333333333333" y="152.0" type="line"/>
      <point x="596.5" y="0.0" type="line"/>
    </contour>
    <contour>
      <point x="365.5" y="103.46666666666668" type="curve" smooth="yes"/>
      <point x="279.53333333333336" y="103.46666666666668"/>
      <point x="228.63333333333335" y="165.6"/>
      <point x="228.63333333333335" y="301.8333333333333" type="curve" smooth="yes"/>
      <point x="228.63333333333335" y="454.90000000000003"/>
      <point x="303.70000000000005" y="533.5"/>
      <point x="459.33333333333337" y="541.3333333333334" type="curve" smooth="yes"/>
      <point x="561.8333333333334" y="546.6333333333333" type="line"/>
      <point x="561.8333333333334" y="439.93333333333334" type="line" smooth="yes"/>
      <point x="561.8333333333334" y="228.29999999999998"/>
      <point x="488.20000000000005" y="103.46666666666668"/>
    </contour>
  </outline>
</glyph>
<glyph name="b" format="2">
  <advance width="934.0"/>
  <unicode hex="0062"/>
  <anchor x="467.53333333333336" y="0.0" name="bottom"/>
  <anchor x="467.53333333333336" y="1094.8000000000002" name="top"/>
  <outline>
    <contour>
      <point x="531.3333333333334" y="-20.0" type="curve" smooth="yes"/>
      <point x="734.4" y="-20.0"/>
      <point x="846.5999999999999" y="182.2"/>
      <point x="846.5999999999999" y="550.2666666666667" type="curve" smooth="yes"/>
      <point x="846.5999999999999" y="920.3333333333334"/>
      <point x="733.4" y="1114.5"/>
      <point x="528.4666666666667" y="1114.5" type="curve" smooth="yes"/>
      <point x="424.8" y="1114.5"/>
      <point x="349.73333333333335" y="1065.2"/>
      <point x="289.03333333333336" y="950.8666666666667" type="curve"/>
      <point x="279.1666666666667" y="950.8666666666667" type="line"/>
      <point x="283.8" y="1010.9666666666667"/>
      <point x="286.43333333333334" y="1067.2666666666667"/>
      <point x="286.43333333333334" y="1112.6666666666667" type="curve" smooth="yes"/>
      <point x="286.43333333333334" y="1556.0" type="line"/>
      <point x="134.26666666666665" y="1556.0" type="line"/>
      <point x="134.26666666666665" y="0.0" type="line"/>
      <point x="251.7" y="0.0" type="line"/>
      <point x="275.4333333333334" y="142.29999999999998" type="line"/>
      <point x="286.4666666666667" y="142.29999999999998" type="line"/>
      <point x="345.73333333333335" y="31.7"/>
      <point x="429.70000000000005" y="-20.0"/>
    </contour>
    <contour>
      <point x="493.40000000000003" y="113.60000000000001" type="curve" smooth="yes"/>
      <point x="325.6333333333333" y="113.60000000000001"/>
      <point x="286.43333333333334" y="316.1"/>
      <point x="286.43333333333334" y="533.7666666666667" type="curve" smooth="yes"/>
      <point x="286.43333333333334" y="559.4666666666667" type="line" smooth="yes"/>
      <point x="286.43333333333334" y="787.2333333333333"/>
      <point x="318.0" y="980.3"/>
      <point x="488.09999999999997" y="980.3" type="curve" smooth="yes"/>
      <point x="629.9666666666666" y="980.3"/>
      <point x="689.9666666666667" y="839.4333333333334"/>
      <point x="689.9666666666667" y="551.1333333333333" type="curve" smooth="yes"/>
      <point x="689.9666666666667" y="328.43333333333334"/>
      <point x="656.8666666666667" y="113.60000000000001"/>
    </contour>
  </outline>
</glyph>
<glyph name="e" format="2">
  <advance width="849.3333333333333"/>
  <unicode hex="0065"/>
  <anchor x="437.2333333333333" y="0.0" name="bottom"/>
  <anchor x="742.1" y="37.93333333333333" name="ogonek"/>
  <anchor x="424.8666666666667" y="1094.8000000000002" name="top"/>
  <outline>
    <contour>
      <point x="476.56666666666666" y="-20.0" type="curve" smooth="yes"/>
      <point x="567.5666666666667" y="-20.0"/>
      <point x="650.6" y="3.6333333333333337"/>
      <point x="724.9666666666667" y="48.96666666666667" type="curve"/>
      <point x="724.9666666666667" y="183.43333333333337" type="line"/>
      <point x="644.6" y="135.4"/>
      <point x="567.4666666666667" y="111.53333333333333"/>
      <point x="493.1666666666667" y="111.53333333333333" type="curve" smooth="yes"/>
      <point x="330.23333333333335" y="111.53333333333333"/>
      <point x="246.63333333333333" y="248.0"/>
      <point x="243.4" y="525.0333333333333" type="curve"/>
      <point x="764.4000000000001" y="525.0333333333333" type="line"/>
      <point x="764.4000000000001" y="631.0" type="line" smooth="yes"/>
      <point x="764.4000000000001" y="931.5666666666667"/>
      <point x="640.5666666666667" y="1115.8"/>
      <point x="439.56666666666666" y="1115.8" type="curve" smooth="yes"/>
      <point x="215.06666666666666" y="1115.8"/>
      <point x="88.53333333333333" y="909.7333333333333"/>
      <point x="88.53333333333333" y="539.6666666666666" type="curve" smooth="yes"/>
      <point x="88.53333333333333" y="186.0"/>
      <point x="231.0" y="-20.0"/>
    </contour>
    <contour>
      <point x="246.10000000000002" y="646.7333333333333" type="line"/>
      <point x="257.23333333333335" y="877.1666666666666"/>
      <point x="322.40000000000003" y="990.1333333333333"/>
      <point x="434.96666666666664" y="990.1333333333333" type="curve" smooth="yes"/>
      <point x="544.7333333333333" y="990.1333333333333"/>
      <point x="612.9333333333334" y="860.3000000000001"/>
      <point x="614.1" y="646.7333333333333" type="curve"/>
    </contour>
  </outline>
</glyph>
<glyph name="f" format="2">
  <advance width="505.99999999999994"/>
  <unicode hex="0066"/>
  <anchor x="253.36666666666667" y="0.0" name="bottom"/>
  <anchor x="253.36666666666667" y="1094.8000000000002" name="top"/>
  <outline>
    <contour>
      <point x="158.0" y="0.0" type="line"/>
      <point x="309.4" y="0.0" type="line"/>
      <point x="309.4" y="968.3333333333334" type="line"/>
      <point x="484.0666666666667" y="968.3333333333334" type="line"/>
      <point x="484.0666666666667" y="1094.8000000000002" type="line"/>
      <point x="309.4" y="1094.8000000000002" type="line"/>
      <point x="309.4" y="1182.7666666666667" type="line" smooth="yes"/>
      <point x="309.4" y="1249.2666666666667"/>
      <point x="314.33333333333337" y="1303.6666666666667"/>
      <point x="324.2" y="1338.9666666666667" type="curve" smooth="yes"/>
      <point x="337.6333333333333" y="1406.3666666666666"/>
      <point x="361.79999999999995" y="1433.9666666666667"/>
      <point x="413.5" y="1433.9666666666667" type="curve" smooth="yes"/>
      <point x="449.73333333333335" y="1433.9666666666667"/>
      <point x="481.73333333333335" y="1426.9"/>
      <point x="518.6" y="1408.9666666666667" type="curve"/>
      <point x="563.9666666666667" y="1535.2333333333333" type="line"/>
      <point x="517.1" y="1556.6666666666667"/>
      <point x="468.5666666666667" y="1567.0"/>
      <point x="410.59999999999997" y="1567.0" type="curve" smooth="yes"/>
      <point x="228.83333333333331" y="1567.0"/>
      <point x="158.0" y="1450.9666666666667"/>
      <point x="158.0" y="1185.4666666666667" type="curve" smooth="yes"/>
      <point x="158.0" y="1102.7666666666667" type="line"/>
      <point x="23.033333333333335" y="1048.4666666666667" type="line"/>
      <point x="23.033333333333335" y="968.3333333333334" type="line"/>
      <point x="158.0" y="968.3333333333334" type="line"/>
    </contour>
  </outline>
</glyph>
<glyph name="g" format="2">
  <advance width="806.0"/>
  <unicode hex="0067"/>
  <anchor x="403.43333333333334" y="0.0" name="bottom"/>
  <anchor x="404.6" y="1094.8000000000002" name="top"/>
  <outline>
    <contour>
      <point x="521.2666666666667" y="1093.8666666666668" type="line"/>
      <point x="490.26666666666665" y="1106.9333333333332"/>
      <point x="441.76666666666665" y="1115.8"/>
      <point x="396.76666666666665" y="1115.8" type="curve" smooth="yes"/>
      <point x="204.66666666666666" y="1115.8"/>
      <point x="91.33333333333333" y="974.7333333333333"/>
      <point x="91.33333333333333" y="739.5333333333333" type="curve" smooth="yes"/>
      <point x="91.33333333333333" y="590.5"/>
      <point x="148.33333333333334" y="469.4"/>
      <point x="253.03333333333333" y="416.76666666666665" type="curve"/>
      <point x="176.06666666666666" y="357.53333333333336"/>
      <point x="131.53333333333333" y="312.46666666666664"/>
      <point x="131.53333333333333" y="241.63333333333333" type="curve" smooth="yes"/>
      <point x="131.53333333333333" y="168.46666666666667"/>
      <point x="176.93333333333334" y="113.36666666666666"/>
      <point x="244.16666666666669" y="85.3" type="curve"/>
      <point x="100.36666666666666" y="33.733333333333334"/>
      <point x="29.166666666666668" y="-63.96666666666666"/>
      <point x="29.166666666666668" y="-196.0" type="curve" smooth="yes"/>
      <point x="29.166666666666668" y="-386.96666666666664"/>
      <point x="147.96666666666667" y="-492.0"/>
      <point x="361.0" y="-492.0" type="curve" smooth="yes"/>
      <point x="626.0999999999999" y="-492.0"/>
      <point x="789.5666666666667" y="-354.33333333333337"/>
      <point x="789.5666666666667" y="-126.46666666666665" type="curve" smooth="yes"/>
      <point x="789.5666666666667" y="67.66666666666667"/>
      <point x="679.4333333333333" y="170.43333333333334"/>
      <point x="488.06666666666666" y="170.43333333333334" type="curve" smooth="yes"/>
      <point x="388.8" y="170.43333333333334" type="line" smooth="yes"/>
      <point x="307.8" y="170.43333333333334"/>
      <point x="259.76666666666665" y="202.0"/>
      <point x="259.76666666666665" y="258.56666666666666" type="curve" smooth="yes"/>
      <point x="259.76666666666665" y="312.03333333333336"/>
      <point x="294.1" y="348.6666666666667"/>
      <point x="346.43333333333334" y="386.2" type="curve"/>
      <point x="361.6666666666667" y="383.26666666666665"/>
      <point x="379.93333333333334" y="382.3333333333333"/>
      <point x="400.76666666666665" y="382.3333333333333" type="curve" smooth="yes"/>
      <point x="581.2666666666667" y="382.3333333333333"/>
      <point x="695.5333333333333" y="524.4000000000001"/>
      <point x="695.5333333333333" y="744.0333333333333" type="curve" smooth="yes"/>
      <point x="695.5333333333333" y="835.0"/>
      <point x="672.4333333333333" y="925.6666666666666"/>
      <point x="637.5666666666666" y="976.0333333333333" type="curve"/>
      <point x="780.2" y="997.2333333333333" type="line"/>
      <point x="780.2" y="1093.8666666666668" type="line"/>
    </contour>
    <contour>
      <point x="172.63333333333333" y="-184.03333333333333" type="curve" smooth="yes"/>
      <point x="172.63333333333333" y="-54.7"/>
      <point x="252.29999999999998" y="31.299999999999997"/>
      <point x="363.70000000000005" y="31.299999999999997" type="curve" smooth="yes"/>
      <point x="453.3" y="31.299999999999997" type="line" smooth="yes"/>
      <point x="583.7" y="31.299999999999997"/>
      <point x="643.8666666666667" y="-28.46666666666667"/>
      <point x="643.8666666666667" y="-143.6" type="curve" smooth="yes"/>
      <point x="643.8666666666667" y="-288.1666666666667"/>
      <point x="542.3666666666667" y="-375.73333333333335"/>
      <point x="369.43333333333334" y="-375.73333333333335" type="curve" smooth="yes"/>
      <point x="239.20000000000002" y="-375.73333333333335"/>
      <point x="172.63333333333333" y="-304.7"/>
    </contour>
    <contour>
      <point x="239.33333333333334" y="737.5333333333334" type="curve" smooth="yes"/>
      <point x="239.33333333333334" y="908.2666666666667"/>
      <point x="293.7" y="1004.2"/>
      <point x="395.70000000000005" y="1004.2" type="curve" smooth="yes"/>
      <point x="494.9333333333333" y="1004.2"/>
      <point x="547.7666666666667" y="910.0333333333333"/>
      <point x="547.7666666666667" y="744.7333333333333" type="curve" smooth="yes"/>
      <point x="547.7666666666667" y="575.7"/>
      <point x="497.0" y="491.5666666666667"/>
      <point x="395.7" y="491.5666666666667" type="curve" smooth="yes"/>
      <point x="299.1333333333333" y="491.5666666666667"/>
      <point x="239.33333333333334" y="575.7"/>
    </contour>
  </outline>
</glyph>
<glyph name="h" format="2">
  <advance width="926.0"/>
  <unicode hex="0068"/>
  <anchor x="462.76666666666665" y="0.0" name="bottom"/>
  <anchor x="462.76666666666665" y="547.6666666666666" name="center"/>
  <anchor x="462.76666666666665" y="1494.8" name="top"/>
  <outline>
    <contour>
      <point x="134.26666666666665" y="0.0" type="line"/>
      <point x="286.43333333333334" y="0.0" type="line"/>
      <point x="286.43333333333334" y="574.4000000000001" type="line" smooth="yes"/>
      <point x="286.43333333333334" y="712.7"/>
      <point x="303.8666666666667" y="813.3333333333334"/>
      <point x="336.1333333333333" y="879.6333333333333" type="curve" smooth="yes"/>
      <point x="369.7" y="948.3"/>
      <point x="423.8666666666667" y="981.6"/>
      <point x="496.5" y="981.6" type="curve" smooth="yes"/>
      <point x="600.5333333333333" y="981.6"/>
      <point x="645.9666666666667" y="904.0333333333333"/>
      <point x="645.9666666666667" y="720.2333333333333" type="curve" smooth="yes"/>
      <point x="645.9666666666667" y="0.0" type="line"/>
      <point x="798.0666666666667" y="0.0" type="line"/>
      <point x="798.0666666666667" y="741.0" type="line" smooth="yes"/>
      <point x="798.0666666666667" y="979.8333333333333"/>
      <point x="717.1" y="1115.8"/>
      <point x="533.9666666666666" y="1115.8" type="curve" smooth="yes"/>
      <point x="417.1666666666667" y="1115.8"/>
      <point x="336.00000000000006" y="1053.0"/>
      <point x="289.5" y="947.6666666666666" type="curve"/>
      <point x="279.6333333333334" y="947.6666666666666" type="line"/>
      <point x="284.26666666666665" y="1006.6666666666666"/>
      <point x="286.43333333333334" y="1058.1999999999998"/>
      <point x="286.43333333333334" y="1103.9666666666667" type="curve" smooth="yes"/>
      <point x="286.43333333333334" y="1556.0" type="line"/>
      <point x="134.26666666666665" y="1556.0" type="line"/>
    </contour>
  </outline>
</glyph>
<glyph name="k" format="2">
  <advance width="795.6666666666666"/>
  <unicode hex="006B"/>
  <anchor x="398.46666666666664" y="0.0" name="bottom"/>
  <anchor x="398.46666666666664" y="1094.8000000000002" name="top"/>
  <outline>
    <contour>
      <point x="134.26666666666665" y="0.0" type="line"/>
      <point x="286.4333333333334" y="0.0" type="line"/>
      <point x="286.4333333333334" y="419.0" type="line"/>
      <point x="401.06666666666666" y="555.5333333333333" type="line"/>
      <point x="625.4" y="0.0" type="line"/>
      <point x="784.9000000000001" y="0.0" type="line"/>
      <point x="503.5666666666667" y="676.1999999999999" type="line"/>
      <point x="763.8333333333334" y="1094.8000000000002" type="line"/>
      <point x="601.3333333333334" y="1094.8000000000002" type="line"/>
      <point x="349.43333333333334" y="675.6999999999999" type="line" smooth="yes"/>
      <point x="326.5" y="637.1333333333333"/>
      <point x="307.03333333333336" y="597.5666666666667"/>
      <point x="286.33333333333337" y="558.0" type="curve"/>
      <point x="277.56666666666666" y="558.0" type="line"/>
      <point x="280.2666666666667" y="623.4333333333334"/>
      <point x="286.4333333333334" y="688.1"/>
      <point x="286.4333333333334" y="753.5333333333334" type="curve"/>
      <point x="286.4333333333334" y="1556.0" type="line"/>
      <point x="134.26666666666665" y="1556.0" type="line"/>
    </contour>
  </outline>
</glyph>
<glyph name="n" format="2">
  <advance width="926.0"/>
  <unicode hex="006E"/>
  <anchor x="462.76666666666665" y="0.0" name="bottom"/>
  <anchor x="462.76666666666665" y="1094.8000000000002" name="top"/>
  <outline>
    <contour>
      <point x="134.26666666666665" y="0.0" type="line"/>
      <point x="286.43333333333334" y="0.0" type="line"/>
      <point x="286.43333333333334" y="575.4666666666666" type="line" smooth="yes"/>
      <point x="286.43333333333334" y="722.6333333333333"/>
      <point x="304.1" y="827.1333333333333"/>
      <point x="340.43333333333334" y="891.4000000000001" type="curve" smooth="yes"/>
      <point x="375.93333333333334" y="953.2333333333333"/>
      <point x="428.03333333333336" y="981.6"/>
      <point x="499.5" y="981.6" type="curve" smooth="yes"/>
      <point x="598.8" y="981.6"/>
      <point x="645.9666666666666" y="892.5333333333333"/>
      <point x="645.9666666666666" y="720.2333333333333" type="curve" smooth="yes"/>
      <point x="645.9666666666666" y="0.0" type="line"/>
      <point x="798.0666666666667" y="0.0" type="line"/>
      <point x="798.0666666666667" y="742.3" type="line" smooth="yes"/>
      <point x="798.0666666666667" y="997.1333333333333"/>
      <point x="709.6333333333333" y="1115.8"/>
      <point x="526.9333333333333" y="1115.8" type="curve" smooth="yes"/>
      <point x="426.2" y="1115.8"/>
      <point x="331.3333333333333" y="1053.5"/>
      <point x="285.6333333333333" y="946.3666666666667" type="curve"/>
      <point x="274.06666666666666" y="946.3666666666667" type="line"/>
      <point x="257.9" y="1094.8000000000002" type="line"/>
      <point x="134.26666666666665" y="1094.8000000000002" type="line"/>
    </contour>
  </outline>
</glyph>
<glyph name="o" format="2">
  <advance width="904.0"/>
  <unicode hex="006F"/>
  <anchor x="451.8333333333333" y="0.0" name="bottom"/>
  <anchor x="451.8333333333333" y="547.6666666666667" name="center"/>
  <anchor x="813.5333333333333" y="10.0" name="ogonek"/>
  <anchor x="451.8333333333333" y="1094.8000000000002" name="top"/>
  <anchor x="884.1333333333333" y="1094.8000000000002" name="topright"/>
  <outline>
    <contour>
      <point x="450.7" y="-20.0" type="curve" smooth="yes"/>
      <point x="681.5666666666667" y="-20.0"/>
      <point x="816.4333333333334" y="184.9"/>
      <point x="816.4333333333334" y="548.7333333333333" type="curve" smooth="yes"/>
      <point x="816.4333333333334" y="904.7333333333333"/>
      <point x="680.2" y="1115.8"/>
      <point x="452.8333333333333" y="1115.8" type="curve" smooth="yes"/>
      <point x="215.96666666666667" y="1115.8"/>
      <point x="87.23333333333333" y="919.4666666666667"/>
      <point x="87.23333333333333" y="549.9" type="curve" smooth="yes"/>
      <point x="87.23333333333333" y="244.83333333333334"/>
      <point x="189.46666666666667" y="-20.0"/>
    </contour>
    <contour>
      <point x="451.3" y="115.5" type="curve" smooth="yes"/>
      <point x="376.8" y="115.5"/>
      <point x="323.4" y="155.66666666666666"/>
      <point x="289.3666666666667" y="236.63333333333335" type="curve" smooth="yes"/>
      <point x="259.6333333333333" y="307.2333333333333"/>
      <point x="244.10000000000002" y="412.29999999999995"/>
      <point x="244.10000000000002" y="550.3666666666667" type="curve" smooth="yes"/>
      <point x="244.10000000000002" y="684.6"/>
      <point x="258.1" y="785.6666666666667"/>
      <point x="286.0" y="855.5" type="curve" smooth="yes"/>
      <point x="318.73333333333335" y="938.8333333333334"/>
      <point x="373.43333333333334" y="979.5999999999999"/>
      <point x="451.53333333333336" y="979.5999999999999" type="curve" smooth="yes"/>
      <point x="517.3333333333334" y="979.5999999999999"/>
      <point x="566.1999999999999" y="948.0666666666667"/>
      <point x="599.7666666666667" y="887.6333333333333" type="curve" smooth="yes"/>
      <point x="640.9333333333333" y="813.8333333333334"/>
      <point x="660.0333333333333" y="697.0"/>
      <point x="660.0333333333333" y="551.3" type="curve" smooth="yes"/>
      <point x="660.0333333333333" y="408.53333333333336"/>
      <point x="643.3666666666667" y="302.0333333333333"/>
      <point x="610.0333333333333" y="229.5666666666667" type="curve" smooth="yes"/>
      <point x="575.2333333333333" y="152.93333333333337"/>
      <point x="522.0666666666667" y="115.5"/>
    </contour>
  </outline>
</glyph>
<glyph name="braceleft" format="2">
  <advance width="737.0"/>
  <unicode hex="007B"/>
  <note>
braceleft
</note>
  <outline>
    <contour>
      <point x="656.3333333333333" y="-324.0" type="curve"/>
      <point x="656.3333333333333" y="-200.33333333333334" type="line"/>
      <point x="610.6666666666667" y="-199.0"/>
      <point x="574.0" y="-192.33333333333331"/>
      <point x="546.6666666666666" y="-179.66666666666666" type="curve" smooth="yes"/>
      <point x="482.3333333333333" y="-151.0"/>
      <point x="452.0" y="-91.0"/>
      <point x="452.0" y="5.666666666666666" type="curve" smooth="yes"/>
      <point x="452.0" y="320.6666666666667" type="line" smooth="yes"/>
      <point x="452.0" y="468.3333333333333"/>
      <point x="390.33333333333337" y="538.6666666666666"/>
      <point x="245.33333333333334" y="564.3333333333333" type="curve"/>
      <point x="245.33333333333334" y="573.6666666666667" type="line"/>
      <point x="387.6666666666667" y="599.0"/>
      <point x="452.0" y="671.0"/>
      <point x="452.0" y="821.3333333333334" type="curve" smooth="yes"/>
      <point x="452.0" y="1133.3333333333333" type="line" smooth="yes"/>
      <point x="452.0" y="1235.6666666666665"/>
      <point x="485.3333333333333" y="1296.6666666666667"/>
      <point x="558.3333333333333" y="1323.0" type="curve" smooth="yes"/>
      <point x="584.3333333333334" y="1332.0"/>
      <point x="617.0" y="1337.0"/>
      <point x="656.3333333333333" y="1338.3333333333335" type="curve"/>
      <point x="656.3333333333333" y="1462.0" type="line"/>
      <point x="576.0" y="1460.3333333333333"/>
      <point x="508.33333333333337" y="1447.6666666666667"/>
      <point x="456.3333333333333" y="1424.0" type="curve" smooth="yes"/>
      <point x="355.33333333333337" y="1377.0"/>
      <point x="304.0" y="1288.0"/>
      <point x="304.0" y="1155.3333333333335" type="curve" smooth="yes"/>
      <point x="304.0" y="830.0" type="line" smooth="yes"/>
      <point x="304.0" y="775.6666666666666"/>
      <point x="295.3333333333333" y="734.6666666666667"/>
      <point x="279.3333333333333" y="707.6666666666666" type="curve" smooth="yes"/>
      <point x="246.66666666666666" y="652.6666666666667"/>
      <point x="183.0" y="629.3333333333334"/>
      <point x="81.0" y="629.3333333333334" type="curve"/>
      <point x="81.0" y="509.0" type="line"/>
      <point x="145.0" y="509.0"/>
      <point x="195.33333333333331" y="499.6666666666667"/>
      <point x="228.0" y="480.6666666666667" type="curve" smooth="yes"/>
      <point x="281.0" y="452.66666666666663"/>
      <point x="304.0" y="405.0"/>
      <point x="304.0" y="304.66666666666663" type="curve" smooth="yes"/>
      <point x="304.0" y="-16.333333333333336" type="line" smooth="yes"/>
      <point x="304.0" y="-86.33333333333334"/>
      <point x="318.0" y="-143.66666666666666"/>
      <point x="345.33333333333337" y="-189.0" type="curve" smooth="yes"/>
      <point x="397.3333333333333" y="-276.3333333333333"/>
      <point x="500.3333333333333" y="-321.6666666666667"/>
    </contour>
  </outline>
</glyph>
<glyph name="bar" format="2">
  <advance width="892.0"/>
  <unicode hex="007C"/>
  <note>
bar
</note>
  <outline>
    <contour>
      <point x="379.9666666666667" y="-485.0" type="line"/>
      <point x="512.3000000000001" y="-485.0" type="line"/>
      <point x="512.3000000000001" y="1554.3666666666666" type="line"/>
      <point x="379.9666666666667" y="1554.3666666666666" type="line"/>
    </contour>
  </outline>
</glyph>
<glyph name="braceright" format="2">
  <advance width="737.0"/>
  <unicode hex="007D"/>
  <note>
braceright
</note>
  <outline>
    <contour>
      <point x="80.43333333333332" y="-324.0" type="line"/>
      <point x="199.89999999999998" y="-322.4666666666667"/>
      <point x="287.93333333333334" y="-295.9666666666667"/>
      <point x="345.9" y="-245.36666666666667" type="curve" smooth="yes"/>
      <point x="404.06666666666666" y="-193.63333333333333"/>
      <point x="433.66666666666663" y="-117.13333333333334"/>
      <point x="433.66666666666663" y="-16.366666666666667" type="curve" smooth="yes"/>
      <point x="433.66666666666663" y="304.5333333333333" type="line" smooth="yes"/>
      <point x="433.66666666666663" y="361.56666666666666"/>
      <point x="442.7666666666667" y="403.23333333333335"/>
      <point x="459.5" y="431.4666666666667" type="curve" smooth="yes"/>
      <point x="490.46666666666664" y="484.43333333333334"/>
      <point x="551.8333333333333" y="509.1"/>
      <point x="656.7666666666667" y="509.09999999999997" type="curve"/>
      <point x="656.7666666666667" y="629.4333333333333" type="line"/>
      <point x="556.7333333333333" y="629.4333333333334"/>
      <point x="474.96666666666664" y="653.0333333333334"/>
      <point x="447.6" y="727.5333333333333" type="curve" smooth="yes"/>
      <point x="436.73333333333335" y="754.6"/>
      <point x="433.66666666666663" y="790.5999999999999"/>
      <point x="433.66666666666663" y="829.9666666666667" type="curve" smooth="yes"/>
      <point x="433.66666666666663" y="1155.3666666666668" type="line" smooth="yes"/>
      <point x="433.66666666666663" y="1268.6666666666665"/>
      <point x="396.0" y="1351.2333333333333"/>
      <point x="321.9" y="1401.7333333333333" type="curve" smooth="yes"/>
      <point x="265.0" y="1440.8000000000002"/>
      <point x="184.73333333333335" y="1460.4666666666667"/>
      <point x="80.43333333333332" y="1462.0" type="curve"/>
      <point x="80.43333333333332" y="1338.3666666666668" type="line"/>
      <point x="129.96666666666667" y="1337.1333333333334"/>
      <point x="169.56666666666666" y="1329.0666666666668"/>
      <point x="199.46666666666667" y="1313.9333333333332" type="curve" smooth="yes"/>
      <point x="258.8666666666667" y="1284.1333333333334"/>
      <point x="285.7333333333333" y="1225.4666666666667"/>
      <point x="285.7333333333333" y="1133.2333333333333" type="curve" smooth="yes"/>
      <point x="285.7333333333333" y="821.4333333333333" type="line" smooth="yes"/>
      <point x="285.7333333333333" y="672.8"/>
      <point x="347.40000000000003" y="600.2333333333333"/>
      <point x="492.56666666666666" y="573.7" type="curve"/>
      <point x="492.56666666666666" y="564.3" type="line"/>
      <point x="348.59999999999997" y="538.6999999999999"/>
      <point x="285.7333333333333" y="467.29999999999995"/>
      <point x="285.7333333333333" y="319.6" type="curve" smooth="yes"/>
      <point x="285.7333333333333" y="5.766666666666666" type="line" smooth="yes"/>
      <point x="285.7333333333333" y="-67.39999999999999"/>
      <point x="268.46666666666664" y="-119.76666666666665"/>
      <point x="232.76666666666668" y="-152.63333333333333" type="curve" smooth="yes"/>
      <point x="200.26666666666668" y="-183.29999999999998"/>
      <point x="151.06666666666666" y="-198.89999999999998"/>
      <point x="80.43333333333332" y="-200.36666666666667" type="curve"/>
    </contour>
  </outline>
</glyph>
<glyph name="exclamdown" format="2">
  <advance width="485.66666666666663"/>
  <unicode hex="00A1"/>
  <note>
exclamdown
</note>
  <outline>
    <contour>
      <point x="145.43333333333334" y="-383.5333333333333" type="line"/>
      <point x="336.46666666666664" y="-383.5333333333333" type="line"/>
      <point x="296.3333333333333" y="677.2333333333333" type="line"/>
      <point x="186.03333333333333" y="677.2333333333333" type="line"/>
    </contour>
    <contour>
      <point x="241.56666666666666" y="846.4666666666667" type="curve" smooth="yes"/>
      <point x="306.26666666666665" y="846.4666666666667"/>
      <point x="349.43333333333334" y="884.2666666666667"/>
      <point x="349.43333333333334" y="972.1333333333333" type="curve" smooth="yes"/>
      <point x="349.43333333333334" y="1057.0"/>
      <point x="306.26666666666665" y="1097.5"/>
      <point x="241.56666666666666" y="1097.5" type="curve" smooth="yes"/>
      <point x="173.0" y="1097.5"/>
      <point x="135.1" y="1054.1"/>
      <point x="135.1" y="972.1333333333333" type="curve" smooth="yes"/>
      <point x="135.1" y="889.4666666666667"/>
      <point x="172.06666666666666" y="846.4666666666667"/>
    </contour>
  </outline>
</glyph>
<glyph name="sterling" format="2">
  <advance width="862.0"/>
  <unicode hex="00A3"/>
  <note>
sterling
</note>
  <outline>
    <contour>
      <point x="86.66666666666666" y="0.0" type="line"/>
      <point x="792.6666666666666" y="0.0" type="line"/>
      <point x="792.6666666666666" y="143.33333333333334" type="line"/>
      <point x="266.6666666666667" y="143.33333333333334" type="line"/>
      <point x="351.66666666666663" y="204.33333333333334"/>
      <point x="391.0" y="300.3333333333333"/>
      <point x="391.0" y="436.0" type="curve" smooth="yes"/>
      <point x="391.0" y="671.6666666666666" type="line"/>
      <point x="638.0" y="671.6666666666666" type="line"/>
      <point x="638.0" y="796.6666666666667" type="line"/>
      <point x="391.0" y="796.6666666666667" type="line"/>
      <point x="391.0" y="1102.3333333333335" type="line" smooth="yes"/>
      <point x="391.0" y="1269.6666666666665"/>
      <point x="435.6666666666667" y="1346.3333333333335"/>
      <point x="541.0" y="1346.3333333333335" type="curve" smooth="yes"/>
      <point x="604.6666666666666" y="1346.3333333333335"/>
      <point x="655.6666666666667" y="1329.0"/>
      <point x="723.3333333333334" y="1279.3333333333333" type="curve"/>
      <point x="788.0" y="1400.6666666666667" type="line"/>
      <point x="715.3333333333334" y="1456.0"/>
      <point x="631.3333333333334" y="1483.0"/>
      <point x="537.0" y="1483.0" type="curve" smooth="yes"/>
      <point x="335.0" y="1483.0"/>
      <point x="236.33333333333334" y="1356.3333333333333"/>
      <point x="236.33333333333334" y="1105.3333333333333" type="curve" smooth="yes"/>
      <point x="236.33333333333334" y="796.6666666666667" type="line"/>
      <point x="79.66666666666667" y="796.6666666666667" type="line"/>
      <point x="79.66666666666667" y="671.6666666666666" type="line"/>
      <point x="236.33333333333334" y="671.6666666666666" type="line"/>
      <point x="236.33333333333334" y="426.6666666666667" type="line" smooth="yes"/>
      <point x="236.33333333333334" y="373.6666666666667"/>
      <point x="230.0" y="327.0"/>
      <point x="218.0" y="286.6666666666667" type="curve" smooth="yes"/>
      <point x="195.0" y="213.33333333333334"/>
      <point x="151.66666666666666" y="161.00000000000003"/>
      <point x="86.66666666666666" y="131.0" type="curve"/>
    </contour>
  </outline>
</glyph>
<glyph name="guillemetleft" format="2">
  <advance width="951.0"/>
  <unicode hex="00AB"/>
  <note>
guillemotleft
</note>
  <outline>
    <contour>
      <point x="766.0" y="130.33333333333331" type="line"/>
      <point x="871.6666666666666" y="192.33333333333331" type="line"/>
      <point x="653.6666666666666" y="537.6666666666667" type="line"/>
      <point x="871.6666666666666" y="883.0" type="line"/>
      <point x="766.0" y="943.3333333333333" type="line"/>
      <point x="471.0" y="550.6666666666666" type="line"/>
      <point x="471.0" y="523.6666666666666" type="line"/>
    </contour>
    <contour>
      <point x="373.0" y="130.33333333333331" type="line"/>
      <point x="480.0" y="192.33333333333331" type="line"/>
      <point x="260.33333333333337" y="537.6666666666667" type="line"/>
      <point x="480.0" y="883.0" type="line"/>
      <point x="373.0" y="943.3333333333333" type="line"/>
      <point x="79.33333333333333" y="550.6666666666666" type="line"/>
      <point x="79.33333333333333" y="523.6666666666666" type="line"/>
    </contour>
  </outline>
</glyph>
<glyph name="plusminus" format="2">
  <advance width="852.0"/>
  <unicode hex="00B1"/>
  <note>
plusminus
</note>
  <outline>
    <contour>
      <point x="365.96666666666664" y="270.06666666666666" type="line"/>
      <point x="486.46666666666664" y="270.06666666666666" type="line"/>
      <point x="486.46666666666664" y="673.3666666666667" type="line"/>
      <point x="777.0333333333334" y="673.3666666666667" type="line"/>
      <point x="777.0333333333334" y="791.7666666666667" type="line"/>
      <point x="486.46666666666664" y="791.7666666666667" type="line"/>
      <point x="486.46666666666664" y="1198.0" type="line"/>
      <point x="365.96666666666664" y="1198.0" type="line"/>
      <point x="365.96666666666664" y="791.7666666666667" type="line"/>
      <point x="74.63333333333333" y="791.7666666666667" type="line"/>
      <point x="74.63333333333333" y="673.3666666666667" type="line"/>
      <point x="365.96666666666664" y="673.3666666666667" type="line"/>
    </contour>
    <contour>
      <point x="74.63333333333333" y="0.0" type="line"/>
      <point x="777.0333333333334" y="0.0" type="line"/>
      <point x="777.0333333333334" y="123.53333333333333" type="line"/>
      <point x="74.63333333333333" y="123.53333333333333" type="line"/>
    </contour>
  </outline>
</glyph>
<glyph name="paragraph" format="2">
  <advance width="1005.6666666666666"/>
  <unicode hex="00B6"/>
  <note>
paragraph
</note>
  <outline>
    <contour>
      <point x="448.93333333333334" y="-260.0" type="line"/>
      <point x="562.7666666666667" y="-260.0" type="line"/>
      <point x="562.7666666666667" y="1428.0333333333333" type="line"/>
      <point x="714.3666666666667" y="1428.0333333333333" type="line"/>
      <point x="714.3666666666667" y="-260.0" type="line"/>
      <point x="827.9666666666667" y="-260.0" type="line"/>
      <point x="827.9666666666667" y="1556.0" type="line"/>
      <point x="409.09999999999997" y="1556.0" type="line" smooth="yes"/>
      <point x="208.53333333333333" y="1556.0"/>
      <point x="121.06666666666666" y="1382.9333333333334"/>
      <point x="121.06666666666666" y="1042.0" type="curve" smooth="yes"/>
      <point x="121.06666666666666" y="778.9666666666667"/>
      <point x="167.9" y="541.0"/>
      <point x="367.79999999999995" y="541.0" type="curve" smooth="yes"/>
      <point x="398.7" y="541.0"/>
      <point x="425.6666666666667" y="547.0"/>
      <point x="448.93333333333334" y="559.0" type="curve"/>
    </contour>
  </outline>
</glyph>
<glyph name="ordmasculine" format="2">
  <advance width="640.6666666666666"/>
  <unicode hex="00BA"/>
  <note>
ordmasculine
</note>
  <outline>
    <contour>
      <point x="574.4333333333333" y="1135.3" type="curve" smooth="yes"/>
      <point x="574.4333333333333" y="1360.9666666666667"/>
      <point x="479.73333333333335" y="1479.0"/>
      <point x="321.96666666666664" y="1479.0" type="curve" smooth="yes"/>
      <point x="161.79999999999998" y="1479.0"/>
      <point x="66.96666666666667" y="1352.9666666666667"/>
      <point x="66.96666666666667" y="1135.3" type="curve" smooth="yes"/>
      <point x="66.96666666666667" y="915.3"/>
      <point x="157.83333333333334" y="789.3666666666667"/>
      <point x="321.5" y="789.3666666666667" type="curve" smooth="yes"/>
      <point x="483.03333333333336" y="789.3666666666667"/>
      <point x="574.4333333333333" y="912.5"/>
    </contour>
    <contour>
      <point x="184.50000000000003" y="1135.3" type="curve" smooth="yes"/>
      <point x="184.50000000000003" y="1304.3000000000002"/>
      <point x="234.03333333333336" y="1378.4"/>
      <point x="320.6666666666667" y="1378.4" type="curve" smooth="yes"/>
      <point x="416.1" y="1378.4"/>
      <point x="456.9" y="1305.6000000000001"/>
      <point x="456.9" y="1135.3" type="curve" smooth="yes"/>
      <point x="456.9" y="965.0"/>
      <point x="418.7" y="889.7333333333333"/>
      <point x="320.6666666666667" y="889.7333333333333" type="curve" smooth="yes"/>
      <point x="226.76666666666668" y="889.7333333333333"/>
      <point x="184.50000000000003" y="965.0"/>
    </contour>
  </outline>
</glyph>
<glyph name="guillemetright" format="2">
  <advance width="951.0"/>
  <unicode hex="00BB"/>
  <note>
guillemotright
</note>
  <outline>
    <contour>
      <point x="578.0" y="130.33333333333331" type="line"/>
      <point x="871.6666666666667" y="523.6666666666666" type="line"/>
      <point x="871.6666666666667" y="550.6666666666666" type="line"/>
      <point x="578.0" y="943.3333333333333" type="line"/>
      <point x="471.0" y="883.0" type="line"/>
      <point x="690.0" y="537.6666666666667" type="line"/>
      <point x="471.0" y="192.33333333333331" type="line"/>
    </contour>
    <contour>
      <point x="184.66666666666669" y="130.33333333333331" type="line"/>
      <point x="480.0" y="523.6666666666666" type="line"/>
      <point x="480.0" y="550.6666666666666" type="line"/>
      <point x="184.66666666666669" y="943.3333333333333" type="line"/>
      <point x="79.33333333333333" y="883.0" type="line"/>
      <point x="297.0" y="537.6666666666667" type="line"/>
      <point x="79.33333333333333" y="192.33333333333331" type="line"/>
    </contour>
  </outline>
</glyph>
<glyph name="questiondown" format="2">
  <advance width="646.0"/>
  <unicode hex="00BF"/>
  <note>
questiondown
</note>
  <outline>
    <contour>
      <point x="446.20000000000005" y="675.1333333333333" type="line"/>
      <point x="318.53333333333336" y="675.1333333333333" type="line"/>
      <point x="318.53333333333336" y="630.5" type="line" smooth="yes"/>
      <point x="318.53333333333336" y="581.3333333333334"/>
      <point x="314.23333333333335" y="541.2333333333333"/>
      <point x="301.59999999999997" y="501.8" type="curve" smooth="yes"/>
      <point x="285.8333333333333" y="449.4333333333333"/>
      <point x="257.76666666666665" y="401.73333333333335"/>
      <point x="212.46666666666667" y="339.96666666666664" type="curve" smooth="yes"/>
      <point x="143.36666666666667" y="246.13333333333333"/>
      <point x="101.9" y="179.93333333333334"/>
      <point x="78.43333333333331" y="116.79999999999998" type="curve" smooth="yes"/>
      <point x="55.79999999999999" y="55.633333333333326"/>
      <point x="49.73333333333335" y="-3.461333333333261"/>
      <point x="49.73333333333335" y="-81.4" type="curve" smooth="yes"/>
      <point x="49.73333333333335" y="-284.9333333333333"/>
      <point x="159.8" y="-406.3333333333333"/>
      <point x="347.73333333333335" y="-406.3333333333333" type="curve" smooth="yes"/>
      <point x="446.90000000000003" y="-406.3333333333333"/>
      <point x="535.2" y="-377.59999999999997"/>
      <point x="614.5" y="-321.3666666666666" type="curve"/>
      <point x="551.6333333333333" y="-204.0666666666667" type="line"/>
      <point x="488.46666666666664" y="-245.73333333333332"/>
      <point x="433.06666666666666" y="-269.66666666666663"/>
      <point x="355.66666666666663" y="-269.66666666666663" type="curve" smooth="yes"/>
      <point x="260.4666666666667" y="-269.66666666666663"/>
      <point x="202.23333333333335" y="-193.06666666666666"/>
      <point x="202.23333333333335" y="-65.13333333333335" type="curve" smooth="yes"/>
      <point x="202.23333333333335" y="35.09999999999999"/>
      <point x="216.26666666666668" y="103.0"/>
      <point x="300.8666666666667" y="225.03333333333333" type="curve" smooth="yes"/>
      <point x="314.33333333333337" y="244.9333333333333"/>
      <point x="329.1" y="265.59999999999997"/>
      <point x="344.1666666666667" y="287.79999999999995" type="curve" smooth="yes"/>
      <point x="424.2" y="398.9"/>
      <point x="446.20000000000005" y="484.5"/>
      <point x="446.20000000000005" y="617.5999999999999" type="curve" smooth="yes"/>
    </contour>
    <contour>
      <point x="377.76666666666665" y="1096.4" type="curve" smooth="yes"/>
      <point x="313.76666666666665" y="1096.4"/>
      <point x="270.8333333333333" y="1055.1999999999998"/>
      <point x="270.8333333333333" y="971.2666666666667" type="curve" smooth="yes"/>
      <point x="270.8333333333333" y="884.1"/>
      <point x="312.8333333333333" y="845.1333333333333"/>
      <point x="377.76666666666665" y="845.1333333333333" type="curve" smooth="yes"/>
      <point x="448.3666666666667" y="845.1333333333333"/>
      <point x="484.40000000000003" y="888.8333333333333"/>
      <point x="484.40000000000003" y="971.2666666666667" type="curve" smooth="yes"/>
      <point x="484.40000000000003" y="1053.2333333333333"/>
      <point x="447.43333333333334" y="1096.4"/>
    </contour>
  </outline>
</glyph>
<glyph name="Thorn" format="2">
  <advance width="887.0"/>
  <unicode hex="00DE"/>
  <note>
Thorn
</note>
  <anchor x="443.56666666666666" y="0.0" name="bottom"/>
  <anchor x="443.56666666666666" y="1462.0" name="top"/>
  <outline>
    <contour>
      <point x="149.5" y="0.0" type="line"/>
      <point x="305.6" y="0.0" type="line"/>
      <point x="305.6" y="321.1666666666667" type="line"/>
      <point x="399.53333333333336" y="321.1666666666667" type="line" smooth="yes"/>
      <point x="679.4000000000001" y="321.1666666666667"/>
      <point x="823.3333333333334" y="478.1666666666667"/>
      <point x="823.3333333333334" y="781.9000000000001" type="curve" smooth="yes"/>
      <point x="823.3333333333334" y="1068.8999999999999"/>
      <point x="691.1999999999999" y="1204.3666666666666"/>
      <point x="406.20000000000005" y="1204.3666666666666" type="curve" smooth="yes"/>
      <point x="305.6" y="1204.3666666666666" type="line"/>
      <point x="305.6" y="1462.0" type="line"/>
      <point x="149.5" y="1462.0" type="line"/>
    </contour>
    <contour>
      <point x="305.6" y="461.83333333333337" type="line"/>
      <point x="305.6" y="1062.4" type="line"/>
      <point x="400.8333333333333" y="1062.4" type="line" smooth="yes"/>
      <point x="585.5666666666667" y="1062.4"/>
      <point x="665.0" y="975.2333333333333"/>
      <point x="665.0" y="770.3666666666667" type="curve" smooth="yes"/>
      <point x="665.0" y="546.6"/>
      <point x="583.9333333333334" y="461.83333333333337"/>
      <point x="388.43333333333334" y="461.83333333333337" type="curve" smooth="yes"/>
    </contour>
  </outline>
</glyph>
<glyph name="germandbls" format="2">
  <advance width="918.0"/>
  <unicode hex="00DF"/>
  <note>
germandbls
</note>
  <anchor x="459.3666666666667" y="0.0" name="bottom"/>
  <anchor x="459.3666666666667" y="1094.8000000000002" name="top"/>
  <outline>
    <contour>
      <point x="553.9333333333333" y="-20.0" type="curve" smooth="yes"/>
      <point x="742.6999999999999" y="-20.0"/>
      <point x="856.3" y="104.83333333333333"/>
      <point x="856.3" y="306.06666666666666" type="curve" smooth="yes"/>
      <point x="856.3" y="360.7"/>
      <point x="849.4666666666667" y="407.03333333333336"/>
      <point x="834.0" y="450.1333333333333" type="curve" smooth="yes"/>
      <point x="815.3666666666667" y="501.5"/>
      <point x="783.1666666666666" y="547.7"/>
      <point x="732.4" y="592.8666666666667" type="curve" smooth="yes"/>
      <point x="708.3" y="616.5333333333334"/>
      <point x="677.9333333333333" y="648.7"/>
      <point x="669.4333333333333" y="655.8666666666667" type="curve" smooth="yes"/>
      <point x="587.5" y="747.3666666666667"/>
      <point x="565.6666666666667" y="789.4333333333334"/>
      <point x="565.6666666666667" y="844.0333333333333" type="curve" smooth="yes"/>
      <point x="565.6666666666667" y="907.4666666666667"/>
      <point x="592.6333333333333" y="944.2666666666667"/>
      <point x="657.3666666666667" y="1020.7333333333332" type="curve" smooth="yes"/>
      <point x="687.9000000000001" y="1058.6"/>
      <point x="707.5333333333334" y="1083.1999999999998"/>
      <point x="726.7666666666667" y="1127.1333333333334" type="curve" smooth="yes"/>
      <point x="749.0" y="1170.1666666666667"/>
      <point x="760.5" y="1212.3333333333333"/>
      <point x="760.5" y="1280.9666666666667" type="curve" smooth="yes"/>
      <point x="760.5" y="1459.1666666666665"/>
      <point x="654.0666666666667" y="1567.0"/>
      <point x="462.43333333333334" y="1567.0" type="curve" smooth="yes"/>
      <point x="253.93333333333334" y="1567.0"/>
      <point x="134.26666666666665" y="1428.5666666666666"/>
      <point x="134.26666666666665" y="1186.2666666666667" type="curve" smooth="yes"/>
      <point x="134.26666666666665" y="0.0" type="line"/>
      <point x="286.43333333333334" y="0.0" type="line"/>
      <point x="286.43333333333334" y="1190.4333333333334" type="line" smooth="yes"/>
      <point x="286.43333333333334" y="1349.0666666666668"/>
      <point x="345.8666666666667" y="1433.3666666666668"/>
      <point x="458.83333333333337" y="1433.3666666666668" type="curve" smooth="yes"/>
      <point x="555.4666666666666" y="1433.3666666666668"/>
      <point x="606.1666666666666" y="1374.4666666666667"/>
      <point x="606.1666666666666" y="1264.7333333333333" type="curve" smooth="yes"/>
      <point x="606.1666666666666" y="1174.6000000000001"/>
      <point x="572.3" y="1118.7"/>
      <point x="512.2666666666667" y="1048.3666666666668" type="curve" smooth="yes"/>
      <point x="446.3666666666667" y="968.6333333333333"/>
      <point x="418.3666666666667" y="919.1333333333333"/>
      <point x="418.3666666666667" y="843.7666666666667" type="curve" smooth="yes"/>
      <point x="418.3666666666667" y="729.8"/>
      <point x="474.0" y="648.3666666666667"/>
      <point x="568.0" y="549.7" type="curve" smooth="yes"/>
      <point x="673.9333333333333" y="434.56666666666666"/>
      <point x="701.2" y="392.4666666666667"/>
      <point x="701.2" y="300.3" type="curve" smooth="yes"/>
      <point x="701.2" y="178.36666666666667"/>
      <point x="647.6999999999999" y="109.43333333333335"/>
      <point x="544.6333333333333" y="109.43333333333335" type="curve" smooth="yes"/>
      <point x="476.46666666666664" y="109.43333333333335"/>
      <point x="416.5" y="136.86666666666667"/>
      <point x="361.56666666666666" y="174.53333333333333" type="curve"/>
      <point x="361.56666666666666" y="33.0" type="line"/>
      <point x="409.3333333333333" y="-2.0"/>
      <point x="481.43333333333334" y="-20.0"/>
    </contour>
  </outline>
</glyph>
<glyph name="ae" format="2">
  <advance width="1322.0"/>
  <unicode hex="00E6"/>
  <note>
ae
</note>
  <anchor x="660.8" y="0.0" name="bottom"/>
  <anchor x="660.8" y="1094.8000000000002" name="top"/>
  <outline>
    <contour>
      <point x="331.9" y="-20.0" type="curve" smooth="yes"/>
      <point x="467.1666666666667" y="-20.0"/>
      <point x="561.6333333333333" y="44.1"/>
      <point x="627.7666666666667" y="200.46666666666667" type="curve"/>
      <point x="687.7" y="58.666666666666664"/>
      <point x="800.9333333333334" y="-20.0"/>
      <point x="947.0" y="-20.0" type="curve" smooth="yes"/>
      <point x="1039.0333333333333" y="-20.0"/>
      <point x="1123.3" y="3.1666666666666665"/>
      <point x="1197.0666666666668" y="48.96666666666667" type="curve"/>
      <point x="1197.0666666666668" y="180.60000000000002" type="line"/>
      <point x="1123.1666666666667" y="134.56666666666666"/>
      <point x="1034.9" y="109.16666666666667"/>
      <point x="962.7666666666667" y="109.16666666666667" type="curve" smooth="yes"/>
      <point x="801.6666666666666" y="109.16666666666667"/>
      <point x="720.8000000000001" y="249.49999999999997"/>
      <point x="715.2666666666667" y="525.0333333333333" type="curve"/>
      <point x="1236.0333333333333" y="525.0333333333333" type="line"/>
      <point x="1236.0333333333333" y="631.0" type="line" smooth="yes"/>
      <point x="1236.0333333333333" y="931.2333333333333"/>
      <point x="1112.8333333333333" y="1115.8"/>
      <point x="908.8333333333334" y="1115.8" type="curve" smooth="yes"/>
      <point x="803.2" y="1115.8"/>
      <point x="721.3666666666667" y="1067.4333333333334"/>
      <point x="662.0999999999999" y="970.6333333333334" type="curve"/>
      <point x="618.5333333333333" y="1067.9"/>
      <point x="539.2666666666667" y="1116.5"/>
      <point x="423.06666666666666" y="1116.5" type="curve" smooth="yes"/>
      <point x="311.66666666666663" y="1116.5"/>
      <point x="226.1" y="1084.3333333333333"/>
      <point x="146.29999999999998" y="1034.3666666666666" type="curve"/>
      <point x="204.56666666666666" y="923.4333333333333" type="line"/>
      <point x="276.8" y="968.1666666666666"/>
      <point x="343.7666666666667" y="990.0333333333333"/>
      <point x="407.8666666666667" y="990.0333333333333" type="curve" smooth="yes"/>
      <point x="513.1666666666666" y="990.0333333333333"/>
      <point x="561.8333333333333" y="908.0333333333334"/>
      <point x="561.8333333333333" y="743.3666666666667" type="curve" smooth="yes"/>
      <point x="561.8333333333333" y="657.5666666666667" type="line"/>
      <point x="434.8" y="651.3333333333334" type="line" smooth="yes"/>
      <point x="198.43333333333334" y="640.0999999999999"/>
      <point x="70.3" y="518.3"/>
      <point x="70.3" y="302.6666666666667" type="curve" smooth="yes"/>
      <point x="70.3" y="101.76666666666667"/>
      <point x="169.89999999999998" y="-20.0"/>
    </contour>
    <contour>
      <point x="365.26666666666665" y="103.46666666666668" type="curve" smooth="yes"/>
      <point x="279.53333333333336" y="103.46666666666668"/>
      <point x="228.63333333333335" y="165.36666666666667"/>
      <point x="228.63333333333335" y="301.59999999999997" type="curve" smooth="yes"/>
      <point x="228.63333333333335" y="458.7"/>
      <point x="301.06666666666666" y="533.2666666666667"/>
      <point x="459.3333333333333" y="541.3333333333334" type="curve" smooth="yes"/>
      <point x="561.8333333333334" y="546.6333333333333" type="line"/>
      <point x="561.8333333333334" y="439.93333333333334" type="line" smooth="yes"/>
      <point x="561.8333333333334" y="228.29999999999998"/>
      <point x="488.20000000000005" y="103.46666666666668"/>
    </contour>
    <contour>
      <point x="718.4333333333333" y="646.7333333333333" type="line"/>
      <point x="730.8000000000001" y="875.4"/>
      <point x="794.4" y="988.6"/>
      <point x="907.7666666666667" y="988.6" type="curve" smooth="yes"/>
      <point x="1016.6" y="988.6"/>
      <point x="1086.0333333333333" y="866.0666666666667"/>
      <point x="1087.4333333333334" y="646.7333333333333" type="curve"/>
    </contour>
  </outline>
</glyph>
<glyph name="oslash" format="2">
  <advance width="904.0"/>
  <unicode hex="00F8"/>
  <note>
oslash
</note>
  <anchor x="451.83333333333337" y="1094.8000000000002" name="top"/>
  <outline>
    <contour>
      <point x="189.20000000000002" y="-127.36666666666666" type="line"/>
      <point x="271.3666666666667" y="38.03333333333333" type="line"/>
      <point x="318.8333333333333" y="-0.7333333333333338"/>
      <point x="379.2" y="-20.0"/>
      <point x="449.06666666666666" y="-20.0" type="curve" smooth="yes"/>
      <point x="682.2666666666667" y="-20.0"/>
      <point x="816.4333333333333" y="183.96666666666667"/>
      <point x="816.4333333333333" y="550.3666666666667" type="curve" smooth="yes"/>
      <point x="816.4333333333333" y="718.8666666666667"/>
      <point x="787.2333333333333" y="852.6666666666666"/>
      <point x="727.6" y="951.6666666666666" type="curve"/>
      <point x="819.5666666666667" y="1138.0333333333333" type="line"/>
      <point x="716.5666666666667" y="1190.0" type="line"/>
      <point x="643.5333333333334" y="1044.7333333333333" type="line"/>
      <point x="591.2333333333333" y="1091.0"/>
      <point x="527.5666666666667" y="1115.8"/>
      <point x="452.83333333333337" y="1115.8" type="curve" smooth="yes"/>
      <point x="215.73333333333335" y="1115.8"/>
      <point x="87.23333333333333" y="919.7"/>
      <point x="87.23333333333333" y="550.1333333333333" type="curve" smooth="yes"/>
      <point x="87.23333333333333" y="363.1666666666667"/>
      <point x="123.23333333333333" y="222.7"/>
      <point x="185.83333333333331" y="127.10000000000001" type="curve"/>
      <point x="85.03333333333333" y="-74.69999999999999" type="line"/>
    </contour>
    <contour>
      <point x="451.3" y="115.5" type="curve" smooth="yes"/>
      <point x="402.96666666666664" y="115.5"/>
      <point x="364.3666666666667" y="132.36666666666667"/>
      <point x="335.9666666666667" y="166.86666666666665" type="curve"/>
      <point x="639.0" y="774.8666666666667" type="line"/>
      <point x="655.1" y="719.6333333333333"/>
      <point x="663.5333333333334" y="644.7"/>
      <point x="663.5333333333334" y="550.3666666666667" type="curve" smooth="yes"/>
      <point x="663.5333333333334" y="257.1666666666667"/>
      <point x="591.8333333333334" y="115.5"/>
    </contour>
    <contour>
      <point x="270.43333333333334" y="298.43333333333334" type="line"/>
      <point x="251.26666666666668" y="359.6666666666667"/>
      <point x="241.3" y="442.9"/>
      <point x="241.3" y="550.1333333333333" type="curve" smooth="yes"/>
      <point x="241.3" y="825.3333333333334"/>
      <point x="296.93333333333334" y="979.5999999999999"/>
      <point x="451.3" y="979.5999999999999" type="curve" smooth="yes"/>
      <point x="504.1666666666667" y="979.5999999999999"/>
      <point x="546.8333333333334" y="957.3666666666667"/>
      <point x="578.2333333333333" y="913.6666666666667" type="curve"/>
    </contour>
  </outline>
</glyph>
<glyph name="thorn" format="2">
  <advance width="934.0"/>
  <unicode hex="00FE"/>
  <note>
thorn
</note>
  <anchor x="467.53333333333336" y="0.0" name="bottom"/>
  <anchor x="467.53333333333336" y="1094.8000000000002" name="top"/>
  <outline>
    <contour>
      <point x="134.26666666666665" y="-492.0" type="line"/>
      <point x="289.5" y="-492.0" type="line"/>
      <point x="289.5" y="8.36666666666666" type="line" smooth="yes"/>
      <point x="289.5" y="45.1"/>
      <point x="285.43333333333334" y="79.66666666666666"/>
      <point x="277.1" y="142.3" type="curve"/>
      <point x="286.43333333333334" y="142.3" type="line"/>
      <point x="337.2666666666667" y="37.43333333333334"/>
      <point x="426.33333333333337" y="-20.0"/>
      <point x="532.0333333333334" y="-20.0" type="curve" smooth="yes"/>
      <point x="734.0666666666667" y="-20.0"/>
      <point x="846.5999999999999" y="189.36666666666667"/>
      <point x="846.5999999999999" y="548.2666666666667" type="curve" smooth="yes"/>
      <point x="846.5999999999999" y="921.3333333333334"/>
      <point x="736.1666666666667" y="1115.8"/>
      <point x="526.5" y="1115.8" type="curve" smooth="yes"/>
      <point x="425.40000000000003" y="1115.8"/>
      <point x="341.70000000000005" y="1058.7"/>
      <point x="286.43333333333334" y="946.9666666666667" type="curve"/>
      <point x="279.1666666666667" y="946.9666666666667" type="line"/>
      <point x="283.03333333333336" y="1007.6"/>
      <point x="286.43333333333334" y="1066.2"/>
      <point x="286.43333333333334" y="1112.1333333333334" type="curve" smooth="yes"/>
      <point x="286.43333333333334" y="1556.0" type="line"/>
      <point x="134.26666666666665" y="1556.0" type="line"/>
    </contour>
    <contour>
      <point x="493.0" y="105.19999999999999" type="curve" smooth="yes"/>
      <point x="346.4666666666667" y="105.19999999999999"/>
      <point x="286.43333333333334" y="254.16666666666669"/>
      <point x="286.43333333333334" y="547.5" type="curve" smooth="yes"/>
      <point x="286.43333333333334" y="586.6666666666666" type="line" smooth="yes"/>
      <point x="286.43333333333334" y="803.3666666666667"/>
      <point x="323.79999999999995" y="980.3"/>
      <point x="493.2" y="980.3" type="curve" smooth="yes"/>
      <point x="657.8666666666667" y="980.3"/>
      <point x="688.4333333333334" y="778.4333333333334"/>
      <point x="688.4333333333334" y="550.6" type="curve" smooth="yes"/>
      <point x="688.4333333333334" y="291.93333333333334"/>
      <point x="644.5666666666666" y="105.19999999999999"/>
    </contour>
  </outline>
</glyph>
<glyph name="dcroat" format="2">
  <advance width="934.0"/>
  <unicode hex="0111"/>
  <note>
dcroat
</note>
  <outline>
    <contour>
      <point x="409.3" y="-20.0" type="curve" smooth="yes"/>
      <point x="514.6" y="-20.0"/>
      <point x="595.7666666666667" y="36.36666666666667"/>
      <point x="651.7" y="150.96666666666667" type="curve"/>
      <point x="660.8666666666667" y="150.96666666666667" type="line"/>
      <point x="682.3666666666667" y="0.0" type="line"/>
      <point x="800.2666666666667" y="0.0" type="line"/>
      <point x="800.2666666666667" y="1253.2666666666667" type="line"/>
      <point x="920.1333333333334" y="1253.2666666666667" type="line"/>
      <point x="920.1333333333334" y="1370.5" type="line"/>
      <point x="800.2666666666667" y="1370.5" type="line"/>
      <point x="800.2666666666667" y="1556.0" type="line"/>
      <point x="648.3333333333333" y="1556.0" type="line"/>
      <point x="648.3333333333333" y="1370.5" type="line"/>
      <point x="393.8" y="1370.5" type="line"/>
      <point x="393.8" y="1253.2666666666667" type="line"/>
      <point x="648.3333333333333" y="1253.2666666666667" type="line"/>
      <point x="648.3333333333333" y="1091.8666666666666" type="line" smooth="yes"/>
      <point x="649.0999999999999" y="1049.2333333333333"/>
      <point x="652.0333333333333" y="993.0666666666667"/>
      <point x="654.9000000000001" y="938.0666666666667" type="curve"/>
      <point x="644.3333333333334" y="938.0666666666667" type="line"/>
      <point x="590.0" y="1041.9666666666667"/>
      <point x="503.0" y="1099.0"/>
      <point x="406.0" y="1099.0" type="curve" smooth="yes"/>
      <point x="198.89999999999998" y="1099.0"/>
      <point x="87.23333333333333" y="897.8"/>
      <point x="87.23333333333333" y="538.1999999999999" type="curve" smooth="yes"/>
      <point x="87.23333333333333" y="170.96666666666667"/>
      <point x="199.70000000000002" y="-20.0"/>
    </contour>
    <contour>
      <point x="442.1333333333333" y="110.36666666666667" type="curve" smooth="yes"/>
      <point x="278.50000000000006" y="110.36666666666667"/>
      <point x="244.10000000000005" y="311.4"/>
      <point x="244.10000000000005" y="535.2666666666667" type="curve" smooth="yes"/>
      <point x="244.10000000000005" y="813.0"/>
      <point x="301.5" y="962.8000000000001"/>
      <point x="438.6" y="962.8000000000001" type="curve" smooth="yes"/>
      <point x="612.2" y="962.8000000000001"/>
      <point x="647.4000000000001" y="770.4666666666666"/>
      <point x="647.4000000000001" y="543.8000000000001" type="curve" smooth="yes"/>
      <point x="647.4000000000001" y="511.96666666666664" type="line" smooth="yes"/>
      <point x="647.4000000000001" y="242.70000000000002"/>
      <point x="578.4333333333333" y="110.36666666666667"/>
    </contour>
  </outline>
</glyph>
<glyph name="kgreenlandic" format="2">
  <advance width="795.6666666666666"/>
  <unicode hex="0138"/>
  <note>
kgreenlandic
</note>
  <anchor x="398.46666666666664" y="0.0" name="bottom"/>
  <anchor x="398.46666666666664" y="1094.8000000000002" name="top"/>
  <outline>
    <contour>
      <point x="134.26666666666665" y="0.0" type="line"/>
      <point x="286.4333333333334" y="0.0" type="line"/>
      <point x="286.4333333333334" y="419.0" type="line"/>
      <point x="401.06666666666666" y="555.5333333333333" type="line"/>
      <point x="625.4000000000001" y="0.0" type="line"/>
      <point x="784.9000000000001" y="0.0" type="line"/>
      <point x="503.56666666666666" y="677.1333333333333" type="line"/>
      <point x="763.8333333333333" y="1094.8000000000002" type="line"/>
      <point x="601.3333333333334" y="1094.8000000000002" type="line"/>
      <point x="341.4666666666667" y="663.9" type="line" smooth="yes"/>
      <point x="320.8666666666667" y="628.6333333333333"/>
      <point x="305.23333333333335" y="599.8333333333334"/>
      <point x="283.53333333333336" y="554.7333333333333" type="curve"/>
      <point x="277.56666666666666" y="554.9666666666666" type="line"/>
      <point x="283.2666666666667" y="614.5333333333334"/>
      <point x="286.4333333333334" y="681.3666666666667"/>
      <point x="286.4333333333334" y="755.1666666666666" type="curve" smooth="yes"/>
      <point x="286.4333333333334" y="1094.8000000000002" type="line"/>
      <point x="134.26666666666665" y="1094.8000000000002" type="line"/>
    </contour>
  </outline>
</glyph>
<glyph name="Ldot" format="2">
  <advance width="748.3333333333334"/>
  <unicode hex="013F"/>
  <note>
Ldot
</note>
  <outline>
    <contour>
      <point x="706.1666666666667" y="0.0" type="line"/>
      <point x="706.1666666666667" y="142.06666666666666" type="line"/>
      <point x="305.6" y="142.06666666666666" type="line"/>
      <point x="305.6" y="1462.0" type="line"/>
      <point x="149.5" y="1462.0" type="line"/>
      <point x="149.5" y="0.0" type="line"/>
    </contour>
    <contour>
      <point x="505.59999999999997" y="720.5333333333334" type="curve" smooth="yes"/>
      <point x="505.59999999999997" y="650.6999999999999"/>
      <point x="541.4666666666667" y="609.9666666666666"/>
      <point x="600.5333333333333" y="609.9666666666666" type="curve" smooth="yes"/>
      <point x="657.0666666666667" y="609.9666666666666"/>
      <point x="691.0333333333333" y="650.7"/>
      <point x="691.0333333333333" y="720.5333333333334" type="curve" smooth="yes"/>
      <point x="691.0333333333333" y="791.9666666666666"/>
      <point x="658.4666666666667" y="831.4000000000001"/>
      <point x="600.5333333333333" y="831.4000000000001" type="curve" smooth="yes"/>
      <point x="540.5333333333334" y="831.4000000000001"/>
      <point x="505.59999999999997" y="791.9666666666666"/>
    </contour>
  </outline>
</glyph>
<glyph name="lslash" format="2">
  <advance width="441.0"/>
  <unicode hex="0142"/>
  <note>
lslash
</note>
  <outline>
    <contour>
      <point x="296.0" y="1556.0" type="line"/>
      <point x="144.3" y="1556.0" type="line"/>
      <point x="144.3" y="761.1333333333333" type="line"/>
      <point x="-37.8" y="630.0333333333333" type="line"/>
      <point x="35.46666666666667" y="525.9666666666667" type="line"/>
      <point x="144.3" y="604.8666666666667" type="line"/>
      <point x="144.3" y="0.0" type="line"/>
      <point x="296.0" y="0.0" type="line"/>
      <point x="296.0" y="713.4000000000001" type="line"/>
      <point x="482.46666666666664" y="849.0999999999999" type="line"/>
      <point x="407.6666666666667" y="952.9333333333333" type="line"/>
      <point x="296.0" y="870.6666666666666" type="line"/>
    </contour>
  </outline>
</glyph>
<glyph name="eng" format="2">
  <advance width="926.0"/>
  <unicode hex="014B"/>
  <note>
eng
</note>
  <outline>
    <contour>
      <point x="577.5" y="-492.0" type="curve" smooth="yes"/>
      <point x="722.2666666666667" y="-492.0"/>
      <point x="798.0666666666667" y="-383.3333333333333"/>
      <point x="798.0666666666667" y="-177.2" type="curve" smooth="yes"/>
      <point x="798.0666666666667" y="715.0666666666667" type="line" smooth="yes"/>
      <point x="798.0666666666667" y="992.5"/>
      <point x="715.1" y="1115.8"/>
      <point x="529.5" y="1115.8" type="curve" smooth="yes"/>
      <point x="423.6666666666667" y="1115.8"/>
      <point x="330.2" y="1053.3666666666666"/>
      <point x="284.33333333333337" y="946.3666666666667" type="curve"/>
      <point x="274.06666666666666" y="946.3666666666667" type="line"/>
      <point x="257.9" y="1094.8000000000002" type="line"/>
      <point x="134.26666666666665" y="1094.8000000000002" type="line"/>
      <point x="134.26666666666665" y="0.0" type="line"/>
      <point x="286.43333333333334" y="0.0" type="line"/>
      <point x="286.43333333333334" y="575.4666666666666" type="line" smooth="yes"/>
      <point x="286.43333333333334" y="725.0333333333334"/>
      <point x="303.5666666666667" y="828.1333333333333"/>
      <point x="340.43333333333334" y="892.1666666666667" type="curve" smooth="yes"/>
      <point x="372.7" y="948.5333333333333"/>
      <point x="422.73333333333335" y="977.7"/>
      <point x="489.59999999999997" y="977.7" type="curve" smooth="yes"/>
      <point x="595.9666666666667" y="977.7"/>
      <point x="645.9666666666667" y="892.0333333333334"/>
      <point x="645.9666666666667" y="720.2333333333333" type="curve" smooth="yes"/>
      <point x="645.9666666666667" y="-174.63333333333333" type="line" smooth="yes"/>
      <point x="645.9666666666667" y="-295.6"/>
      <point x="616.5" y="-355.5"/>
      <point x="557.1666666666667" y="-355.5" type="curve" smooth="yes"/>
      <point x="536.0666666666667" y="-355.5"/>
      <point x="510.56666666666666" y="-349.56666666666666"/>
      <point x="485.7" y="-338.56666666666666" type="curve"/>
      <point x="485.7" y="-472.2" type="line"/>
      <point x="510.53333333333336" y="-485.3"/>
      <point x="543.0333333333333" y="-492.0"/>
    </contour>
  </outline>
</glyph>
<glyph name="oe" format="2">
  <advance width="1418.6666666666665"/>
  <unicode hex="0153"/>
  <note>
oe
</note>
  <anchor x="709.4666666666667" y="0.0" name="bottom"/>
  <anchor x="709.4666666666667" y="1094.8000000000002" name="top"/>
  <outline>
    <contour>
      <point x="450.46666666666664" y="-20.0" type="curve" smooth="yes"/>
      <point x="579.4000000000001" y="-20.0"/>
      <point x="676.7333333333333" y="46.96666666666666"/>
      <point x="737.6666666666667" y="181.13333333333333" type="curve"/>
      <point x="803.9" y="46.03333333333333"/>
      <point x="906.1333333333333" y="-20.0"/>
      <point x="1047.9333333333334" y="-20.0" type="curve" smooth="yes"/>
      <point x="1136.6" y="-20.0"/>
      <point x="1221.0333333333333" y="3.8666666666666667"/>
      <point x="1294.9333333333334" y="48.96666666666667" type="curve"/>
      <point x="1294.9333333333334" y="180.60000000000002" type="line"/>
      <point x="1214.8" y="132.5666666666667"/>
      <point x="1135.3333333333335" y="109.16666666666667"/>
      <point x="1063.8333333333335" y="109.16666666666667" type="curve" smooth="yes"/>
      <point x="900.1666666666666" y="109.16666666666667"/>
      <point x="817.0666666666667" y="248.10000000000002"/>
      <point x="813.3666666666667" y="525.0333333333333" type="curve"/>
      <point x="1333.2" y="525.0333333333333" type="line"/>
      <point x="1333.2" y="631.0" type="line" smooth="yes"/>
      <point x="1333.2" y="930.1666666666666"/>
      <point x="1210.5333333333333" y="1115.8"/>
      <point x="1010.2333333333333" y="1115.8" type="curve" smooth="yes"/>
      <point x="884.2666666666667" y="1115.8"/>
      <point x="792.5666666666667" y="1049.1333333333332"/>
      <point x="733.7333333333333" y="917.5" type="curve"/>
      <point x="669.8666666666667" y="1050.3000000000002"/>
      <point x="576.7" y="1115.8"/>
      <point x="453.06666666666666" y="1115.8" type="curve" smooth="yes"/>
      <point x="216.2" y="1115.8"/>
      <point x="87.23333333333333" y="919.2333333333333"/>
      <point x="87.23333333333333" y="551.0666666666666" type="curve" smooth="yes"/>
      <point x="87.23333333333333" y="244.06666666666666"/>
      <point x="189.23333333333335" y="-20.0"/>
    </contour>
    <contour>
      <point x="451.3" y="113.13333333333334" type="curve" smooth="yes"/>
      <point x="377.8666666666667" y="113.13333333333334"/>
      <point x="324.16666666666663" y="153.76666666666668"/>
      <point x="290.1333333333333" y="234.56666666666666" type="curve" smooth="yes"/>
      <point x="259.46666666666664" y="307.3333333333333"/>
      <point x="244.10000000000002" y="411.4666666666667"/>
      <point x="244.10000000000002" y="549.1999999999999" type="curve" smooth="yes"/>
      <point x="244.10000000000002" y="707.3666666666667"/>
      <point x="262.83333333333337" y="822.7666666666667"/>
      <point x="304.1333333333333" y="892.3000000000001" type="curve" smooth="yes"/>
      <point x="336.93333333333334" y="949.9000000000001"/>
      <point x="386.2" y="979.5999999999999"/>
      <point x="451.3" y="979.5999999999999" type="curve" smooth="yes"/>
      <point x="520.6666666666666" y="979.5999999999999"/>
      <point x="574.0666666666666" y="943.0333333333333"/>
      <point x="608.5666666666667" y="869.5" type="curve" smooth="yes"/>
      <point x="643.3" y="797.2666666666667"/>
      <point x="658.7333333333333" y="688.0666666666667"/>
      <point x="658.7333333333333" y="540.8666666666667" type="curve" smooth="yes"/>
      <point x="658.7333333333333" y="416.76666666666665"/>
      <point x="645.9000000000001" y="310.93333333333334"/>
      <point x="613.4333333333333" y="233.06666666666666" type="curve" smooth="yes"/>
      <point x="580.1666666666666" y="152.36666666666667"/>
      <point x="525.1" y="113.13333333333334"/>
    </contour>
    <contour>
      <point x="816.0666666666667" y="646.7333333333333" type="line"/>
      <point x="827.1999999999999" y="873.7666666666667"/>
      <point x="890.9666666666667" y="988.6"/>
      <point x="1005.6333333333334" y="988.6" type="curve" smooth="yes"/>
      <point x="1113.3" y="988.6"/>
      <point x="1182.9" y="867.2333333333333"/>
      <point x="1183.8333333333333" y="646.7333333333333" type="curve"/>
    </contour>
  </outline>
</glyph>
<glyph name="Tbar" format="2">
  <advance width="769.0"/>
  <unicode hex="0166"/>
  <note>
Tbar
</note>
  <outline>
    <contour>
      <point x="92.83333333333333" y="808.7333333333333" type="line"/>
      <point x="92.83333333333333" y="670.1333333333333" type="line"/>
      <point x="305.70000000000005" y="670.1333333333333" type="line"/>
      <point x="305.70000000000005" y="0.0" type="line"/>
      <point x="461.3333333333333" y="0.0" type="line"/>
      <point x="461.3333333333333" y="670.1333333333333" type="line"/>
      <point x="674.0333333333334" y="670.1333333333333" type="line"/>
      <point x="674.0333333333334" y="808.7333333333333" type="line"/>
      <point x="461.3333333333333" y="808.7333333333333" type="line"/>
      <point x="461.3333333333333" y="1318.4" type="line"/>
      <point x="748.6" y="1318.4" type="line"/>
      <point x="748.6" y="1462.0" type="line"/>
      <point x="18.433333333333337" y="1462.0" type="line"/>
      <point x="18.433333333333337" y="1318.4" type="line"/>
      <point x="305.70000000000005" y="1318.4" type="line"/>
      <point x="305.70000000000005" y="808.7333333333333" type="line"/>
    </contour>
  </outline>
</glyph>
<glyph name="tbar" format="2">
  <advance width="520.6666666666666"/>
  <unicode hex="0167"/>
  <note>
tbar
</note>
  <outline>
    <contour>
      <point x="348.20000000000005" y="-20.0" type="curve" smooth="yes"/>
      <point x="407.5" y="-20.0"/>
      <point x="454.6" y="-10.2"/>
      <point x="488.26666666666665" y="8.400000000000002" type="curve"/>
      <point x="488.26666666666665" y="131.10000000000002" type="line"/>
      <point x="458.50000000000006" y="119.36666666666667"/>
      <point x="427.6" y="113.5"/>
      <point x="396.0333333333333" y="113.5" type="curve" smooth="yes"/>
      <point x="322.56666666666666" y="113.5"/>
      <point x="294.1" y="154.63333333333335"/>
      <point x="294.1" y="277.6" type="curve" smooth="yes"/>
      <point x="294.1" y="573.4333333333333" type="line"/>
      <point x="469.36666666666673" y="573.4333333333333" type="line"/>
      <point x="469.36666666666673" y="691.9666666666667" type="line"/>
      <point x="294.1" y="691.9666666666667" type="line"/>
      <point x="294.1" y="968.3333333333334" type="line"/>
      <point x="475.90000000000003" y="968.3333333333334" type="line"/>
      <point x="475.90000000000003" y="1094.8000000000002" type="line"/>
      <point x="294.1" y="1094.8000000000002" type="line"/>
      <point x="294.1" y="1346.7333333333333" type="line"/>
      <point x="193.33333333333334" y="1346.7333333333333" type="line"/>
      <point x="149.96666666666667" y="1095.9666666666667" type="line"/>
      <point x="39.5" y="1045.3333333333333" type="line"/>
      <point x="39.5" y="968.3333333333334" type="line"/>
      <point x="141.0" y="968.3333333333334" type="line"/>
      <point x="141.0" y="691.9666666666667" type="line"/>
      <point x="39.5" y="691.9666666666667" type="line"/>
      <point x="39.5" y="573.4333333333333" type="line"/>
      <point x="141.0" y="573.4333333333333" type="line"/>
      <point x="141.0" y="262.73333333333335" type="line" smooth="yes"/>
      <point x="141.0" y="74.5"/>
      <point x="208.9" y="-20.0"/>
    </contour>
  </outline>
</glyph>
<glyph name="longs" format="2">
  <advance width="447.0"/>
  <unicode hex="017F"/>
  <note>
longs
</note>
  <anchor x="223.93333333333337" y="0.0" name="bottom"/>
  <anchor x="223.93333333333337" y="1094.8000000000002" name="top"/>
  <outline>
    <contour>
      <point x="134.26666666666665" y="0.0" type="line"/>
      <point x="286.43333333333334" y="0.0" type="line"/>
      <point x="286.43333333333334" y="1183.4666666666667" type="line" smooth="yes"/>
      <point x="286.43333333333334" y="1249.0"/>
      <point x="291.1333333333333" y="1297.9666666666667"/>
      <point x="299.83333333333337" y="1336.4333333333334" type="curve" smooth="yes"/>
      <point x="313.73333333333335" y="1407.2333333333333"/>
      <point x="339.93333333333334" y="1437.0"/>
      <point x="394.8666666666667" y="1437.0" type="curve" smooth="yes"/>
      <point x="429.7" y="1437.0"/>
      <point x="461.46666666666664" y="1426.9"/>
      <point x="495.6333333333333" y="1408.9666666666667" type="curve"/>
      <point x="541.0" y="1535.2333333333333" type="line"/>
      <point x="495.29999999999995" y="1556.4333333333334"/>
      <point x="445.1333333333333" y="1567.0"/>
      <point x="389.5" y="1567.0" type="curve" smooth="yes"/>
      <point x="208.03333333333333" y="1567.0"/>
      <point x="134.26666666666665" y="1453.0333333333333"/>
      <point x="134.26666666666665" y="1185.4666666666667" type="curve" smooth="yes"/>
    </contour>
  </outline>
</glyph>
<glyph name="Uhorn" format="2">
  <advance width="1178.6666666666667"/>
  <unicode hex="01AF"/>
  <note>
Uhorn
</note>
  <anchor x="528.6" y="0.0" name="bottom"/>
  <anchor x="532.6333333333333" y="1462.0" name="top"/>
  <outline>
    <contour>
      <point x="529.6" y="-20.0" type="curve" smooth="yes"/>
      <point x="785.9" y="-20.0"/>
      <point x="918.5999999999999" y="152.7"/>
      <point x="918.5999999999999" y="488.76666666666665" type="curve" smooth="yes"/>
      <point x="918.5999999999999" y="1150.1000000000001" type="line"/>
      <point x="1012.0333333333333" y="1163.6666666666665"/>
      <point x="1082.1666666666667" y="1195.6"/>
      <point x="1132.5" y="1247.8" type="curve" smooth="yes"/>
      <point x="1195.1999999999998" y="1312.1333333333334"/>
      <point x="1228.2666666666667" y="1407.1"/>
      <point x="1242.4333333333334" y="1531.6333333333334" type="curve"/>
      <point x="1226.6666666666667" y="1556.0" type="line"/>
      <point x="1075.3333333333335" y="1556.0" type="line"/>
      <point x="1073.0333333333333" y="1370.7333333333333"/>
      <point x="1030.0" y="1286.9"/>
      <point x="918.5999999999999" y="1264.8" type="curve"/>
      <point x="918.5999999999999" y="1462.0" type="line"/>
      <point x="763.2" y="1462.0" type="line"/>
      <point x="763.2" y="476.79999999999995" type="line" smooth="yes"/>
      <point x="763.2" y="246.5"/>
      <point x="685.2333333333333" y="123.00000000000001"/>
      <point x="531.4666666666667" y="123.00000000000001" type="curve" smooth="yes"/>
      <point x="379.03333333333336" y="123.00000000000001"/>
      <point x="295.00000000000006" y="245.00000000000003"/>
      <point x="295.00000000000006" y="475.3666666666667" type="curve" smooth="yes"/>
      <point x="295.00000000000006" y="1462.0" type="line"/>
      <point x="139.06666666666666" y="1462.0" type="line"/>
      <point x="139.06666666666666" y="489.93333333333334" type="line" smooth="yes"/>
      <point x="139.06666666666666" y="158.8"/>
      <point x="275.4" y="-20.0"/>
    </contour>
  </outline>
</glyph>
<glyph name="jdotless" format="2">
  <advance width="423.33333333333337"/>
  <unicode hex="0237"/>
  <note>
uni0237
</note>
  <anchor x="211.9" y="0.0" name="bottom"/>
  <anchor x="211.9" y="1094.8000000000002" name="top"/>
  <outline>
    <contour>
      <point x="68.83333333333333" y="-492.0" type="curve" smooth="yes"/>
      <point x="214.33333333333334" y="-492.0"/>
      <point x="289.00000000000006" y="-387.16666666666663"/>
      <point x="289.00000000000006" y="-177.2" type="curve" smooth="yes"/>
      <point x="289.00000000000006" y="1094.8000000000002" type="line"/>
      <point x="137.06666666666666" y="1094.8000000000002" type="line"/>
      <point x="137.06666666666666" y="-174.63333333333333" type="line" smooth="yes"/>
      <point x="137.06666666666666" y="-235.76666666666665"/>
      <point x="130.36666666666667" y="-281.83333333333337"/>
      <point x="115.96666666666667" y="-311.3666666666667" type="curve" smooth="yes"/>
      <point x="102.03333333333333" y="-340.9666666666667"/>
      <point x="79.03333333333333" y="-355.5"/>
      <point x="48.266666666666666" y="-355.5" type="curve" smooth="yes"/>
      <point x="25.400000000000002" y="-355.5"/>
      <point x="2.0666666666666664" y="-349.8"/>
      <point x="-22.433333333333337" y="-338.56666666666666" type="curve"/>
      <point x="-22.433333333333337" y="-472.2" type="line"/>
      <point x="1.3333333333333321" y="-485.3"/>
      <point x="31.26666666666667" y="-492.0"/>
    </contour>
  </outline>
</glyph>
<glyph name="apostrophemod" format="2">
  <advance width="350.0"/>
  <unicode hex="02BC"/>
  <note>
afii57929
</note>
  <outline>
    <contour>
      <point x="35.333333333333336" y="982.3333333333334" type="curve"/>
      <point x="145.33333333333334" y="982.3333333333334" type="line"/>
      <point x="218.33333333333334" y="1146.3333333333333"/>
      <point x="274.66666666666663" y="1299.3333333333333"/>
      <point x="314.6666666666667" y="1440.0" type="curve"/>
      <point x="300.6666666666667" y="1462.0" type="line"/>
      <point x="135.66666666666666" y="1462.0" type="line"/>
      <point x="116.0" y="1313.0"/>
      <point x="83.0" y="1153.3333333333335"/>
    </contour>
  </outline>
</glyph>
<glyph name="lowringmod" format="2">
  <advance width="676.6666666666666"/>
  <unicode hex="02F3"/>
  <note>
uni02F3
</note>
  <anchor x="336.03333333333336" y="0.5333333333333333" name="_bottom"/>
  <outline>
    <contour>
      <point x="336.03333333333336" y="-534.7" type="curve" smooth="yes"/>
      <point x="465.90000000000003" y="-534.7"/>
      <point x="551.8333333333334" y="-455.7"/>
      <point x="551.8333333333334" y="-328.76666666666665" type="curve" smooth="yes"/>
      <point x="551.8333333333334" y="-208.9"/>
      <point x="461.83333333333337" y="-130.20000000000002"/>
      <point x="336.03333333333336" y="-130.20000000000002" type="curve" smooth="yes"/>
      <point x="205.1" y="-130.20000000000002"/>
      <point x="122.56666666666668" y="-209.03333333333333"/>
      <point x="122.56666666666668" y="-331.8333333333333" type="curve" smooth="yes"/>
      <point x="122.56666666666668" y="-456.6333333333333"/>
      <point x="204.33333333333334" y="-534.7"/>
    </contour>
    <contour>
      <point x="336.03333333333336" y="-443.0" type="curve" smooth="yes"/>
      <point x="260.7" y="-443.0"/>
      <point x="222.5" y="-401.43333333333334"/>
      <point x="222.5" y="-331.8333333333333" type="curve" smooth="yes"/>
      <point x="222.5" y="-266.40000000000003"/>
      <point x="268.46666666666664" y="-221.43333333333334"/>
      <point x="336.03333333333336" y="-221.43333333333334" type="curve" smooth="yes"/>
      <point x="407.56666666666666" y="-221.43333333333334"/>
      <point x="450.03333333333336" y="-266.40000000000003"/>
      <point x="450.03333333333336" y="-331.8333333333333" type="curve" smooth="yes"/>
      <point x="450.03333333333336" y="-400.5"/>
      <point x="403.1333333333333" y="-443.0"/>
    </contour>
  </outline>
</glyph>
<glyph name="gravecomb" format="2">
  <unicode hex="0300"/>
  <note>
gravecomb
</note>
  <anchor x="0.33333333333333215" y="1094.6666666666667" name="_top"/>
  <anchor x="0.3333333333333335" y="1569.0" name="top"/>
  <outline>
    <contour>
      <point x="94.66666666666667" y="1214.0" type="curve"/>
      <point x="189.0" y="1214.0" type="line"/>
      <point x="189.0" y="1237.0" type="line"/>
      <point x="125.0" y="1318.3333333333333"/>
      <point x="40.333333333333336" y="1460.0"/>
      <point x="4.66666666666667" y="1542.0" type="curve"/>
      <point x="-185.0" y="1542.0" type="line"/>
      <point x="-185.0" y="1523.3333333333333" type="line"/>
      <point x="-141.0" y="1442.3333333333335"/>
      <point x="3.9999999999999964" y="1287.6666666666665"/>
    </contour>
  </outline>
</glyph>
<glyph name="acutecomb" format="2">
  <unicode hex="0301"/>
  <note>
acutecomb
</note>
  <anchor x="-85.0" y="1131.3333333333333" name="_top"/>
  <anchor x="0.0" y="1569.0" name="top"/>
  <outline>
    <contour>
      <point x="-190.33333333333334" y="1213.3333333333333" type="line"/>
      <point x="-96.66666666666666" y="1213.3333333333333" type="line"/>
      <point x="6.0000000000000036" y="1298.0"/>
      <point x="138.33333333333334" y="1442.0"/>
      <point x="183.66666666666669" y="1522.6666666666667" type="curve"/>
      <point x="183.66666666666669" y="1541.3333333333333" type="line"/>
      <point x="-5.666666666666671" y="1541.3333333333333" type="line"/>
      <point x="-44.333333333333336" y="1456.3333333333333"/>
      <point x="-114.66666666666667" y="1334.3333333333333"/>
      <point x="-190.33333333333334" y="1236.3333333333333" type="curve"/>
    </contour>
  </outline>
</glyph>
<glyph name="circumflexcomb" format="2">
  <unicode hex="0302"/>
  <note>
circumflex
</note>
  <anchor x="347.0" y="1094.6666666666665" name="_top"/>
  <anchor x="347.0" y="1569.0" name="top"/>
  <outline>
    <contour>
      <point x="70.33333333333334" y="1214.0" type="line"/>
      <point x="154.66666666666669" y="1214.0" type="line"/>
      <point x="181.33333333333334" y="1237.6666666666665"/>
      <point x="219.33333333333337" y="1275.0"/>
      <point x="250.66666666666669" y="1309.3333333333335" type="curve" smooth="yes"/>
      <point x="269.0" y="1329.6666666666667"/>
      <point x="288.33333333333337" y="1351.0"/>
      <point x="345.6666666666667" y="1415.3333333333335" type="curve"/>
      <point x="392.0" y="1363.0"/>
      <point x="430.0" y="1319.6666666666667"/>
      <point x="438.3333333333333" y="1311.3333333333335" type="curve" smooth="yes"/>
      <point x="471.66666666666663" y="1273.3333333333333"/>
      <point x="487.6666666666667" y="1255.6666666666667"/>
      <point x="533.6666666666667" y="1214.0" type="curve"/>
      <point x="621.0" y="1214.0" type="line"/>
      <point x="621.0" y="1235.6666666666667" type="line"/>
      <point x="532.3333333333334" y="1350.3333333333333"/>
      <point x="453.6666666666667" y="1474.6666666666665"/>
      <point x="422.33333333333337" y="1542.0" type="curve"/>
      <point x="266.3333333333333" y="1542.0" type="line"/>
      <point x="229.0" y="1462.3333333333335"/>
      <point x="163.66666666666669" y="1360.6666666666667"/>
      <point x="70.33333333333334" y="1235.6666666666667" type="curve"/>
    </contour>
  </outline>
</glyph>
<glyph name="tildecomb" format="2">
  <unicode hex="0303"/>
  <note>
tildecomb
</note>
  <anchor x="302.1666666666667" y="1094.8" name="_top"/>
  <anchor x="302.1666666666667" y="1483.3999999999999" name="top"/>
  <outline>
    <contour>
      <point x="-1.3333333333333286" y="1214.0" type="curve"/>
      <point x="95.0" y="1214.0" type="line"/>
      <point x="107.33333333333334" y="1292.0"/>
      <point x="135.0" y="1336.3333333333333"/>
      <point x="176.66666666666666" y="1336.3333333333333" type="curve" smooth="yes"/>
      <point x="213.66666666666669" y="1336.3333333333333"/>
      <point x="251.33333333333334" y="1304.6666666666667"/>
      <point x="292.6666666666667" y="1273.3333333333333" type="curve" smooth="yes"/>
      <point x="329.0" y="1244.3333333333333"/>
      <point x="374.0" y="1216.0"/>
      <point x="424.3333333333333" y="1216.0" type="curve" smooth="yes"/>
      <point x="524.0" y="1216.0"/>
      <point x="591.0" y="1299.6666666666665"/>
      <point x="604.0" y="1457.0" type="curve"/>
      <point x="507.6666666666667" y="1457.0" type="line"/>
      <point x="495.0" y="1382.3333333333333"/>
      <point x="476.3333333333333" y="1335.0"/>
      <point x="429.6666666666667" y="1335.0" type="curve" smooth="yes"/>
      <point x="395.0" y="1335.0"/>
      <point x="358.33333333333337" y="1364.6666666666665"/>
      <point x="317.66666666666663" y="1395.3333333333333" type="curve" smooth="yes"/>
      <point x="278.6666666666667" y="1424.0"/>
      <point x="234.0" y="1455.0"/>
      <point x="181.66666666666669" y="1455.0" type="curve" smooth="yes"/>
      <point x="78.33333333333334" y="1455.0"/>
      <point x="14.333333333333329" y="1369.0"/>
    </contour>
  </outline>
</glyph>
<glyph name="macroncomb" format="2">
  <unicode hex="0304"/>
  <anchor x="251.66666666666669" y="1094.8" name="_top"/>
  <anchor x="251.66666666666666" y="1370.5666666666668" name="top"/>
  <outline>
    <contour>
      <point x="-2.0" y="1214.0" type="line"/>
      <point x="501.3333333333333" y="1214.0" type="line"/>
      <point x="501.3333333333333" y="1335.3333333333335" type="line"/>
      <point x="-2.0" y="1335.3333333333335" type="line"/>
    </contour>
  </outline>
</glyph>
<glyph name="brevecomb" format="2">
  <unicode hex="0306"/>
  <note>
breve
</note>
  <anchor x="573.6666666666667" y="1094.6666666666665" name="_top"/>
  <anchor x="573.6666666666667" y="1508.3333333333333" name="top"/>
  <outline>
    <contour>
      <point x="566.6666666666666" y="1214.0" type="curve" smooth="yes"/>
      <point x="721.0" y="1214.0"/>
      <point x="812.6666666666667" y="1313.0"/>
      <point x="820.3333333333334" y="1479.0" type="curve"/>
      <point x="718.6666666666667" y="1479.0" type="line"/>
      <point x="705.6666666666667" y="1382.0"/>
      <point x="661.0" y="1337.3333333333333"/>
      <point x="570.0" y="1337.3333333333333" type="curve" smooth="yes"/>
      <point x="477.0" y="1337.3333333333333"/>
      <point x="431.33333333333337" y="1381.3333333333335"/>
      <point x="422.3333333333333" y="1479.0" type="curve"/>
      <point x="323.66666666666674" y="1479.0" type="line"/>
      <point x="332.0" y="1306.0"/>
      <point x="413.33333333333337" y="1214.0"/>
    </contour>
  </outline>
</glyph>
<glyph name="dotaccentcomb" format="2">
  <unicode hex="0307"/>
  <note>
dotaccent
</note>
  <anchor x="223.66666666666666" y="1094.6666666666667" name="_top"/>
  <anchor x="223.66666666666666" y="1503.3333333333333" name="top"/>
  <outline>
    <contour>
      <point x="221.66666666666666" y="1234.0" type="curve" smooth="yes"/>
      <point x="278.0" y="1234.0"/>
      <point x="312.0" y="1274.3333333333333"/>
      <point x="312.0" y="1344.6666666666667" type="curve" smooth="yes"/>
      <point x="312.0" y="1416.0"/>
      <point x="279.66666666666663" y="1455.3333333333333"/>
      <point x="221.66666666666666" y="1455.3333333333333" type="curve" smooth="yes"/>
      <point x="161.33333333333331" y="1455.3333333333333"/>
      <point x="126.33333333333334" y="1416.0"/>
      <point x="126.33333333333334" y="1344.6666666666667" type="curve" smooth="yes"/>
      <point x="126.33333333333334" y="1274.3333333333333"/>
      <point x="162.33333333333331" y="1234.0"/>
    </contour>
  </outline>
</glyph>
<glyph name="dieresiscomb" format="2">
  <unicode hex="0308"/>
  <note>
dieresis
</note>
  <anchor x="563.6666666666667" y="1133.0" name="_top"/>
  <anchor x="563.6666666666667" y="1490.6666666666665" name="top"/>
  <outline>
    <contour>
      <point x="726.6666666666667" y="1234.0" type="curve" smooth="yes"/>
      <point x="776.0" y="1234.0"/>
      <point x="812.6666666666666" y="1266.3333333333335"/>
      <point x="812.6666666666666" y="1332.3333333333335" type="curve" smooth="yes"/>
      <point x="812.6666666666666" y="1397.6666666666667"/>
      <point x="775.3333333333334" y="1429.3333333333333"/>
      <point x="726.6666666666667" y="1429.3333333333333" type="curve" smooth="yes"/>
      <point x="678.0" y="1429.3333333333333"/>
      <point x="641.0" y="1397.6666666666667"/>
      <point x="641.0" y="1332.3333333333335" type="curve" smooth="yes"/>
      <point x="641.0" y="1266.6666666666665"/>
      <point x="678.3333333333334" y="1234.0"/>
    </contour>
    <contour>
      <point x="391.3333333333333" y="1234.0" type="curve" smooth="yes"/>
      <point x="439.3333333333333" y="1234.0"/>
      <point x="476.6666666666667" y="1267.3333333333335"/>
      <point x="476.6666666666667" y="1332.3333333333335" type="curve" smooth="yes"/>
      <point x="476.6666666666667" y="1396.3333333333333"/>
      <point x="439.3333333333333" y="1429.3333333333333"/>
      <point x="391.3333333333333" y="1429.3333333333333" type="curve" smooth="yes"/>
      <point x="342.0" y="1429.3333333333333"/>
      <point x="305.0" y="1397.6666666666667"/>
      <point x="305.0" y="1332.3333333333335" type="curve" smooth="yes"/>
      <point x="305.0" y="1266.0"/>
      <point x="342.0" y="1234.0"/>
    </contour>
  </outline>
</glyph>
<glyph name="hookabovecomb" format="2">
  <unicode hex="0309"/>
  <note>
hookabovecomb
</note>
  <anchor x="-1.0" y="1094.6666666666667" name="_top"/>
  <anchor x="-1.0" y="1682.0" name="top"/>
  <outline>
    <contour>
      <point x="-94.0" y="1214.0" type="line"/>
      <point x="7.000000000000003" y="1214.0" type="line"/>
      <point x="17.0" y="1321.0" type="line"/>
      <point x="123.33333333333334" y="1346.6666666666665"/>
      <point x="176.0" y="1406.3333333333333"/>
      <point x="176.0" y="1502.0" type="curve" smooth="yes"/>
      <point x="176.0" y="1622.6666666666667"/>
      <point x="97.33333333333333" y="1685.0"/>
      <point x="-54.66666666666667" y="1685.0" type="curve" smooth="yes"/>
      <point x="-102.66666666666666" y="1685.0"/>
      <point x="-142.33333333333334" y="1680.0"/>
      <point x="-176.0" y="1670.0" type="curve"/>
      <point x="-176.0" y="1571.6666666666667" type="line"/>
      <point x="-140.0" y="1580.0"/>
      <point x="-107.0" y="1584.3333333333335"/>
      <point x="-76.33333333333333" y="1584.3333333333335" type="curve" smooth="yes"/>
      <point x="2.333333333333333" y="1584.3333333333335"/>
      <point x="45.666666666666664" y="1554.3333333333333"/>
      <point x="45.666666666666664" y="1493.6666666666665" type="curve" smooth="yes"/>
      <point x="45.666666666666664" y="1430.6666666666667"/>
      <point x="-12.66666666666667" y="1389.0"/>
      <point x="-104.66666666666667" y="1383.3333333333335" type="curve"/>
    </contour>
  </outline>
</glyph>
<glyph name="ringcomb" format="2">
  <unicode hex="030A"/>
  <note>
ring
</note>
  <anchor x="580.3333333333334" y="1094.6666666666667" name="_top"/>
  <anchor x="580.3333333333334" y="1651.3333333333335" name="top"/>
  <outline>
    <contour>
      <point x="578.3333333333334" y="1214.0" type="curve" smooth="yes"/>
      <point x="708.6666666666667" y="1214.0"/>
      <point x="794.3333333333333" y="1293.0"/>
      <point x="794.3333333333333" y="1420.0" type="curve" smooth="yes"/>
      <point x="794.3333333333333" y="1539.6666666666665"/>
      <point x="704.6666666666667" y="1618.3333333333333"/>
      <point x="578.3333333333334" y="1618.3333333333333" type="curve" smooth="yes"/>
      <point x="447.66666666666674" y="1618.3333333333333"/>
      <point x="364.6666666666667" y="1540.0"/>
      <point x="364.6666666666667" y="1416.6666666666667" type="curve" smooth="yes"/>
      <point x="364.6666666666667" y="1292.0"/>
      <point x="446.66666666666674" y="1214.0"/>
    </contour>
    <contour>
      <point x="578.3333333333334" y="1305.0" type="curve" smooth="yes"/>
      <point x="502.66666666666674" y="1305.0"/>
      <point x="464.33333333333337" y="1348.6666666666667"/>
      <point x="464.33333333333337" y="1416.6666666666667" type="curve" smooth="yes"/>
      <point x="464.33333333333337" y="1482.6666666666665"/>
      <point x="511.66666666666674" y="1527.6666666666665"/>
      <point x="578.3333333333334" y="1527.6666666666665" type="curve" smooth="yes"/>
      <point x="650.3333333333334" y="1527.6666666666665"/>
      <point x="692.3333333333333" y="1482.6666666666667"/>
      <point x="692.3333333333333" y="1416.6666666666667" type="curve" smooth="yes"/>
      <point x="692.3333333333333" y="1348.3333333333333"/>
      <point x="645.3333333333333" y="1305.0"/>
    </contour>
  </outline>
</glyph>
<glyph name="hungarumlautcomb" format="2">
  <unicode hex="030B"/>
  <note>
hungarumlaut
</note>
  <anchor x="579.0" y="1094.6666666666667" name="_top"/>
  <anchor x="579.0" y="1569.0" name="top"/>
  <outline>
    <contour>
      <point x="556.0" y="1214.6666666666667" type="line"/>
      <point x="637.0" y="1214.6666666666667" type="line"/>
      <point x="729.3333333333334" y="1295.0"/>
      <point x="855.0" y="1440.6666666666665"/>
      <point x="900.3333333333334" y="1524.0" type="curve"/>
      <point x="900.3333333333334" y="1542.6666666666667" type="line"/>
      <point x="727.3333333333334" y="1542.6666666666667" type="line"/>
      <point x="691.0" y="1460.6666666666665"/>
      <point x="616.6666666666667" y="1319.0"/>
      <point x="556.0" y="1237.6666666666667" type="curve"/>
    </contour>
    <contour>
      <point x="248.66666666666669" y="1214.6666666666667" type="line"/>
      <point x="330.0" y="1214.6666666666667" type="line"/>
      <point x="417.33333333333337" y="1289.3333333333335"/>
      <point x="540.6666666666666" y="1434.6666666666665"/>
      <point x="592.6666666666666" y="1524.0" type="curve"/>
      <point x="592.6666666666666" y="1542.6666666666667" type="line"/>
      <point x="419.6666666666667" y="1542.6666666666667" type="line"/>
      <point x="383.3333333333333" y="1460.3333333333335"/>
      <point x="309.0" y="1319.0"/>
      <point x="248.66666666666669" y="1237.6666666666667" type="curve"/>
    </contour>
  </outline>
</glyph>
<glyph name="caroncomb" format="2">
  <unicode hex="030C"/>
  <note>
caron
</note>
  <anchor x="575.6666666666667" y="1094.6666666666667" name="_top"/>
  <anchor x="575.6666666666667" y="1569.0" name="top"/>
  <outline>
    <contour>
      <point x="494.33333333333337" y="1214.0" type="curve"/>
      <point x="650.0" y="1214.0" type="line"/>
      <point x="661.6666666666667" y="1238.3333333333333"/>
      <point x="679.3333333333334" y="1270.0"/>
      <point x="702.0" y="1306.0" type="curve" smooth="yes"/>
      <point x="741.0" y="1370.6666666666667"/>
      <point x="793.3333333333334" y="1448.6666666666665"/>
      <point x="849.0" y="1520.3333333333335" type="curve"/>
      <point x="849.0" y="1542.0" type="line"/>
      <point x="761.6666666666667" y="1542.0" type="line"/>
      <point x="712.0" y="1498.0"/>
      <point x="624.6666666666667" y="1400.3333333333335"/>
      <point x="574.6666666666667" y="1340.6666666666667" type="curve"/>
      <point x="469.6666666666667" y="1464.3333333333335"/>
      <point x="449.0" y="1482.0"/>
      <point x="382.6666666666667" y="1542.0" type="curve"/>
      <point x="298.0" y="1542.0" type="line"/>
      <point x="298.0" y="1520.3333333333335" type="line"/>
      <point x="356.33333333333337" y="1442.0"/>
      <point x="405.0" y="1370.0"/>
      <point x="444.0" y="1304.3333333333335" type="curve" smooth="yes"/>
      <point x="464.0" y="1271.6666666666667"/>
      <point x="480.66666666666663" y="1241.3333333333333"/>
    </contour>
  </outline>
</glyph>
<glyph name="dblgravecomb" format="2">
  <unicode hex="030F"/>
  <note>
uni030F
</note>
  <anchor x="-0.6666666666666666" y="1094.6666666666667" name="_top"/>
  <anchor x="-0.6666666666666666" y="1569.0" name="top"/>
  <outline>
    <contour>
      <point x="244.33333333333334" y="1214.0" type="curve"/>
      <point x="325.6666666666667" y="1214.0" type="line"/>
      <point x="325.6666666666667" y="1237.0" type="line"/>
      <point x="276.0" y="1301.3333333333335"/>
      <point x="203.33333333333334" y="1430.0"/>
      <point x="154.33333333333334" y="1542.0" type="curve"/>
      <point x="-20.0" y="1542.0" type="line"/>
      <point x="-20.0" y="1523.3333333333333" type="line"/>
      <point x="30.0" y="1435.3333333333335"/>
      <point x="161.33333333333331" y="1283.6666666666667"/>
    </contour>
    <contour>
      <point x="-64.66666666666667" y="1214.0" type="curve"/>
      <point x="17.333333333333336" y="1214.0" type="line"/>
      <point x="17.333333333333336" y="1237.0" type="line"/>
      <point x="-31.0" y="1300.3333333333333"/>
      <point x="-98.33333333333333" y="1417.0"/>
      <point x="-154.66666666666666" y="1542.0" type="curve"/>
      <point x="-327.0" y="1542.0" type="line"/>
      <point x="-327.0" y="1523.3333333333333" type="line"/>
      <point x="-279.66666666666663" y="1437.0"/>
      <point x="-148.33333333333334" y="1285.6666666666667"/>
    </contour>
  </outline>
</glyph>
<glyph name="commaturnedabovecomb" format="2">
  <unicode hex="0312"/>
  <anchor x="301.0" y="1094.6666666666667" name="_top"/>
  <anchor x="301.0" y="1569.0" name="top"/>
  <outline>
    <contour>
      <point x="172.0" y="1214.0" type="line"/>
      <point x="330.3333333333333" y="1214.0" type="line"/>
      <point x="341.0" y="1304.0"/>
      <point x="388.33333333333337" y="1458.0"/>
      <point x="418.33333333333337" y="1519.0" type="curve"/>
      <point x="418.33333333333337" y="1542.0" type="line"/>
      <point x="335.0" y="1542.0" type="line"/>
      <point x="264.0" y="1465.6666666666667"/>
      <point x="197.00000000000003" y="1326.3333333333335"/>
      <point x="172.0" y="1235.0" type="curve"/>
    </contour>
  </outline>
</glyph>
<glyph name="dotbelowcomb" format="2">
  <unicode hex="0323"/>
  <note>
dotbelowcomb
</note>
  <anchor x="-1.0" y="0.0" name="_bottom"/>
  <anchor x="-1.0" y="-351.3333333333333" name="bottom"/>
  <outline>
    <contour>
      <point x="1.9999999999999998" y="-351.3333333333333" type="curve" smooth="yes"/>
      <point x="60.00000000000001" y="-351.3333333333333"/>
      <point x="93.66666666666667" y="-311.33333333333337"/>
      <point x="93.66666666666667" y="-241.66666666666666" type="curve" smooth="yes"/>
      <point x="93.66666666666667" y="-171.66666666666666"/>
      <point x="61.0" y="-131.0"/>
      <point x="1.9999999999999998" y="-131.0" type="curve" smooth="yes"/>
      <point x="-58.66666666666667" y="-131.0"/>
      <point x="-93.66666666666667" y="-169.66666666666666"/>
      <point x="-93.66666666666667" y="-241.66666666666666" type="curve" smooth="yes"/>
      <point x="-93.66666666666667" y="-312.33333333333337"/>
      <point x="-57.66666666666667" y="-351.3333333333333"/>
    </contour>
  </outline>
</glyph>
<glyph name="commaaccentcomb" format="2">
  <unicode hex="0326"/>
  <anchor x="217.33333333333331" y="0.0" name="_bottom"/>
  <anchor x="217.33333333333331" y="-453.0" name="bottom"/>
  <outline>
    <contour>
      <point x="100.00000000000001" y="-457.6666666666667" type="line"/>
      <point x="181.33333333333334" y="-457.6666666666667" type="line"/>
      <point x="238.33333333333334" y="-378.3333333333333"/>
      <point x="299.3333333333333" y="-258.0"/>
      <point x="334.33333333333337" y="-149.66666666666666" type="curve"/>
      <point x="334.33333333333337" y="-129.66666666666666" type="line"/>
      <point x="172.66666666666669" y="-129.66666666666666" type="line"/>
      <point x="164.33333333333331" y="-215.33333333333334"/>
      <point x="128.0" y="-353.33333333333337"/>
      <point x="100.00000000000001" y="-434.66666666666663" type="curve"/>
    </contour>
  </outline>
</glyph>
<glyph name="cedillacomb" format="2">
  <unicode hex="0327"/>
  <note>
cedilla
</note>
  <anchor x="224.66666666666669" y="0.0" name="_bottom"/>
  <anchor x="224.66666666666669" y="-492.0" name="bottom"/>
  <outline>
    <contour>
      <point x="149.0" y="-564.0" type="curve" smooth="yes"/>
      <point x="311.6666666666667" y="-564.0"/>
      <point x="401.6666666666667" y="-488.99999999999994"/>
      <point x="401.6666666666667" y="-352.6666666666667" type="curve" smooth="yes"/>
      <point x="401.6666666666667" y="-258.3333333333333"/>
      <point x="344.6666666666667" y="-199.0"/>
      <point x="243.0" y="-174.33333333333334" type="curve"/>
      <point x="289.6666666666667" y="-72.0" type="line"/>
      <point x="182.0" y="-72.0" type="line"/>
      <point x="107.33333333333334" y="-231.33333333333331" type="line"/>
      <point x="211.33333333333331" y="-247.66666666666663"/>
      <point x="270.66666666666663" y="-284.0"/>
      <point x="270.66666666666663" y="-356.6666666666667" type="curve" smooth="yes"/>
      <point x="270.66666666666663" y="-419.0"/>
      <point x="229.33333333333331" y="-459.3333333333333"/>
      <point x="140.0" y="-459.3333333333333" type="curve" smooth="yes"/>
      <point x="105.99999999999999" y="-459.3333333333333"/>
      <point x="75.33333333333334" y="-454.6666666666667"/>
      <point x="47.66666666666667" y="-446.33333333333337" type="curve"/>
      <point x="47.66666666666667" y="-549.3333333333333" type="line"/>
      <point x="71.0" y="-559.0"/>
      <point x="104.66666666666667" y="-564.0"/>
    </contour>
  </outline>
</glyph>
<glyph name="ogonekcomb" format="2">
  <unicode hex="0328"/>
  <note>
ogonek
</note>
  <anchor x="388.6666666666667" y="10.0" name="_ogonek"/>
  <outline>
    <contour>
      <point x="245.0" y="-529.0" type="curve" smooth="yes"/>
      <point x="276.6666666666667" y="-529.0"/>
      <point x="306.6666666666667" y="-524.6666666666666"/>
      <point x="335.66666666666663" y="-515.6666666666667" type="curve"/>
      <point x="335.66666666666663" y="-410.0" type="line"/>
      <point x="318.33333333333337" y="-417.3333333333333"/>
      <point x="297.33333333333337" y="-421.0"/>
      <point x="271.0" y="-421.0" type="curve" smooth="yes"/>
      <point x="215.00000000000003" y="-421.0"/>
      <point x="183.0" y="-388.6666666666667"/>
      <point x="183.0" y="-320.33333333333337" type="curve" smooth="yes"/>
      <point x="183.0" y="-240.66666666666666"/>
      <point x="220.66666666666669" y="-163.0"/>
      <point x="312.6666666666667" y="-70.66666666666666" type="curve"/>
      <point x="207.33333333333331" y="-70.66666666666666" type="line"/>
      <point x="118.00000000000001" y="-138.66666666666666"/>
      <point x="56.33333333333334" y="-241.33333333333331"/>
      <point x="56.33333333333334" y="-338.6666666666667" type="curve" smooth="yes"/>
      <point x="56.33333333333334" y="-461.6666666666667"/>
      <point x="124.33333333333333" y="-529.0"/>
    </contour>
  </outline>
</glyph>
<glyph name="tonos" format="2">
  <advance width="1154.0"/>
  <unicode hex="0384"/>
  <note>
tonos
</note>
  <anchor x="538.6666666666666" y="1094.6666666666667" name="_top"/>
  <anchor x="773.6666666666667" y="1556.0" name="_topleft"/>
  <outline>
    <contour>
      <point x="451.3333333333333" y="1214.0" type="line"/>
      <point x="542.6666666666667" y="1214.0" type="line"/>
      <point x="605.3333333333334" y="1325.6666666666667"/>
      <point x="666.6666666666666" y="1458.3333333333335"/>
      <point x="700.0" y="1546.3333333333335" type="curve"/>
      <point x="700.0" y="1568.6666666666667" type="line"/>
      <point x="539.3333333333334" y="1568.6666666666667" type="line"/>
      <point x="524.6666666666666" y="1483.0"/>
      <point x="482.33333333333337" y="1325.6666666666667"/>
      <point x="451.3333333333333" y="1238.6666666666667" type="curve"/>
    </contour>
  </outline>
</glyph>
<glyph name="dieresistonos" format="2">
  <advance width="1131.0"/>
  <unicode hex="0385"/>
  <note>
dieresistonos
</note>
  <anchor x="566.3333333333334" y="1094.6666666666667" name="_top"/>
  <outline>
    <contour>
      <point x="501.3333333333333" y="1320.6666666666667" type="line"/>
      <point x="576.0" y="1320.6666666666667" type="line"/>
      <point x="634.0" y="1401.0"/>
      <point x="705.0" y="1553.6666666666665"/>
      <point x="728.0" y="1627.6666666666667" type="curve"/>
      <point x="728.0" y="1648.3333333333333" type="line"/>
      <point x="574.3333333333334" y="1648.3333333333333" type="line"/>
      <point x="566.3333333333334" y="1567.3333333333333"/>
      <point x="530.6666666666666" y="1428.0"/>
      <point x="501.3333333333333" y="1343.6666666666667" type="curve"/>
    </contour>
    <contour>
      <point x="367.6666666666667" y="1227.3333333333333" type="curve" smooth="yes"/>
      <point x="412.3333333333333" y="1227.3333333333333"/>
      <point x="450.66666666666663" y="1258.0"/>
      <point x="450.66666666666663" y="1326.0" type="curve" smooth="yes"/>
      <point x="450.66666666666663" y="1394.0"/>
      <point x="412.0" y="1423.0"/>
      <point x="367.6666666666667" y="1423.0" type="curve" smooth="yes"/>
      <point x="323.0" y="1423.0"/>
      <point x="285.6666666666667" y="1394.3333333333335"/>
      <point x="285.6666666666667" y="1326.0" type="curve" smooth="yes"/>
      <point x="285.6666666666667" y="1257.6666666666667"/>
      <point x="323.0" y="1227.3333333333333"/>
    </contour>
    <contour>
      <point x="762.0" y="1227.3333333333333" type="curve" smooth="yes"/>
      <point x="808.0" y="1227.3333333333333"/>
      <point x="846.3333333333334" y="1258.0"/>
      <point x="846.3333333333334" y="1325.6666666666667" type="curve" smooth="yes"/>
      <point x="846.3333333333334" y="1393.6666666666667"/>
      <point x="808.0" y="1423.0"/>
      <point x="761.6666666666667" y="1423.0" type="curve" smooth="yes"/>
      <point x="715.6666666666666" y="1423.0"/>
      <point x="680.6666666666666" y="1392.3333333333335"/>
      <point x="680.6666666666666" y="1326.0" type="curve" smooth="yes"/>
      <point x="680.6666666666666" y="1258.0"/>
      <point x="717.3333333333334" y="1227.3333333333333"/>
    </contour>
  </outline>
</glyph>
<glyph name="Pi" format="2">
  <advance width="1071.0"/>
  <unicode hex="03A0"/>
  <note>
Pi
</note>
  <outline>
    <contour>
      <point x="149.5" y="0.0" type="line"/>
      <point x="305.6" y="0.0" type="line"/>
      <point x="305.6" y="1319.7" type="line"/>
      <point x="765.9" y="1319.7" type="line"/>
      <point x="765.9" y="0.0" type="line"/>
      <point x="921.3000000000001" y="0.0" type="line"/>
      <point x="921.3000000000001" y="1462.0" type="line"/>
      <point x="149.5" y="1462.0" type="line"/>
    </contour>
  </outline>
</glyph>
<glyph name="Sigma" format="2">
  <advance width="796.3333333333333"/>
  <unicode hex="03A3"/>
  <note>
Sigma
</note>
  <outline>
    <contour>
      <point x="64.73333333333333" y="0.0" type="line"/>
      <point x="746.3333333333334" y="0.0" type="line"/>
      <point x="746.3333333333334" y="142.06666666666666" type="line"/>
      <point x="374.0" y="142.06666666666666" type="line"/>
      <point x="324.9" y="142.06666666666666"/>
      <point x="276.26666666666665" y="140.43333333333334"/>
      <point x="227.4" y="138.33333333333334" type="curve"/>
      <point x="563.3333333333334" y="762.8" type="line"/>
      <point x="244.10000000000002" y="1323.6666666666667" type="line"/>
      <point x="295.90000000000003" y="1321.1"/>
      <point x="338.43333333333334" y="1320.8666666666668"/>
      <point x="371.1" y="1320.8666666666666" type="curve"/>
      <point x="711.3666666666667" y="1320.8666666666666" type="line"/>
      <point x="711.3666666666667" y="1462.0" type="line"/>
      <point x="76.1" y="1462.0" type="line"/>
      <point x="76.1" y="1334.5" type="line"/>
      <point x="397.5" y="762.1" type="line"/>
      <point x="64.73333333333333" y="131.13333333333333" type="line"/>
    </contour>
  </outline>
</glyph>
<glyph name="beta" format="2">
  <advance width="946.3333333333333"/>
  <unicode hex="03B2"/>
  <note>
beta
</note>
  <outline>
    <contour>
      <point x="134.26666666666665" y="-492.0" type="line"/>
      <point x="286.43333333333334" y="-492.0" type="line"/>
      <point x="286.43333333333334" y="48.2" type="line"/>
      <point x="362.20000000000005" y="-4.499999999999999"/>
      <point x="420.6333333333333" y="-20.0"/>
      <point x="512.5666666666667" y="-20.0" type="curve" smooth="yes"/>
      <point x="735.0666666666667" y="-20.0"/>
      <point x="863.3666666666667" y="134.86666666666667"/>
      <point x="863.3666666666667" y="412.6333333333333" type="curve" smooth="yes"/>
      <point x="863.3666666666667" y="662.9333333333334"/>
      <point x="773.4333333333334" y="789.1666666666667"/>
      <point x="578.0333333333334" y="816.9" type="curve"/>
      <point x="578.0333333333334" y="824.9" type="line"/>
      <point x="739.6" y="861.0333333333333"/>
      <point x="807.1333333333333" y="971.5666666666667"/>
      <point x="807.1333333333333" y="1187.2333333333333" type="curve" smooth="yes"/>
      <point x="807.1333333333333" y="1424.9"/>
      <point x="685.3666666666667" y="1567.0"/>
      <point x="480.40000000000003" y="1567.0" type="curve" smooth="yes"/>
      <point x="260.0" y="1567.0"/>
      <point x="134.26666666666665" y="1416.3"/>
      <point x="134.26666666666665" y="1144.5" type="curve" smooth="yes"/>
    </contour>
    <contour>
      <point x="486.8666666666667" y="115.03333333333333" type="curve" smooth="yes"/>
      <point x="419.53333333333336" y="115.03333333333333"/>
      <point x="345.09999999999997" y="139.16666666666666"/>
      <point x="286.43333333333334" y="186.66666666666669" type="curve"/>
      <point x="286.43333333333334" y="1141.5666666666666" type="line" smooth="yes"/>
      <point x="286.43333333333334" y="1329.4333333333334"/>
      <point x="353.7" y="1433.3666666666668"/>
      <point x="478.40000000000003" y="1433.3666666666668" type="curve" smooth="yes"/>
      <point x="589.5" y="1433.3666666666668"/>
      <point x="655.9666666666666" y="1346.1000000000001"/>
      <point x="655.9666666666666" y="1171.5333333333333" type="curve" smooth="yes"/>
      <point x="655.9666666666666" y="975.7666666666667"/>
      <point x="593.8333333333333" y="883.9666666666666"/>
      <point x="454.66666666666663" y="883.9666666666666" type="curve" smooth="yes"/>
      <point x="415.56666666666666" y="883.9666666666666" type="line"/>
      <point x="415.56666666666666" y="748.7" type="line"/>
      <point x="458.56666666666666" y="748.7" type="line" smooth="yes"/>
      <point x="625.0" y="748.7"/>
      <point x="706.5" y="642.4333333333333"/>
      <point x="706.5" y="424.46666666666664" type="curve" smooth="yes"/>
      <point x="706.5" y="217.46666666666667"/>
      <point x="638.4666666666667" y="115.03333333333333"/>
    </contour>
  </outline>
</glyph>
<glyph name="delta" format="2">
  <advance width="914.6666666666666"/>
  <unicode hex="03B4"/>
  <note>
delta
</note>
  <outline>
    <contour>
      <point x="453.3333333333333" y="-20.0" type="curve" smooth="yes"/>
      <point x="687.2" y="-20.0"/>
      <point x="827.3" y="158.43333333333334"/>
      <point x="827.3" y="466.1666666666667" type="curve" smooth="yes"/>
      <point x="827.3" y="566.6666666666666"/>
      <point x="810.1999999999999" y="653.9333333333334"/>
      <point x="768.4666666666667" y="738.1" type="curve" smooth="yes"/>
      <point x="727.6666666666666" y="819.5666666666666"/>
      <point x="663.9333333333333" y="898.4"/>
      <point x="569.2" y="984.7333333333333" type="curve" smooth="yes"/>
      <point x="498.90000000000003" y="1049.6666666666667"/>
      <point x="449.96666666666664" y="1097.7"/>
      <point x="422.3333333333333" y="1130.0" type="curve" smooth="yes"/>
      <point x="375.0" y="1187.9"/>
      <point x="351.33333333333337" y="1237.9666666666667"/>
      <point x="351.33333333333337" y="1291.0333333333333" type="curve" smooth="yes"/>
      <point x="351.33333333333337" y="1374.6333333333332"/>
      <point x="414.6333333333333" y="1427.8333333333335"/>
      <point x="517.3333333333334" y="1427.8333333333335" type="curve" smooth="yes"/>
      <point x="593.1333333333333" y="1427.8333333333335"/>
      <point x="667.1333333333333" y="1406.9666666666667"/>
      <point x="742.0333333333333" y="1365.4666666666667" type="curve"/>
      <point x="796.5666666666666" y="1489.3666666666668" type="line"/>
      <point x="716.3" y="1531.5666666666666"/>
      <point x="629.6" y="1558.4333333333334"/>
      <point x="518.8333333333334" y="1558.4333333333334" type="curve" smooth="yes"/>
      <point x="325.93333333333334" y="1558.4333333333334"/>
      <point x="199.33333333333331" y="1451.6999999999998"/>
      <point x="199.33333333333331" y="1289.7666666666667" type="curve" smooth="yes"/>
      <point x="199.33333333333331" y="1176.8666666666666"/>
      <point x="245.43333333333334" y="1089.2333333333333"/>
      <point x="408.2333333333333" y="936.0666666666667" type="curve"/>
      <point x="208.23333333333332" y="857.4666666666666"/>
      <point x="88.53333333333333" y="674.6333333333333"/>
      <point x="88.53333333333333" y="442.0" type="curve" smooth="yes"/>
      <point x="88.53333333333333" y="157.76666666666668"/>
      <point x="230.83333333333331" y="-20.0"/>
    </contour>
    <contour>
      <point x="453.79999999999995" y="113.13333333333334" type="curve" smooth="yes"/>
      <point x="328.79999999999995" y="113.13333333333334"/>
      <point x="245.4" y="250.3"/>
      <point x="245.4" y="443.3666666666667" type="curve" smooth="yes"/>
      <point x="245.4" y="550.2"/>
      <point x="272.5" y="645.1"/>
      <point x="322.79999999999995" y="718.8666666666667" type="curve" smooth="yes"/>
      <point x="364.43333333333334" y="780.1333333333333"/>
      <point x="422.43333333333334" y="827.4000000000001"/>
      <point x="495.43333333333334" y="857.2333333333333" type="curve"/>
      <point x="617.9333333333334" y="736.1"/>
      <point x="671.2" y="609.9666666666667"/>
      <point x="671.2" y="466.76666666666665" type="curve" smooth="yes"/>
      <point x="671.2" y="236.73333333333335"/>
      <point x="594.0" y="113.13333333333334"/>
    </contour>
  </outline>
</glyph>
<glyph name="eta" format="2">
  <advance width="926.0"/>
  <unicode hex="03B7"/>
  <note>
eta
</note>
  <anchor x="462.76666666666665" y="1094.8000000000002" name="top"/>
  <outline>
    <contour>
      <point x="645.9666666666666" y="-492.0" type="line"/>
      <point x="798.0666666666667" y="-492.0" type="line"/>
      <point x="798.0666666666667" y="742.3" type="line" smooth="yes"/>
      <point x="798.0666666666667" y="997.1333333333333"/>
      <point x="709.6333333333333" y="1115.8"/>
      <point x="526.9333333333333" y="1115.8" type="curve" smooth="yes"/>
      <point x="426.90000000000003" y="1115.8"/>
      <point x="331.56666666666666" y="1054.4333333333334"/>
      <point x="285.6333333333333" y="946.3666666666667" type="curve"/>
      <point x="274.06666666666666" y="946.3666666666667" type="line"/>
      <point x="257.9" y="1094.8000000000002" type="line"/>
      <point x="134.26666666666665" y="1094.8000000000002" type="line"/>
      <point x="134.26666666666665" y="0.0" type="line"/>
      <point x="286.43333333333334" y="0.0" type="line"/>
      <point x="286.43333333333334" y="575.4666666666666" type="line" smooth="yes"/>
      <point x="286.43333333333334" y="710.1666666666666"/>
      <point x="300.5" y="809.0"/>
      <point x="331.1" y="874.0333333333333" type="curve" smooth="yes"/>
      <point x="365.6" y="947.1"/>
      <point x="419.6666666666667" y="981.6"/>
      <point x="499.26666666666665" y="981.6" type="curve" smooth="yes"/>
      <point x="598.8" y="981.6"/>
      <point x="645.9666666666666" y="892.7666666666667"/>
      <point x="645.9666666666666" y="720.2333333333333" type="curve" smooth="yes"/>
    </contour>
  </outline>
</glyph>
<glyph name="theta" format="2">
  <advance width="936.6666666666666"/>
  <unicode hex="03B8"/>
  <note>
theta
</note>
  <outline>
    <contour>
      <point x="465.1" y="-20.0" type="curve" smooth="yes"/>
      <point x="724.7333333333333" y="-20.0"/>
      <point x="849.9666666666666" y="243.03333333333333"/>
      <point x="849.9666666666666" y="783.8666666666667" type="curve" smooth="yes"/>
      <point x="849.9666666666666" y="1318.8333333333333"/>
      <point x="727.6666666666667" y="1579.0"/>
      <point x="470.70000000000005" y="1579.0" type="curve" smooth="yes"/>
      <point x="162.4" y="1579.0"/>
      <point x="88.53333333333333" y="1189.4333333333334"/>
      <point x="88.53333333333333" y="780.0" type="curve" smooth="yes"/>
      <point x="88.53333333333333" y="242.56666666666666"/>
      <point x="210.53333333333333" y="-20.0"/>
    </contour>
    <contour>
      <point x="468.03333333333336" y="110.13333333333334" type="curve" smooth="yes"/>
      <point x="403.1" y="110.13333333333334"/>
      <point x="349.3666666666667" y="152.86666666666667"/>
      <point x="312.1666666666667" y="242.83333333333334" type="curve" smooth="yes"/>
      <point x="268.46666666666664" y="345.6333333333333"/>
      <point x="244.5" y="510.03333333333336"/>
      <point x="240.50000000000003" y="735.2666666666667" type="curve"/>
      <point x="697.3" y="735.2666666666667" type="line"/>
      <point x="693.5333333333333" y="473.56666666666666"/>
      <point x="662.0333333333333" y="296.5"/>
      <point x="605.3666666666667" y="201.16666666666669" type="curve" smooth="yes"/>
      <point x="569.8666666666667" y="140.5"/>
      <point x="523.3666666666667" y="110.13333333333334"/>
    </contour>
    <contour>
      <point x="240.50000000000003" y="860.9333333333333" type="line"/>
      <point x="245.5" y="1057.7666666666667"/>
      <point x="266.6333333333333" y="1203.5333333333333"/>
      <point x="304.1333333333333" y="1302.2666666666667" type="curve" smooth="yes"/>
      <point x="340.8666666666667" y="1400.2333333333333"/>
      <point x="395.03333333333336" y="1448.6333333333334"/>
      <point x="466.6333333333333" y="1448.6333333333334" type="curve" smooth="yes"/>
      <point x="541.4" y="1448.6333333333334"/>
      <point x="597.5666666666667" y="1398.1333333333334"/>
      <point x="634.5999999999999" y="1299.3999999999999" type="curve" smooth="yes"/>
      <point x="671.8666666666667" y="1199.9666666666667"/>
      <point x="692.5333333333334" y="1053.9666666666667"/>
      <point x="697.3" y="860.9333333333333" type="curve"/>
    </contour>
  </outline>
</glyph>
<glyph name="lambda" format="2">
  <advance width="820.0"/>
  <unicode hex="03BB"/>
  <note>
lambda
</note>
  <outline>
    <contour>
      <point x="740.9333333333333" y="-20.0" type="curve" smooth="yes"/>
      <point x="774.5666666666667" y="-20.0"/>
      <point x="804.9666666666667" y="-13.9"/>
      <point x="830.6666666666666" y="-1.9333333333333327" type="curve"/>
      <point x="830.6666666666666" y="125.46666666666667" type="line"/>
      <point x="816.7333333333333" y="118.46666666666667"/>
      <point x="798.0333333333334" y="115.46666666666668"/>
      <point x="776.5" y="115.46666666666668" type="curve" smooth="yes"/>
      <point x="749.9666666666667" y="115.46666666666668"/>
      <point x="730.1333333333333" y="126.60000000000002"/>
      <point x="716.3" y="148.4666666666667" type="curve" smooth="yes"/>
      <point x="697.5666666666667" y="172.9"/>
      <point x="681.0" y="217.23333333333335"/>
      <point x="663.4" y="288.3" type="curve" smooth="yes"/>
      <point x="435.1333333333334" y="1300.0666666666666" type="line" smooth="yes"/>
      <point x="409.50000000000006" y="1400.4666666666667"/>
      <point x="375.4666666666667" y="1471.6666666666667"/>
      <point x="327.2666666666667" y="1515.2666666666667" type="curve" smooth="yes"/>
      <point x="286.70000000000005" y="1552.9333333333334"/>
      <point x="236.96666666666667" y="1570.6333333333334"/>
      <point x="174.06666666666666" y="1570.6333333333334" type="curve" smooth="yes"/>
      <point x="139.36666666666665" y="1570.6333333333334"/>
      <point x="112.16666666666667" y="1565.9333333333332"/>
      <point x="82.66666666666667" y="1556.0" type="curve"/>
      <point x="82.66666666666667" y="1423.7666666666667" type="line"/>
      <point x="100.93333333333334" y="1431.0"/>
      <point x="124.43333333333334" y="1434.4666666666667"/>
      <point x="148.9" y="1434.4666666666667" type="curve" smooth="yes"/>
      <point x="188.5" y="1434.4666666666667"/>
      <point x="219.96666666666667" y="1419.2"/>
      <point x="243.86666666666667" y="1391.5666666666666" type="curve" smooth="yes"/>
      <point x="268.06666666666666" y="1363.3999999999999"/>
      <point x="284.4" y="1321.8000000000002"/>
      <point x="293.6" y="1269.7333333333333" type="curve" smooth="yes"/>
      <point x="328.93333333333334" y="1093.9666666666667" type="line"/>
      <point x="16.03333333333333" y="0.0" type="line"/>
      <point x="167.96666666666667" y="0.0" type="line"/>
      <point x="357.5333333333333" y="715.1" type="line"/>
      <point x="368.7" y="759.5666666666667"/>
      <point x="379.03333333333336" y="810.6"/>
      <point x="389.46666666666664" y="881.7333333333333" type="curve"/>
      <point x="398.1666666666667" y="881.7333333333333" type="line"/>
      <point x="412.3666666666667" y="801.1666666666666"/>
      <point x="426.46666666666664" y="697.9666666666667"/>
      <point x="442.59999999999997" y="626.9333333333334" type="curve" smooth="yes"/>
      <point x="531.6666666666666" y="220.63333333333335" type="line" smooth="yes"/>
      <point x="568.5" y="65.26666666666667"/>
      <point x="627.3666666666667" y="-20.0"/>
    </contour>
  </outline>
</glyph>
<glyph name="xi" format="2">
  <advance width="677.0"/>
  <unicode hex="03BE"/>
  <note>
xi
</note>
  <outline>
    <contour>
      <point x="359.3333333333333" y="-409.33333333333337" type="curve"/>
      <point x="511.3333333333333" y="-409.33333333333337" type="line"/>
      <point x="587.6666666666667" y="-309.0"/>
      <point x="633.6666666666667" y="-191.33333333333331"/>
      <point x="633.6666666666667" y="-118.99999999999999" type="curve" smooth="yes"/>
      <point x="633.6666666666667" y="-64.99999999999999"/>
      <point x="623.0" y="-23.333333333333332"/>
      <point x="602.3333333333334" y="10.666666666666668" type="curve" smooth="yes"/>
      <point x="571.6666666666667" y="70.00000000000001"/>
      <point x="519.3333333333334" y="105.66666666666666"/>
      <point x="423.3333333333333" y="151.0" type="curve" smooth="yes"/>
      <point x="370.33333333333337" y="175.33333333333334"/>
      <point x="329.0" y="203.00000000000003"/>
      <point x="303.33333333333337" y="233.00000000000003" type="curve" smooth="yes"/>
      <point x="262.3333333333333" y="280.0"/>
      <point x="245.33333333333334" y="342.0"/>
      <point x="245.33333333333334" y="438.66666666666663" type="curve" smooth="yes"/>
      <point x="245.33333333333334" y="649.3333333333333"/>
      <point x="330.3333333333333" y="755.0"/>
      <point x="484.6666666666667" y="755.0" type="curve" smooth="yes"/>
      <point x="580.3333333333334" y="755.0" type="line"/>
      <point x="580.3333333333334" y="881.6666666666666" type="line"/>
      <point x="499.0" y="881.6666666666666" type="line" smooth="yes"/>
      <point x="346.3333333333333" y="881.6666666666666"/>
      <point x="284.33333333333337" y="948.3333333333333"/>
      <point x="284.33333333333337" y="1130.3333333333335" type="curve" smooth="yes"/>
      <point x="284.33333333333337" y="1225.6666666666665"/>
      <point x="318.6666666666667" y="1302.6666666666667"/>
      <point x="376.00000000000006" y="1356.0" type="curve" smooth="yes"/>
      <point x="432.0" y="1409.6666666666665"/>
      <point x="510.0" y="1437.6666666666667"/>
      <point x="593.3333333333334" y="1437.6666666666667" type="curve" smooth="yes"/>
      <point x="611.3333333333333" y="1437.6666666666667" type="line"/>
      <point x="611.3333333333333" y="1556.0" type="line"/>
      <point x="102.33333333333333" y="1556.0" type="line"/>
      <point x="102.33333333333333" y="1429.3333333333333" type="line"/>
      <point x="201.33333333333334" y="1429.3333333333333" type="line" smooth="yes"/>
      <point x="243.0" y="1429.3333333333333"/>
      <point x="296.0" y="1432.0"/>
      <point x="360.66666666666663" y="1437.6666666666667" type="curve"/>
      <point x="219.0" y="1391.0"/>
      <point x="133.33333333333334" y="1273.3333333333335"/>
      <point x="133.33333333333334" y="1129.0" type="curve" smooth="yes"/>
      <point x="133.33333333333334" y="942.0"/>
      <point x="199.33333333333334" y="853.3333333333334"/>
      <point x="340.3333333333333" y="823.0" type="curve"/>
      <point x="340.3333333333333" y="814.3333333333333" type="line"/>
      <point x="183.33333333333331" y="780.0"/>
      <point x="88.66666666666667" y="637.0"/>
      <point x="88.66666666666667" y="422.6666666666667" type="curve" smooth="yes"/>
      <point x="88.66666666666667" y="210.67644443021535"/>
      <point x="178.99676289567034" y="98.63349549342092"/>
      <point x="313.6666666666667" y="41.333333333333336" type="curve" smooth="yes"/>
      <point x="424.3333333333333" y="-6.999999999999998"/>
      <point x="481.3333333333333" y="-62.666666666666664"/>
      <point x="481.3333333333333" y="-140.0" type="curve" smooth="yes"/>
      <point x="481.3333333333333" y="-205.0"/>
      <point x="430.6666666666667" y="-311.3333333333333"/>
    </contour>
  </outline>
</glyph>
<glyph name="pi" format="2">
  <advance width="971.3333333333333"/>
  <unicode hex="03C0"/>
  <note>
pi
</note>
  <outline>
    <contour>
      <point x="820.0" y="-14.8" type="curve" smooth="yes"/>
      <point x="865.6999999999999" y="-14.8"/>
      <point x="898.6333333333334" y="-9.700000000000001"/>
      <point x="921.9000000000001" y="-0.033333333333333215" type="curve"/>
      <point x="921.9000000000001" y="127.13333333333334" type="line"/>
      <point x="896.4333333333333" y="122.63333333333334"/>
      <point x="876.4" y="119.93333333333334"/>
      <point x="857.9333333333334" y="119.16666666666667" type="curve" smooth="yes"/>
      <point x="798.8666666666667" y="119.16666666666667"/>
      <point x="772.6333333333333" y="161.76666666666668"/>
      <point x="772.6333333333333" y="265.9" type="curve" smooth="yes"/>
      <point x="772.6333333333333" y="965.6333333333333" type="line"/>
      <point x="934.8000000000001" y="965.6333333333333" type="line"/>
      <point x="934.8000000000001" y="1094.8000000000002" type="line"/>
      <point x="114.63333333333334" y="1094.8000000000002" type="line"/>
      <point x="16.1" y="1028.4" type="line"/>
      <point x="16.1" y="965.6333333333333" type="line"/>
      <point x="176.96666666666667" y="965.6333333333333" type="line"/>
      <point x="176.96666666666667" y="0.0" type="line"/>
      <point x="330.1333333333333" y="0.0" type="line"/>
      <point x="330.1333333333333" y="965.6333333333333" type="line"/>
      <point x="619.4666666666667" y="965.6333333333333" type="line"/>
      <point x="619.4666666666667" y="263.3333333333333" type="line" smooth="yes"/>
      <point x="619.4666666666667" y="74.83333333333334"/>
      <point x="680.3000000000001" y="-14.8"/>
    </contour>
  </outline>
</glyph>
<glyph name="rho" format="2">
  <advance width="928.6666666666667"/>
  <unicode hex="03C1"/>
  <note>
rho
</note>
  <outline>
    <contour>
      <point x="131.66666666666666" y="-492.0" type="line"/>
      <point x="284.6666666666667" y="-492.0" type="line"/>
      <point x="284.6666666666667" y="-199.66666666666666" type="line" smooth="yes"/>
      <point x="284.6666666666667" y="-145.0"/>
      <point x="281.0" y="-74.0"/>
      <point x="272.6666666666667" y="67.66666666666667" type="curve"/>
      <point x="282.6666666666667" y="67.66666666666667" type="line"/>
      <point x="330.66666666666663" y="12.0"/>
      <point x="397.66666666666663" y="-20.0"/>
      <point x="496.0" y="-20.0" type="curve" smooth="yes"/>
      <point x="720.3333333333334" y="-20.0"/>
      <point x="841.6666666666667" y="176.0"/>
      <point x="841.6666666666667" y="553.0" type="curve" smooth="yes"/>
      <point x="841.6666666666667" y="933.3333333333334"/>
      <point x="721.6666666666667" y="1115.6666666666665"/>
      <point x="489.0" y="1115.6666666666665" type="curve" smooth="yes"/>
      <point x="251.33333333333334" y="1115.6666666666665"/>
      <point x="131.66666666666666" y="934.3333333333334"/>
      <point x="131.66666666666666" y="572.0" type="curve" smooth="yes"/>
    </contour>
    <contour>
      <point x="465.0" y="113.66666666666667" type="curve" smooth="yes"/>
      <point x="391.33333333333337" y="113.66666666666667"/>
      <point x="330.3333333333333" y="144.33333333333334"/>
      <point x="284.6666666666667" y="206.33333333333334" type="curve"/>
      <point x="284.6666666666667" y="570.6666666666667" type="line" smooth="yes"/>
      <point x="284.6666666666667" y="722.6666666666666"/>
      <point x="303.33333333333337" y="831.3333333333333"/>
      <point x="342.0" y="897.0" type="curve" smooth="yes"/>
      <point x="373.3333333333333" y="952.6666666666666"/>
      <point x="420.3333333333333" y="980.3333333333333"/>
      <point x="482.66666666666663" y="980.3333333333333" type="curve" smooth="yes"/>
      <point x="536.3333333333334" y="980.3333333333333"/>
      <point x="582.0" y="959.3333333333334"/>
      <point x="612.0" y="910.0" type="curve" smooth="yes"/>
      <point x="661.3333333333334" y="843.3333333333334"/>
      <point x="684.3333333333334" y="720.0"/>
      <point x="684.3333333333334" y="550.0" type="curve" smooth="yes"/>
      <point x="684.3333333333334" y="383.66666666666663"/>
      <point x="661.3333333333334" y="260.6666666666667"/>
      <point x="609.6666666666667" y="190.00000000000003" type="curve" smooth="yes"/>
      <point x="576.3333333333334" y="140.33333333333334"/>
      <point x="527.3333333333334" y="113.66666666666667"/>
    </contour>
  </outline>
</glyph>
<glyph name="sigma" format="2">
  <advance width="925.0"/>
  <unicode hex="03C3"/>
  <note>
sigma
</note>
  <outline>
    <contour>
      <point x="442.96666666666664" y="-20.0" type="curve" smooth="yes"/>
      <point x="513.8333333333334" y="-20.0"/>
      <point x="575.8333333333334" y="-1.666666666666667"/>
      <point x="627.3666666666667" y="35.0" type="curve" smooth="yes"/>
      <point x="741.5333333333334" y="116.06666666666666"/>
      <point x="804.0333333333333" y="280.7333333333333"/>
      <point x="804.0333333333333" y="508.09999999999997" type="curve" smooth="yes"/>
      <point x="804.0333333333333" y="693.4333333333333"/>
      <point x="765.0666666666667" y="844.6"/>
      <point x="686.5" y="967.5" type="curve"/>
      <point x="887.1666666666666" y="967.5" type="line"/>
      <point x="887.1666666666666" y="1094.8000000000002" type="line"/>
      <point x="505.90000000000003" y="1094.8000000000002" type="line" smooth="yes"/>
      <point x="227.36666666666665" y="1094.8000000000002"/>
      <point x="88.53333333333333" y="899.3333333333334"/>
      <point x="88.53333333333333" y="530.1666666666667" type="curve" smooth="yes"/>
      <point x="88.53333333333333" y="169.1"/>
      <point x="222.63333333333335" y="-20.0"/>
    </contour>
    <contour>
      <point x="445.43333333333334" y="113.13333333333334" type="curve" smooth="yes"/>
      <point x="384.6666666666667" y="113.13333333333334"/>
      <point x="337.1" y="142.03333333333333"/>
      <point x="303.6" y="204.10000000000002" type="curve" smooth="yes"/>
      <point x="265.1333333333334" y="273.8666666666667"/>
      <point x="245.4" y="381.8666666666667"/>
      <point x="245.4" y="536.4" type="curve" smooth="yes"/>
      <point x="245.4" y="697.8333333333334"/>
      <point x="268.9666666666667" y="818.1666666666667"/>
      <point x="322.3" y="888.1" type="curve" smooth="yes"/>
      <point x="365.2333333333333" y="942.8666666666667"/>
      <point x="425.6" y="967.5"/>
      <point x="503.90000000000003" y="967.5" type="curve" smooth="yes"/>
      <point x="561.7666666666667" y="967.5" type="line"/>
      <point x="584.0666666666667" y="914.8000000000001"/>
      <point x="602.1333333333333" y="861.3333333333334"/>
      <point x="615.1999999999999" y="805.9333333333333" type="curve" smooth="yes"/>
      <point x="637.1" y="715.9"/>
      <point x="647.7" y="621.2333333333333"/>
      <point x="647.7" y="517.4333333333333" type="curve" smooth="yes"/>
      <point x="647.7" y="352.20000000000005"/>
      <point x="621.5333333333333" y="234.33333333333334"/>
      <point x="568.5" y="172.4" type="curve" smooth="yes"/>
      <point x="537.7666666666667" y="132.60000000000002"/>
      <point x="494.46666666666664" y="113.13333333333334"/>
    </contour>
  </outline>
</glyph>
<glyph name="chi" format="2">
  <advance width="806.0"/>
  <unicode hex="03C7"/>
  <note>
chi
</note>
  <outline>
    <contour>
      <point x="8.666666666666666" y="-492.0" type="line"/>
      <point x="164.33333333333334" y="-492.0" type="line"/>
      <point x="391.0" y="150.33333333333331" type="line"/>
      <point x="481.0" y="-226.33333333333331" type="line" smooth="yes"/>
      <point x="497.0" y="-292.33333333333337"/>
      <point x="514.6666666666667" y="-341.66666666666663"/>
      <point x="534.3333333333334" y="-379.33333333333337" type="curve" smooth="yes"/>
      <point x="575.3333333333334" y="-458.33333333333337"/>
      <point x="631.6666666666666" y="-492.0"/>
      <point x="709.3333333333333" y="-492.0" type="curve" smooth="yes"/>
      <point x="740.0" y="-492.0"/>
      <point x="768.0" y="-487.3333333333333"/>
      <point x="794.6666666666666" y="-477.3333333333333" type="curve"/>
      <point x="794.6666666666666" y="-345.6666666666667" type="line"/>
      <point x="774.0" y="-352.66666666666663"/>
      <point x="754.0" y="-355.66666666666663"/>
      <point x="733.6666666666666" y="-355.66666666666663" type="curve" smooth="yes"/>
      <point x="699.3333333333333" y="-355.66666666666663"/>
      <point x="673.3333333333333" y="-343.0"/>
      <point x="655.3333333333334" y="-310.3333333333333" type="curve" smooth="yes"/>
      <point x="640.6666666666666" y="-284.33333333333337"/>
      <point x="627.6666666666667" y="-244.0"/>
      <point x="613.6666666666666" y="-187.33333333333334" type="curve" smooth="yes"/>
      <point x="482.0" y="340.6666666666667" type="line"/>
      <point x="779.0" y="1094.6666666666667" type="line"/>
      <point x="624.6666666666667" y="1094.6666666666667" type="line"/>
      <point x="421.0" y="523.6666666666667" type="line"/>
      <point x="344.0" y="843.3333333333334" type="line" smooth="yes"/>
      <point x="325.6666666666667" y="921.3333333333333"/>
      <point x="303.6666666666667" y="980.6666666666667"/>
      <point x="276.6666666666667" y="1022.3333333333334" type="curve" smooth="yes"/>
      <point x="240.00000000000003" y="1081.0"/>
      <point x="187.66666666666669" y="1107.6666666666665"/>
      <point x="118.0" y="1107.6666666666665" type="curve" smooth="yes"/>
      <point x="85.33333333333333" y="1107.6666666666665"/>
      <point x="58.0" y="1103.0"/>
      <point x="33.0" y="1093.3333333333333" type="curve"/>
      <point x="33.0" y="961.0" type="line"/>
      <point x="52.333333333333336" y="968.0"/>
      <point x="72.0" y="971.6666666666667"/>
      <point x="95.66666666666667" y="971.6666666666667" type="curve" smooth="yes"/>
      <point x="127.0" y="971.6666666666667"/>
      <point x="151.66666666666666" y="960.0"/>
      <point x="170.0" y="929.6666666666667" type="curve" smooth="yes"/>
      <point x="184.0" y="906.6666666666666"/>
      <point x="198.33333333333334" y="865.0"/>
      <point x="213.0" y="804.3333333333334" type="curve" smooth="yes"/>
      <point x="330.0" y="338.3333333333333" type="line"/>
    </contour>
  </outline>
</glyph>
<glyph name="omega" format="2">
  <advance width="1100.6666666666667"/>
  <unicode hex="03C9"/>
  <note>
omega
</note>
  <anchor x="550.4" y="0.0" name="bottom"/>
  <anchor x="550.4" y="1094.8000000000002" name="top"/>
  <outline>
    <contour>
      <point x="343.73333333333335" y="-20.0" type="curve" smooth="yes"/>
      <point x="450.9" y="-20.0"/>
      <point x="518.5666666666667" y="50.733333333333334"/>
      <point x="547.1666666666666" y="164.63333333333335" type="curve"/>
      <point x="552.5666666666666" y="164.63333333333335" type="line"/>
      <point x="580.6999999999999" y="53.300000000000004"/>
      <point x="645.4333333333333" y="-20.0"/>
      <point x="752.5666666666667" y="-20.0" type="curve" smooth="yes"/>
      <point x="805.1999999999999" y="-20.0"/>
      <point x="850.4333333333333" y="1.0"/>
      <point x="888.2666666666667" y="42.53333333333334" type="curve" smooth="yes"/>
      <point x="966.5" y="127.46666666666667"/>
      <point x="1008.0333333333333" y="293.6666666666667"/>
      <point x="1008.0333333333333" y="533.3333333333333" type="curve" smooth="yes"/>
      <point x="1008.0333333333333" y="724.0333333333333"/>
      <point x="976.9666666666667" y="908.9333333333333"/>
      <point x="907.6" y="1094.8000000000002" type="curve"/>
      <point x="754.9333333333333" y="1094.8000000000002" type="line"/>
      <point x="822.1333333333333" y="915.0333333333333"/>
      <point x="855.9333333333333" y="729.1333333333333"/>
      <point x="855.9333333333333" y="527.1333333333333" type="curve" smooth="yes"/>
      <point x="855.9333333333333" y="251.8"/>
      <point x="815.7333333333333" y="113.63333333333334"/>
      <point x="733.9333333333334" y="113.63333333333334" type="curve" smooth="yes"/>
      <point x="696.1" y="113.63333333333334"/>
      <point x="666.0999999999999" y="141.23333333333335"/>
      <point x="646.8" y="201.10000000000002" type="curve" smooth="yes"/>
      <point x="629.5999999999999" y="252.03333333333336"/>
      <point x="621.0" y="323.53333333333336"/>
      <point x="621.0" y="416.7666666666667" type="curve" smooth="yes"/>
      <point x="621.0" y="701.4333333333334" type="line"/>
      <point x="479.2" y="701.4333333333334" type="line"/>
      <point x="479.2" y="416.7666666666667" type="line" smooth="yes"/>
      <point x="479.2" y="317.93333333333334"/>
      <point x="469.43333333333334" y="242.93333333333337"/>
      <point x="450.1333333333333" y="191.29999999999998" type="curve" smooth="yes"/>
      <point x="431.06666666666666" y="139.60000000000002"/>
      <point x="402.76666666666665" y="113.63333333333334"/>
      <point x="366.56666666666666" y="113.63333333333334" type="curve" smooth="yes"/>
      <point x="285.23333333333335" y="113.63333333333334"/>
      <point x="244.56666666666666" y="251.5666666666667"/>
      <point x="244.56666666666666" y="527.8333333333334" type="curve" smooth="yes"/>
      <point x="244.56666666666666" y="728.6666666666666"/>
      <point x="278.1333333333334" y="915.0333333333333"/>
      <point x="345.5666666666667" y="1094.8000000000002" type="curve"/>
      <point x="192.43333333333334" y="1094.8000000000002" type="line"/>
      <point x="124.63333333333334" y="911.5999999999999"/>
      <point x="91.93333333333334" y="730.4333333333333"/>
      <point x="91.93333333333334" y="533.5666666666666" type="curve" smooth="yes"/>
      <point x="91.93333333333334" y="364.03333333333336"/>
      <point x="109.93333333333334" y="235.4"/>
      <point x="147.8" y="141.46666666666667" type="curve" smooth="yes"/>
      <point x="189.33333333333334" y="37.733333333333334"/>
      <point x="253.6333333333333" y="-20.0"/>
    </contour>
  </outline>
</glyph>
<glyph name="UpsilonhookSymbol" format="2">
  <advance width="792.6666666666667"/>
  <unicode hex="03D2"/>
  <note>
Upsilon1
</note>
  <anchor x="396.20000000000005" y="1462.0" name="top"/>
  <outline>
    <contour>
      <point x="310.7333333333333" y="0.0" type="line"/>
      <point x="465.43333333333334" y="0.0" type="line"/>
      <point x="465.43333333333334" y="563.5333333333334" type="line"/>
      <point x="488.20000000000005" y="651.8666666666667"/>
      <point x="512.4666666666667" y="739.5"/>
      <point x="536.1999999999999" y="820.3666666666667" type="curve" smooth="yes"/>
      <point x="577.4" y="970.4333333333334"/>
      <point x="613.4666666666667" y="1090.2"/>
      <point x="638.4666666666667" y="1164.7333333333333" type="curve" smooth="yes"/>
      <point x="660.5" y="1225.6666666666665"/>
      <point x="678.5999999999999" y="1266.7333333333333"/>
      <point x="694.5333333333333" y="1291.5" type="curve" smooth="yes"/>
      <point x="716.4666666666667" y="1324.1333333333334"/>
      <point x="739.0666666666667" y="1336.3666666666666"/>
      <point x="764.2" y="1336.3666666666666" type="curve" smooth="yes"/>
      <point x="776.6" y="1336.3666666666666"/>
      <point x="787.6" y="1334.3666666666666"/>
      <point x="797.7333333333333" y="1330.8333333333333" type="curve"/>
      <point x="797.7333333333333" y="1462.3666666666666" type="line"/>
      <point x="774.2666666666667" y="1470.7666666666667"/>
      <point x="753.8333333333334" y="1475.0"/>
      <point x="732.0666666666667" y="1475.0" type="curve" smooth="yes"/>
      <point x="660.6666666666667" y="1475.0"/>
      <point x="619.5" y="1449.0"/>
      <point x="581.2666666666667" y="1382.9666666666667" type="curve" smooth="yes"/>
      <point x="563.0" y="1350.3000000000002"/>
      <point x="542.4333333333334" y="1302.1333333333334"/>
      <point x="517.2333333333333" y="1229.3666666666666" type="curve" smooth="yes"/>
      <point x="487.8333333333333" y="1148.6666666666667"/>
      <point x="441.93333333333334" y="982.2666666666667"/>
      <point x="389.5" y="763.1333333333333" type="curve"/>
      <point x="165.13333333333335" y="1462.0" type="line"/>
      <point x="0.0" y="1462.0" type="line"/>
      <point x="310.7333333333333" y="572.6333333333333" type="line"/>
    </contour>
  </outline>
</glyph>
<glyph name="E-cy" format="2">
  <advance width="889.3333333333334"/>
  <unicode hex="0404"/>
  <note>
afii10053
</note>
  <outline>
    <contour>
      <point x="570.3" y="-20.0" type="curve" smooth="yes"/>
      <point x="661.7333333333333" y="-20.0"/>
      <point x="741.3666666666667" y="-0.0666666666666666"/>
      <point x="803.9666666666666" y="41.66666666666667" type="curve"/>
      <point x="803.9666666666666" y="182.29999999999998" type="line"/>
      <point x="742.3666666666667" y="146.3"/>
      <point x="677.6666666666667" y="122.30000000000001"/>
      <point x="584.3666666666667" y="122.30000000000001" type="curve" smooth="yes"/>
      <point x="393.76666666666665" y="122.30000000000001"/>
      <point x="271.53333333333336" y="325.7"/>
      <point x="264.3333333333333" y="687.5" type="curve"/>
      <point x="697.4333333333334" y="687.5" type="line"/>
      <point x="697.4333333333334" y="828.6333333333333" type="line"/>
      <point x="266.3333333333333" y="828.6333333333333" type="line"/>
      <point x="284.43333333333334" y="1152.7666666666667"/>
      <point x="399.3666666666667" y="1342.4666666666667"/>
      <point x="577.4333333333333" y="1342.4666666666667" type="curve" smooth="yes"/>
      <point x="652.7666666666667" y="1342.4666666666667"/>
      <point x="725.2666666666667" y="1311.9"/>
      <point x="782.4333333333334" y="1272.3999999999999" type="curve"/>
      <point x="844.3666666666667" y="1402.1333333333332" type="line"/>
      <point x="761.2333333333333" y="1458.1333333333334"/>
      <point x="673.0333333333334" y="1484.3000000000002"/>
      <point x="573.8333333333334" y="1484.3000000000002" type="curve" smooth="yes"/>
      <point x="279.3666666666667" y="1484.3000000000002"/>
      <point x="102.0" y="1202.0"/>
      <point x="102.13333333333334" y="731.2666666666667" type="curve" smooth="yes"/>
      <point x="102.0" y="219.66666666666666"/>
      <point x="303.5171236392056" y="-20.0"/>
    </contour>
  </outline>
</glyph>
<glyph name="Dzhe-cy" format="2">
  <advance width="1071.0"/>
  <unicode hex="040F"/>
  <note>
afii10145
</note>
  <outline>
    <contour>
      <point x="921.3" y="1462.0" type="line"/>
      <point x="765.2" y="1462.0" type="line"/>
      <point x="765.2" y="142.53333333333333" type="line"/>
      <point x="305.6" y="142.53333333333333" type="line"/>
      <point x="305.6" y="1462.0" type="line"/>
      <point x="149.5" y="1462.0" type="line"/>
      <point x="149.5" y="0.0" type="line"/>
      <point x="460.0" y="0.0" type="line"/>
      <point x="460.0" y="-385.56666666666666" type="line"/>
      <point x="613.5" y="-385.56666666666666" type="line"/>
      <point x="613.5" y="0.0" type="line"/>
      <point x="921.3" y="0.0" type="line"/>
    </contour>
  </outline>
</glyph>
<glyph name="Be-cy" format="2">
  <advance width="908.3333333333334"/>
  <unicode hex="0411"/>
  <note>
afii10018
</note>
  <outline>
    <contour>
      <point x="149.5" y="0.0" type="line"/>
      <point x="443.3" y="0.0" type="line" smooth="yes"/>
      <point x="695.2333333333333" y="0.0"/>
      <point x="843.4333333333333" y="159.6"/>
      <point x="843.4333333333333" y="427.03333333333336" type="curve" smooth="yes"/>
      <point x="843.4333333333333" y="707.5333333333334"/>
      <point x="711.6333333333333" y="838.9000000000001"/>
      <point x="438.5" y="838.9000000000001" type="curve" smooth="yes"/>
      <point x="305.6" y="838.9000000000001" type="line"/>
      <point x="305.6" y="1320.3999999999999" type="line"/>
      <point x="761.5666666666667" y="1320.3999999999999" type="line"/>
      <point x="761.5666666666667" y="1462.0" type="line"/>
      <point x="149.5" y="1462.0" type="line"/>
    </contour>
    <contour>
      <point x="305.6" y="138.53333333333333" type="line"/>
      <point x="305.6" y="699.6666666666666" type="line"/>
      <point x="434.56666666666666" y="699.6666666666666" type="line" smooth="yes"/>
      <point x="609.7666666666667" y="699.6666666666666"/>
      <point x="684.5666666666666" y="614.9666666666666"/>
      <point x="684.5666666666666" y="424.23333333333335" type="curve" smooth="yes"/>
      <point x="684.5666666666666" y="238.70000000000002"/>
      <point x="600.6333333333333" y="138.53333333333333"/>
      <point x="441.70000000000005" y="138.53333333333333" type="curve" smooth="yes"/>
    </contour>
  </outline>
</glyph>
<glyph name="De-cy" format="2">
  <advance width="1033.6666666666667"/>
  <unicode hex="0414"/>
  <note>
afii10021
</note>
  <outline>
    <contour>
      <point x="10.0" y="-385.56666666666666" type="line"/>
      <point x="160.46666666666667" y="-385.56666666666666" type="line"/>
      <point x="160.46666666666667" y="0.0" type="line"/>
      <point x="845.4666666666666" y="0.0" type="line"/>
      <point x="845.4666666666666" y="-385.56666666666666" type="line"/>
      <point x="995.9333333333334" y="-385.56666666666666" type="line"/>
      <point x="995.9333333333334" y="142.53333333333333" type="line"/>
      <point x="857.4" y="142.53333333333333" type="line"/>
      <point x="857.4" y="1462.0" type="line"/>
      <point x="329.93333333333334" y="1462.0" type="line"/>
      <point x="317.09999999999997" y="967.9333333333334"/>
      <point x="247.53333333333333" y="583.7333333333333"/>
      <point x="97.3" y="142.53333333333333" type="curve"/>
      <point x="10.0" y="142.53333333333333" type="line"/>
    </contour>
    <contour>
      <point x="258.96666666666664" y="142.53333333333333" type="line"/>
      <point x="378.4" y="491.6666666666667"/>
      <point x="451.5" y="898.4666666666666"/>
      <point x="472.56666666666666" y="1319.7" type="curve"/>
      <point x="701.3000000000001" y="1319.7" type="line"/>
      <point x="701.3000000000001" y="142.53333333333333" type="line"/>
    </contour>
  </outline>
</glyph>
<glyph name="Ii-cy" format="2">
  <advance width="1154.0"/>
  <unicode hex="0418"/>
  <note>
afii10026
</note>
  <anchor x="1133.9333333333334" y="0.0" name="bottomright"/>
  <anchor x="576.9666666666667" y="1462.0" name="top"/>
  <outline>
    <contour>
      <point x="149.5" y="0.0" type="line"/>
      <point x="344.96666666666664" y="0.0" type="line"/>
      <point x="862.9666666666667" y="1227.4666666666667" type="line"/>
      <point x="872.6" y="1227.4666666666667" type="line"/>
      <point x="862.5" y="1142.0666666666668"/>
      <point x="856.8666666666667" y="1055.3000000000002"/>
      <point x="856.8666666666667" y="966.4" type="curve" smooth="yes"/>
      <point x="856.8666666666667" y="0.0" type="line"/>
      <point x="1004.4333333333334" y="0.0" type="line"/>
      <point x="1004.4333333333334" y="1462.0" type="line"/>
      <point x="808.5999999999999" y="1462.0" type="line"/>
      <point x="293.6666666666667" y="247.9" type="line"/>
      <point x="284.5" y="247.9" type="line"/>
      <point x="293.6" y="362.33333333333337"/>
      <point x="297.5333333333333" y="418.6333333333333"/>
      <point x="297.5333333333333" y="513.0333333333333" type="curve" smooth="yes"/>
      <point x="297.5333333333333" y="1462.0" type="line"/>
      <point x="149.5" y="1462.0" type="line"/>
    </contour>
  </outline>
</glyph>
<glyph name="El-cy" format="2">
  <advance width="1007.0"/>
  <unicode hex="041B"/>
  <note>
afii10029
</note>
  <anchor x="775.6666666666666" y="0.0" name="cyrillicbighook"/>
  <outline>
    <contour>
      <point x="79.26666666666668" y="-16.1" type="curve" smooth="yes"/>
      <point x="227.26666666666665" y="-16.1"/>
      <point x="295.8" y="74.23333333333333"/>
      <point x="333.33333333333337" y="287.1666666666667" type="curve" smooth="yes"/>
      <point x="362.984159166943" y="451.6147476106992"/>
      <point x="412.5184733286758" y="1019.9950359205287"/>
      <point x="437.03333333333336" y="1319.7" type="curve"/>
      <point x="701.4000000000001" y="1319.7" type="line"/>
      <point x="701.4000000000001" y="0.0" type="line"/>
      <point x="857.5" y="0.0" type="line"/>
      <point x="857.5" y="1462.0" type="line"/>
      <point x="301.1" y="1462.0" type="line"/>
      <point x="256.73333333333335" y="953.8000000000001"/>
      <point x="225.8" y="622.0666666666667"/>
      <point x="213.76666666666668" y="522.7333333333333" type="curve" smooth="yes"/>
      <point x="193.43333333333334" y="354.16666666666663"/>
      <point x="173.03333333333333" y="249.5333333333334"/>
      <point x="150.66666666666666" y="196.96666666666667" type="curve" smooth="yes"/>
      <point x="128.0" y="145.8"/>
      <point x="99.76666666666667" y="125.03333333333333"/>
      <point x="59.266666666666666" y="125.03333333333333" type="curve" smooth="yes"/>
      <point x="26.166666666666668" y="125.03333333333333"/>
      <point x="3.400000000000001" y="129.56666666666666"/>
      <point x="-13.233333333333333" y="139.63333333333335" type="curve"/>
      <point x="-13.233333333333333" y="3.3" type="line"/>
      <point x="11.600000000000001" y="-10.333333333333334"/>
      <point x="46.400000000000006" y="-16.1"/>
    </contour>
  </outline>
</glyph>
<glyph name="U-cy" format="2">
  <advance width="781.0"/>
  <unicode hex="0423"/>
  <note>
afii10037
</note>
  <anchor x="390.59999999999997" y="1462.0" name="top"/>
  <outline>
    <contour>
      <point x="154.53333333333333" y="-20.0" type="curve" smooth="yes"/>
      <point x="218.36666666666667" y="-20.0"/>
      <point x="268.9" y="-1.9333333333333336"/>
      <point x="312.73333333333335" y="38.43333333333333" type="curve" smooth="yes"/>
      <point x="380.23333333333335" y="96.16666666666667"/>
      <point x="420.09999999999997" y="187.2"/>
      <point x="455.4333333333333" y="304.06666666666666" type="curve" smooth="yes"/>
      <point x="780.9666666666667" y="1462.0" type="line"/>
      <point x="621.3333333333333" y="1462.0" type="line"/>
      <point x="443.76666666666665" y="771.8000000000001" type="line" smooth="yes"/>
      <point x="430.26666666666665" y="719.5999999999999"/>
      <point x="422.26666666666665" y="686.8333333333334"/>
      <point x="414.1333333333333" y="631.3000000000001" type="curve"/>
      <point x="406.3" y="631.3000000000001" type="line"/>
      <point x="394.6333333333333" y="687.5"/>
      <point x="379.79999999999995" y="748.4666666666667"/>
      <point x="372.3" y="772.0333333333334" type="curve" smooth="yes"/>
      <point x="163.13333333333333" y="1462.0" type="line"/>
      <point x="0.0" y="1462.0" type="line"/>
      <point x="343.73333333333335" y="399.8666666666667" type="line"/>
      <point x="348.1" y="482.49999999999994" type="line"/>
      <point x="331.43333333333334" y="423.7666666666667"/>
      <point x="315.53333333333336" y="366.0333333333333"/>
      <point x="298.4" y="308.0" type="curve" smooth="yes"/>
      <point x="258.8333333333333" y="180.4"/>
      <point x="213.29999999999998" y="123.00000000000001"/>
      <point x="139.83333333333334" y="123.00000000000001" type="curve" smooth="yes"/>
      <point x="113.96666666666667" y="123.00000000000001"/>
      <point x="73.23333333333333" y="130.16666666666669"/>
      <point x="37.699999999999996" y="144.5" type="curve"/>
      <point x="37.699999999999996" y="2.8000000000000003" type="line"/>
      <point x="71.46666666666667" y="-12.533333333333333"/>
      <point x="112.76666666666668" y="-20.0"/>
    </contour>
  </outline>
</glyph>
